<svg width="680" height="442" viewBox="0 0 680 442" fill="none" xmlns="http://www.w3.org/2000/svg">
<mask id="path-1-outside-1_349_206" maskUnits="userSpaceOnUse" x="0" y="0" width="680" height="442" fill="black">
<rect fill="white" width="680" height="442"/>
<path d="M9.61445 73V3H39.9145C46.1811 3 51.5811 4.03333 56.1145 6.1C60.6478 8.1 64.1478 11 66.6145 14.8C69.0811 18.6 70.3145 23.1333 70.3145 28.4C70.3145 33.6 69.0811 38.1 66.6145 41.9C64.1478 45.6333 60.6478 48.5 56.1145 50.5C51.5811 52.5 46.1811 53.5 39.9145 53.5H18.6145L25.8145 46.4V73H9.61445ZM54.1145 73L36.6145 47.6H53.9145L71.6145 73H54.1145ZM25.8145 48.2L18.6145 40.6H39.0145C44.0145 40.6 47.7478 39.5333 50.2145 37.4C52.6811 35.2 53.9145 32.2 53.9145 28.4C53.9145 24.5333 52.6811 21.5333 50.2145 19.4C47.7478 17.2667 44.0145 16.2 39.0145 16.2H18.6145L25.8145 8.5V48.2ZM98.0496 31.2H131.75V43.8H98.0496V31.2ZM99.2496 60H137.35V73H83.1496V3H136.05V16H99.2496V60ZM165.239 34.5H198.839V47.5H165.239V34.5ZM166.439 73H150.239V3H203.139V16H166.439V73ZM214.107 73V3H244.407C250.673 3 256.073 4.03333 260.607 6.1C265.14 8.1 268.64 11 271.107 14.8C273.573 18.6 274.807 23.1333 274.807 28.4C274.807 33.6 273.573 38.1 271.107 41.9C268.64 45.6333 265.14 48.5 260.607 50.5C256.073 52.5 250.673 53.5 244.407 53.5H223.107L230.307 46.4V73H214.107ZM258.607 73L241.107 47.6H258.407L276.107 73H258.607ZM230.307 48.2L223.107 40.6H243.507C248.507 40.6 252.24 39.5333 254.707 37.4C257.173 35.2 258.407 32.2 258.407 28.4C258.407 24.5333 257.173 21.5333 254.707 19.4C252.24 17.2667 248.507 16.2 243.507 16.2H223.107L230.307 8.5V48.2ZM302.542 31.2H336.242V43.8H302.542V31.2ZM303.742 60H341.842V73H287.642V3H340.542V16H303.742V60ZM377.732 74.2C372.132 74.2 366.765 73.4667 361.632 72C356.498 70.4667 352.365 68.5 349.232 66.1L354.732 53.9C357.732 56.0333 361.265 57.8 365.332 59.2C369.465 60.5333 373.632 61.2 377.832 61.2C381.032 61.2 383.598 60.9 385.532 60.3C387.532 59.6333 388.998 58.7333 389.932 57.6C390.865 56.4667 391.332 55.1667 391.332 53.7C391.332 51.8333 390.598 50.3667 389.132 49.3C387.665 48.1667 385.732 47.2667 383.332 46.6C380.932 45.8667 378.265 45.2 375.332 44.6C372.465 43.9333 369.565 43.1333 366.632 42.2C363.765 41.2667 361.132 40.0667 358.732 38.6C356.332 37.1333 354.365 35.2 352.832 32.8C351.365 30.4 350.632 27.3333 350.632 23.6C350.632 19.6 351.698 15.9667 353.832 12.7C356.032 9.36666 359.298 6.73333 363.632 4.8C368.032 2.8 373.532 1.8 380.132 1.8C384.532 1.8 388.865 2.33333 393.132 3.4C397.398 4.4 401.165 5.93333 404.432 8L399.432 20.3C396.165 18.4333 392.898 17.0667 389.632 16.2C386.365 15.2667 383.165 14.8 380.032 14.8C376.898 14.8 374.332 15.1667 372.332 15.9C370.332 16.6333 368.898 17.6 368.032 18.8C367.165 19.9333 366.732 21.2667 366.732 22.8C366.732 24.6 367.465 26.0667 368.932 27.2C370.398 28.2667 372.332 29.1333 374.732 29.8C377.132 30.4667 379.765 31.1333 382.632 31.8C385.565 32.4667 388.465 33.2333 391.332 34.1C394.265 34.9667 396.932 36.1333 399.332 37.6C401.732 39.0667 403.665 41 405.132 43.4C406.665 45.8 407.432 48.8333 407.432 52.5C407.432 56.4333 406.332 60.0333 404.132 63.3C401.932 66.5667 398.632 69.2 394.232 71.2C389.898 73.2 384.398 74.2 377.732 74.2ZM466.501 3H482.701V73H466.501V3ZM434.701 73H418.501V3H434.701V73ZM467.701 44.3H433.501V30.6H467.701V44.3ZM499.263 73V3H515.463V73H499.263ZM532.075 73V3H545.475L586.775 53.4H580.275V3H596.275V73H582.975L541.575 22.6H548.075V73H532.075ZM646.637 74.2C641.104 74.2 636.004 73.3333 631.337 71.6C626.737 69.8 622.704 67.2667 619.237 64C615.837 60.7333 613.17 56.9 611.237 52.5C609.37 48.1 608.437 43.2667 608.437 38C608.437 32.7333 609.37 27.9 611.237 23.5C613.17 19.1 615.87 15.2667 619.337 12C622.804 8.73333 626.87 6.23333 631.537 4.49999C636.204 2.7 641.337 1.8 646.937 1.8C653.137 1.8 658.704 2.83333 663.637 4.89999C668.637 6.96666 672.837 9.96666 676.237 13.9L665.837 23.5C663.304 20.8333 660.537 18.8667 657.537 17.6C654.537 16.2667 651.27 15.6 647.737 15.6C644.337 15.6 641.237 16.1333 638.437 17.2C635.637 18.2667 633.204 19.8 631.137 21.8C629.137 23.8 627.57 26.1667 626.437 28.9C625.37 31.6333 624.837 34.6667 624.837 38C624.837 41.2667 625.37 44.2667 626.437 47C627.57 49.7333 629.137 52.1333 631.137 54.2C633.204 56.2 635.604 57.7333 638.337 58.8C641.137 59.8667 644.204 60.4 647.537 60.4C650.737 60.4 653.837 59.9 656.837 58.9C659.904 57.8333 662.87 56.0667 665.737 53.6L674.937 65.3C671.137 68.1667 666.704 70.3667 661.637 71.9C656.637 73.4333 651.637 74.2 646.637 74.2ZM660.137 63.2V36.9H674.937V65.3L660.137 63.2ZM24.798 195V138.2H2.39805V125H63.398V138.2H40.998V195H24.798ZM72.1145 195V125H102.414C108.681 125 114.081 126.033 118.614 128.1C123.148 130.1 126.648 133 129.114 136.8C131.581 140.6 132.814 145.133 132.814 150.4C132.814 155.6 131.581 160.1 129.114 163.9C126.648 167.633 123.148 170.5 118.614 172.5C114.081 174.5 108.681 175.5 102.414 175.5H81.1145L88.3145 168.4V195H72.1145ZM116.614 195L99.1145 169.6H116.414L134.114 195H116.614ZM88.3145 170.2L81.1145 162.6H101.514C106.514 162.6 110.248 161.533 112.714 159.4C115.181 157.2 116.414 154.2 116.414 150.4C116.414 146.533 115.181 143.533 112.714 141.4C110.248 139.267 106.514 138.2 101.514 138.2H81.1145L88.3145 130.5V170.2ZM136.45 195L167.65 125H183.65L214.95 195H197.95L172.35 133.2H178.75L153.05 195H136.45ZM152.05 180L156.35 167.7H192.35L196.75 180H152.05ZM222.212 195V125H254.012C261.612 125 268.312 126.467 274.112 129.4C279.912 132.267 284.445 136.3 287.712 141.5C290.979 146.7 292.612 152.867 292.612 160C292.612 167.067 290.979 173.233 287.712 178.5C284.445 183.7 279.912 187.767 274.112 190.7C268.312 193.567 261.612 195 254.012 195H222.212ZM238.412 181.7H253.212C257.879 181.7 261.912 180.833 265.312 179.1C268.779 177.3 271.445 174.767 273.312 171.5C275.245 168.233 276.212 164.4 276.212 160C276.212 155.533 275.245 151.7 273.312 148.5C271.445 145.233 268.779 142.733 265.312 141C261.912 139.2 257.879 138.3 253.212 138.3H238.412V181.7ZM304.829 195V125H321.029V195H304.829ZM352.142 195V138.2H329.742V125H390.742V138.2H368.342V195H352.142ZM399.458 195V125H415.658V195H399.458ZM466.271 196.2C460.737 196.2 455.604 195.3 450.871 193.5C446.204 191.7 442.137 189.167 438.671 185.9C435.271 182.633 432.604 178.8 430.671 174.4C428.804 170 427.871 165.2 427.871 160C427.871 154.8 428.804 150 430.671 145.6C432.604 141.2 435.304 137.367 438.771 134.1C442.237 130.833 446.304 128.3 450.971 126.5C455.637 124.7 460.704 123.8 466.171 123.8C471.704 123.8 476.771 124.7 481.371 126.5C486.037 128.3 490.071 130.833 493.471 134.1C496.937 137.367 499.637 141.2 501.571 145.6C503.504 149.933 504.471 154.733 504.471 160C504.471 165.2 503.504 170.033 501.571 174.5C499.637 178.9 496.937 182.733 493.471 186C490.071 189.2 486.037 191.7 481.371 193.5C476.771 195.3 471.737 196.2 466.271 196.2ZM466.171 182.4C469.304 182.4 472.171 181.867 474.771 180.8C477.437 179.733 479.771 178.2 481.771 176.2C483.771 174.2 485.304 171.833 486.371 169.1C487.504 166.367 488.071 163.333 488.071 160C488.071 156.667 487.504 153.633 486.371 150.9C485.304 148.167 483.771 145.8 481.771 143.8C479.837 141.8 477.537 140.267 474.871 139.2C472.204 138.133 469.304 137.6 466.171 137.6C463.037 137.6 460.137 138.133 457.471 139.2C454.871 140.267 452.571 141.8 450.571 143.8C448.571 145.8 447.004 148.167 445.871 150.9C444.804 153.633 444.271 156.667 444.271 160C444.271 163.267 444.804 166.3 445.871 169.1C447.004 171.833 448.537 174.2 450.471 176.2C452.471 178.2 454.804 179.733 457.471 180.8C460.137 181.867 463.037 182.4 466.171 182.4ZM516.646 195V125H530.046L571.346 175.4H564.846V125H580.846V195H567.546L526.146 144.6H532.646V195H516.646ZM620.407 196.2C614.807 196.2 609.441 195.467 604.307 194C599.174 192.467 595.041 190.5 591.907 188.1L597.407 175.9C600.407 178.033 603.941 179.8 608.007 181.2C612.141 182.533 616.307 183.2 620.507 183.2C623.707 183.2 626.274 182.9 628.207 182.3C630.207 181.633 631.674 180.733 632.607 179.6C633.541 178.467 634.007 177.167 634.007 175.7C634.007 173.833 633.274 172.367 631.807 171.3C630.341 170.167 628.407 169.267 626.007 168.6C623.607 167.867 620.941 167.2 618.007 166.6C615.141 165.933 612.241 165.133 609.307 164.2C606.441 163.267 603.807 162.067 601.407 160.6C599.007 159.133 597.041 157.2 595.507 154.8C594.041 152.4 593.307 149.333 593.307 145.6C593.307 141.6 594.374 137.967 596.507 134.7C598.707 131.367 601.974 128.733 606.307 126.8C610.707 124.8 616.207 123.8 622.807 123.8C627.207 123.8 631.541 124.333 635.807 125.4C640.074 126.4 643.841 127.933 647.107 130L642.107 142.3C638.841 140.433 635.574 139.067 632.307 138.2C629.041 137.267 625.841 136.8 622.707 136.8C619.574 136.8 617.007 137.167 615.007 137.9C613.007 138.633 611.574 139.6 610.707 140.8C609.841 141.933 609.407 143.267 609.407 144.8C609.407 146.6 610.141 148.067 611.607 149.2C613.074 150.267 615.007 151.133 617.407 151.8C619.807 152.467 622.441 153.133 625.307 153.8C628.241 154.467 631.141 155.233 634.007 156.1C636.941 156.967 639.607 158.133 642.007 159.6C644.407 161.067 646.341 163 647.807 165.4C649.341 167.8 650.107 170.833 650.107 174.5C650.107 178.433 649.007 182.033 646.807 185.3C644.607 188.567 641.307 191.2 636.907 193.2C632.574 195.2 627.074 196.2 620.407 196.2ZM659.33 210.4L665.93 186.4L668.13 195.4C665.263 195.4 662.897 194.567 661.03 192.9C659.23 191.233 658.33 188.933 658.33 186C658.33 183.067 659.263 180.733 661.13 179C662.997 177.267 665.297 176.4 668.03 176.4C670.83 176.4 673.13 177.3 674.93 179.1C676.73 180.833 677.63 183.133 677.63 186C677.63 186.867 677.563 187.733 677.43 188.6C677.297 189.4 677.03 190.4 676.63 191.6C676.297 192.733 675.73 194.2 674.93 196L669.23 210.4H659.33ZM36.575 275.2H70.275V287.8H36.575V275.2ZM37.775 304H75.875V317H21.675V247H74.575V260H37.775V304ZM88.7648 317V247H102.165L143.465 297.4H136.965V247H152.965V317H139.665L98.2648 266.6H104.765V317H88.7648ZM184.427 275.2H218.127V287.8H184.427V275.2ZM185.627 304H223.727V317H169.527V247H222.427V260H185.627V304ZM236.616 317V247H266.916C273.183 247 278.583 248.033 283.116 250.1C287.65 252.1 291.15 255 293.616 258.8C296.083 262.6 297.316 267.133 297.316 272.4C297.316 277.6 296.083 282.1 293.616 285.9C291.15 289.633 287.65 292.5 283.116 294.5C278.583 296.5 273.183 297.5 266.916 297.5H245.616L252.816 290.4V317H236.616ZM281.116 317L263.616 291.6H280.916L298.616 317H281.116ZM252.816 292.2L245.616 284.6H266.016C271.016 284.6 274.75 283.533 277.216 281.4C279.683 279.2 280.916 276.2 280.916 272.4C280.916 268.533 279.683 265.533 277.216 263.4C274.75 261.267 271.016 260.2 266.016 260.2H245.616L252.816 252.5V292.2ZM343.952 318.2C338.418 318.2 333.318 317.333 328.652 315.6C324.052 313.8 320.018 311.267 316.552 308C313.152 304.733 310.485 300.9 308.552 296.5C306.685 292.1 305.752 287.267 305.752 282C305.752 276.733 306.685 271.9 308.552 267.5C310.485 263.1 313.185 259.267 316.652 256C320.118 252.733 324.185 250.233 328.852 248.5C333.518 246.7 338.652 245.8 344.252 245.8C350.452 245.8 356.018 246.833 360.952 248.9C365.952 250.967 370.152 253.967 373.552 257.9L363.152 267.5C360.618 264.833 357.852 262.867 354.852 261.6C351.852 260.267 348.585 259.6 345.052 259.6C341.652 259.6 338.552 260.133 335.752 261.2C332.952 262.267 330.518 263.8 328.452 265.8C326.452 267.8 324.885 270.167 323.752 272.9C322.685 275.633 322.152 278.667 322.152 282C322.152 285.267 322.685 288.267 323.752 291C324.885 293.733 326.452 296.133 328.452 298.2C330.518 300.2 332.918 301.733 335.652 302.8C338.452 303.867 341.518 304.4 344.852 304.4C348.052 304.4 351.152 303.9 354.152 302.9C357.218 301.833 360.185 300.067 363.052 297.6L372.252 309.3C368.452 312.167 364.018 314.367 358.952 315.9C353.952 317.433 348.952 318.2 343.952 318.2ZM357.452 307.2V280.9H372.252V309.3L357.452 307.2ZM387.3 317V247H403.5V317H387.3ZM415.613 317V306.5L458.913 254.3L460.913 260.2H416.413V247H475.313V257.5L432.113 309.7L430.113 303.8H476.813V317H415.613ZM487.202 317V247H503.402V317H487.202ZM520.015 317V247H533.415L574.715 297.4H568.215V247H584.215V317H570.915L529.515 266.6H536.015V317H520.015ZM634.577 318.2C629.043 318.2 623.943 317.333 619.277 315.6C614.677 313.8 610.643 311.267 607.177 308C603.777 304.733 601.11 300.9 599.177 296.5C597.31 292.1 596.377 287.267 596.377 282C596.377 276.733 597.31 271.9 599.177 267.5C601.11 263.1 603.81 259.267 607.277 256C610.743 252.733 614.81 250.233 619.477 248.5C624.143 246.7 629.277 245.8 634.877 245.8C641.077 245.8 646.643 246.833 651.577 248.9C656.577 250.967 660.777 253.967 664.177 257.9L653.777 267.5C651.243 264.833 648.477 262.867 645.477 261.6C642.477 260.267 639.21 259.6 635.677 259.6C632.277 259.6 629.177 260.133 626.377 261.2C623.577 262.267 621.143 263.8 619.077 265.8C617.077 267.8 615.51 270.167 614.377 272.9C613.31 275.633 612.777 278.667 612.777 282C612.777 285.267 613.31 288.267 614.377 291C615.51 293.733 617.077 296.133 619.077 298.2C621.143 300.2 623.543 301.733 626.277 302.8C629.077 303.867 632.143 304.4 635.477 304.4C638.677 304.4 641.777 303.9 644.777 302.9C647.843 301.833 650.81 300.067 653.677 297.6L662.877 309.3C659.077 312.167 654.643 314.367 649.577 315.9C644.577 317.433 639.577 318.2 634.577 318.2ZM648.077 307.2V280.9H662.877V309.3L648.077 307.2ZM122.124 400.5H155.724V413.5H122.124V400.5ZM123.324 439H107.124V369H160.024V382H123.324V439ZM202.091 440.2C192.158 440.2 184.391 437.433 178.791 431.9C173.191 426.367 170.391 418.467 170.391 408.2V369H186.591V407.6C186.591 414.267 187.958 419.067 190.691 422C193.425 424.933 197.258 426.4 202.191 426.4C207.125 426.4 210.958 424.933 213.691 422C216.425 419.067 217.791 414.267 217.791 407.6V369H233.791V408.2C233.791 418.467 230.991 426.367 225.391 431.9C219.791 437.433 212.025 440.2 202.091 440.2ZM263.128 439V382.2H240.728V369H301.728V382.2H279.328V439H263.128ZM340.373 440.2C330.439 440.2 322.673 437.433 317.073 431.9C311.473 426.367 308.673 418.467 308.673 408.2V369H324.873V407.6C324.873 414.267 326.239 419.067 328.973 422C331.706 424.933 335.539 426.4 340.473 426.4C345.406 426.4 349.239 424.933 351.973 422C354.706 419.067 356.073 414.267 356.073 407.6V369H372.073V408.2C372.073 418.467 369.273 426.367 363.673 431.9C358.073 437.433 350.306 440.2 340.373 440.2ZM388.081 439V369H418.381C424.648 369 430.048 370.033 434.581 372.1C439.115 374.1 442.615 377 445.081 380.8C447.548 384.6 448.781 389.133 448.781 394.4C448.781 399.6 447.548 404.1 445.081 407.9C442.615 411.633 439.115 414.5 434.581 416.5C430.048 418.5 424.648 419.5 418.381 419.5H397.081L404.281 412.4V439H388.081ZM432.581 439L415.081 413.6H432.381L450.081 439H432.581ZM404.281 414.2L397.081 406.6H417.481C422.481 406.6 426.215 405.533 428.681 403.4C431.148 401.2 432.381 398.2 432.381 394.4C432.381 390.533 431.148 387.533 428.681 385.4C426.215 383.267 422.481 382.2 417.481 382.2H397.081L404.281 374.5V414.2ZM476.516 397.2H510.216V409.8H476.516V397.2ZM477.716 426H515.816V439H461.616V369H514.516V382H477.716V426ZM551.706 440.2C546.106 440.2 540.74 439.467 535.606 438C530.473 436.467 526.34 434.5 523.206 432.1L528.706 419.9C531.706 422.033 535.24 423.8 539.306 425.2C543.44 426.533 547.606 427.2 551.806 427.2C555.006 427.2 557.573 426.9 559.506 426.3C561.506 425.633 562.973 424.733 563.906 423.6C564.84 422.467 565.306 421.167 565.306 419.7C565.306 417.833 564.573 416.367 563.106 415.3C561.64 414.167 559.706 413.267 557.306 412.6C554.906 411.867 552.24 411.2 549.306 410.6C546.44 409.933 543.54 409.133 540.606 408.2C537.74 407.267 535.106 406.067 532.706 404.6C530.306 403.133 528.34 401.2 526.806 398.8C525.34 396.4 524.606 393.333 524.606 389.6C524.606 385.6 525.673 381.967 527.806 378.7C530.006 375.367 533.273 372.733 537.606 370.8C542.006 368.8 547.506 367.8 554.106 367.8C558.506 367.8 562.84 368.333 567.106 369.4C571.373 370.4 575.14 371.933 578.406 374L573.406 386.3C570.14 384.433 566.873 383.067 563.606 382.2C560.34 381.267 557.14 380.8 554.006 380.8C550.873 380.8 548.306 381.167 546.306 381.9C544.306 382.633 542.873 383.6 542.006 384.8C541.14 385.933 540.706 387.267 540.706 388.8C540.706 390.6 541.44 392.067 542.906 393.2C544.373 394.267 546.306 395.133 548.706 395.8C551.106 396.467 553.74 397.133 556.606 397.8C559.54 398.467 562.44 399.233 565.306 400.1C568.24 400.967 570.906 402.133 573.306 403.6C575.706 405.067 577.64 407 579.106 409.4C580.64 411.8 581.406 414.833 581.406 418.5C581.406 422.433 580.306 426.033 578.106 429.3C575.906 432.567 572.606 435.2 568.206 437.2C563.873 439.2 558.373 440.2 551.706 440.2Z"/>
</mask>
<path d="M9.61445 73H8.11445V74.5H9.61445V73ZM9.61445 3V1.5H8.11445V3H9.61445ZM56.1145 6.1L55.4922 7.46486L55.5006 7.46867L55.509 7.47237L56.1145 6.1ZM66.6145 14.8L65.3563 15.6167L65.3563 15.6167L66.6145 14.8ZM66.6145 41.9L67.866 42.7269L67.8726 42.7167L66.6145 41.9ZM56.1145 50.5L56.7199 51.8724L56.7199 51.8724L56.1145 50.5ZM18.6145 53.5L17.5612 52.4319L14.957 55H18.6145V53.5ZM25.8145 46.4H27.3145V42.8142L24.7612 45.3319L25.8145 46.4ZM25.8145 73V74.5H27.3145V73H25.8145ZM54.1145 73L52.8792 73.851L53.3264 74.5H54.1145V73ZM36.6145 47.6V46.1H33.7594L35.3792 48.451L36.6145 47.6ZM53.9145 47.6L55.1451 46.7424L54.6975 46.1H53.9145V47.6ZM71.6145 73V74.5H74.488L72.8451 72.1424L71.6145 73ZM25.8145 48.2L24.7255 49.2316L27.3145 51.9644V48.2H25.8145ZM18.6145 40.6V39.1H15.1272L17.5255 41.6316L18.6145 40.6ZM50.2145 37.4L51.1957 38.5345L51.2043 38.5271L51.2129 38.5194L50.2145 37.4ZM18.6145 16.2L17.5188 15.1755L15.1583 17.7H18.6145V16.2ZM25.8145 8.5H27.3145V4.69962L24.7188 7.47551L25.8145 8.5ZM11.1145 73V3H8.11445V73H11.1145ZM9.61445 4.5H39.9145V1.5H9.61445V4.5ZM39.9145 4.5C46.0201 4.5 51.1978 5.50709 55.4922 7.46486L56.7367 4.73514C51.9645 2.55957 46.3422 1.5 39.9145 1.5V4.5ZM55.509 7.47237C59.8014 9.36607 63.0633 12.0843 65.3563 15.6167L67.8726 13.9833C65.2323 9.91568 61.4942 6.83392 56.7199 4.72762L55.509 7.47237ZM65.3563 15.6167C67.6408 19.1361 68.8145 23.3751 68.8145 28.4H71.8145C71.8145 22.8916 70.5214 18.0639 67.8726 13.9833L65.3563 15.6167ZM68.8145 28.4C68.8145 33.3541 67.6428 37.5609 65.3563 41.0833L67.8726 42.7167C70.5195 38.6391 71.8145 33.8459 71.8145 28.4H68.8145ZM65.363 41.0731C63.0716 44.5411 59.8084 47.2308 55.509 49.1276L56.7199 51.8724C61.4872 49.7692 65.224 46.7256 67.866 42.7269L65.363 41.0731ZM55.509 49.1276C51.2098 51.0243 46.0259 52 39.9145 52V55C46.3363 55 51.9525 53.9757 56.7199 51.8724L55.509 49.1276ZM39.9145 52H18.6145V55H39.9145V52ZM19.6677 54.5681L26.8677 47.4681L24.7612 45.3319L17.5612 52.4319L19.6677 54.5681ZM24.3145 46.4V73H27.3145V46.4H24.3145ZM25.8145 71.5H9.61445V74.5H25.8145V71.5ZM55.3497 72.149L37.8497 46.749L35.3792 48.451L52.8792 73.851L55.3497 72.149ZM36.6145 49.1H53.9145V46.1H36.6145V49.1ZM52.6838 48.4576L70.3838 73.8576L72.8451 72.1424L55.1451 46.7424L52.6838 48.4576ZM71.6145 71.5H54.1145V74.5H71.6145V71.5ZM26.9034 47.1684L19.7034 39.5684L17.5255 41.6316L24.7255 49.2316L26.9034 47.1684ZM18.6145 42.1H39.0145V39.1H18.6145V42.1ZM39.0145 42.1C44.1905 42.1 48.3436 41.0012 51.1957 38.5345L49.2332 36.2655C47.152 38.0654 43.8384 39.1 39.0145 39.1V42.1ZM51.2129 38.5194C54.0479 35.9909 55.4145 32.5569 55.4145 28.4H52.4145C52.4145 31.8431 51.3144 34.4091 49.216 36.2806L51.2129 38.5194ZM55.4145 28.4C55.4145 24.1867 54.0536 20.7372 51.1957 18.2655L49.2332 20.5345C51.3086 22.3295 52.4145 24.8799 52.4145 28.4H55.4145ZM51.1957 18.2655C48.3436 15.7988 44.1905 14.7 39.0145 14.7V17.7C43.8384 17.7 47.152 18.7346 49.2332 20.5345L51.1957 18.2655ZM39.0145 14.7H18.6145V17.7H39.0145V14.7ZM19.7101 17.2245L26.9101 9.52449L24.7188 7.47551L17.5188 15.1755L19.7101 17.2245ZM24.3145 8.5V48.2H27.3145V8.5H24.3145ZM98.0496 31.2V29.7H96.5496V31.2H98.0496ZM131.75 31.2H133.25V29.7H131.75V31.2ZM131.75 43.8V45.3H133.25V43.8H131.75ZM98.0496 43.8H96.5496V45.3H98.0496V43.8ZM99.2496 60H97.7496V61.5H99.2496V60ZM137.35 60H138.85V58.5H137.35V60ZM137.35 73V74.5H138.85V73H137.35ZM83.1496 73H81.6496V74.5H83.1496V73ZM83.1496 3V1.5H81.6496V3H83.1496ZM136.05 3H137.55V1.5H136.05V3ZM136.05 16V17.5H137.55V16H136.05ZM99.2496 16V14.5H97.7496V16H99.2496ZM98.0496 32.7H131.75V29.7H98.0496V32.7ZM130.25 31.2V43.8H133.25V31.2H130.25ZM131.75 42.3H98.0496V45.3H131.75V42.3ZM99.5496 43.8V31.2H96.5496V43.8H99.5496ZM99.2496 61.5H137.35V58.5H99.2496V61.5ZM135.85 60V73H138.85V60H135.85ZM137.35 71.5H83.1496V74.5H137.35V71.5ZM84.6496 73V3H81.6496V73H84.6496ZM83.1496 4.5H136.05V1.5H83.1496V4.5ZM134.55 3V16H137.55V3H134.55ZM136.05 14.5H99.2496V17.5H136.05V14.5ZM97.7496 16V60H100.75V16H97.7496ZM165.239 34.5V33H163.739V34.5H165.239ZM198.839 34.5H200.339V33H198.839V34.5ZM198.839 47.5V49H200.339V47.5H198.839ZM165.239 47.5H163.739V49H165.239V47.5ZM166.439 73V74.5H167.939V73H166.439ZM150.239 73H148.739V74.5H150.239V73ZM150.239 3V1.5H148.739V3H150.239ZM203.139 3H204.639V1.5H203.139V3ZM203.139 16V17.5H204.639V16H203.139ZM166.439 16V14.5H164.939V16H166.439ZM165.239 36H198.839V33H165.239V36ZM197.339 34.5V47.5H200.339V34.5H197.339ZM198.839 46H165.239V49H198.839V46ZM166.739 47.5V34.5H163.739V47.5H166.739ZM166.439 71.5H150.239V74.5H166.439V71.5ZM151.739 73V3H148.739V73H151.739ZM150.239 4.5H203.139V1.5H150.239V4.5ZM201.639 3V16H204.639V3H201.639ZM203.139 14.5H166.439V17.5H203.139V14.5ZM164.939 16V73H167.939V16H164.939ZM214.107 73H212.607V74.5H214.107V73ZM214.107 3V1.5H212.607V3H214.107ZM260.607 6.1L259.984 7.46486L259.993 7.46867L260.001 7.47237L260.607 6.1ZM271.107 14.8L269.848 15.6167L269.848 15.6167L271.107 14.8ZM271.107 41.9L272.358 42.7269L272.365 42.7167L271.107 41.9ZM260.607 50.5L261.212 51.8724L261.212 51.8724L260.607 50.5ZM223.107 53.5L222.053 52.4319L219.449 55H223.107V53.5ZM230.307 46.4H231.807V42.8142L229.253 45.3319L230.307 46.4ZM230.307 73V74.5H231.807V73H230.307ZM258.607 73L257.371 73.851L257.819 74.5H258.607V73ZM241.107 47.6V46.1H238.252L239.871 48.451L241.107 47.6ZM258.407 47.6L259.637 46.7424L259.19 46.1H258.407V47.6ZM276.107 73V74.5H278.98L277.337 72.1424L276.107 73ZM230.307 48.2L229.218 49.2316L231.807 51.9644V48.2H230.307ZM223.107 40.6V39.1H219.619L222.018 41.6316L223.107 40.6ZM254.707 37.4L255.688 38.5345L255.697 38.5271L255.705 38.5194L254.707 37.4ZM223.107 16.2L222.011 15.1755L219.65 17.7H223.107V16.2ZM230.307 8.5H231.807V4.69962L229.211 7.47551L230.307 8.5ZM215.607 73V3H212.607V73H215.607ZM214.107 4.5H244.407V1.5H214.107V4.5ZM244.407 4.5C250.512 4.5 255.69 5.50709 259.984 7.46486L261.229 4.73514C256.457 2.55957 250.834 1.5 244.407 1.5V4.5ZM260.001 7.47237C264.294 9.36607 267.556 12.0843 269.848 15.6167L272.365 13.9833C269.724 9.91568 265.986 6.83392 261.212 4.72762L260.001 7.47237ZM269.848 15.6167C272.133 19.1361 273.307 23.3751 273.307 28.4H276.307C276.307 22.8916 275.014 18.0639 272.365 13.9833L269.848 15.6167ZM273.307 28.4C273.307 33.3541 272.135 37.5609 269.848 41.0833L272.365 42.7167C275.012 38.6391 276.307 33.8459 276.307 28.4H273.307ZM269.855 41.0731C267.564 44.5411 264.301 47.2308 260.001 49.1276L261.212 51.8724C265.979 49.7692 269.716 46.7256 272.358 42.7269L269.855 41.0731ZM260.001 49.1276C255.702 51.0243 250.518 52 244.407 52V55C250.829 55 256.445 53.9757 261.212 51.8724L260.001 49.1276ZM244.407 52H223.107V55H244.407V52ZM224.16 54.5681L231.36 47.4681L229.253 45.3319L222.053 52.4319L224.16 54.5681ZM228.807 46.4V73H231.807V46.4H228.807ZM230.307 71.5H214.107V74.5H230.307V71.5ZM259.842 72.149L242.342 46.749L239.871 48.451L257.371 73.851L259.842 72.149ZM241.107 49.1H258.407V46.1H241.107V49.1ZM257.176 48.4576L274.876 73.8576L277.337 72.1424L259.637 46.7424L257.176 48.4576ZM276.107 71.5H258.607V74.5H276.107V71.5ZM231.396 47.1684L224.196 39.5684L222.018 41.6316L229.218 49.2316L231.396 47.1684ZM223.107 42.1H243.507V39.1H223.107V42.1ZM243.507 42.1C248.683 42.1 252.836 41.0012 255.688 38.5345L253.725 36.2655C251.644 38.0654 248.331 39.1 243.507 39.1V42.1ZM255.705 38.5194C258.54 35.9909 259.907 32.5569 259.907 28.4H256.907C256.907 31.8431 255.807 34.4091 253.708 36.2806L255.705 38.5194ZM259.907 28.4C259.907 24.1867 258.546 20.7372 255.688 18.2655L253.725 20.5345C255.801 22.3295 256.907 24.8799 256.907 28.4H259.907ZM255.688 18.2655C252.836 15.7988 248.683 14.7 243.507 14.7V17.7C248.331 17.7 251.644 18.7346 253.725 20.5345L255.688 18.2655ZM243.507 14.7H223.107V17.7H243.507V14.7ZM224.202 17.2245L231.402 9.52449L229.211 7.47551L222.011 15.1755L224.202 17.2245ZM228.807 8.5V48.2H231.807V8.5H228.807ZM302.542 31.2V29.7H301.042V31.2H302.542ZM336.242 31.2H337.742V29.7H336.242V31.2ZM336.242 43.8V45.3H337.742V43.8H336.242ZM302.542 43.8H301.042V45.3H302.542V43.8ZM303.742 60H302.242V61.5H303.742V60ZM341.842 60H343.342V58.5H341.842V60ZM341.842 73V74.5H343.342V73H341.842ZM287.642 73H286.142V74.5H287.642V73ZM287.642 3V1.5H286.142V3H287.642ZM340.542 3H342.042V1.5H340.542V3ZM340.542 16V17.5H342.042V16H340.542ZM303.742 16V14.5H302.242V16H303.742ZM302.542 32.7H336.242V29.7H302.542V32.7ZM334.742 31.2V43.8H337.742V31.2H334.742ZM336.242 42.3H302.542V45.3H336.242V42.3ZM304.042 43.8V31.2H301.042V43.8H304.042ZM303.742 61.5H341.842V58.5H303.742V61.5ZM340.342 60V73H343.342V60H340.342ZM341.842 71.5H287.642V74.5H341.842V71.5ZM289.142 73V3H286.142V73H289.142ZM287.642 4.5H340.542V1.5H287.642V4.5ZM339.042 3V16H342.042V3H339.042ZM340.542 14.5H303.742V17.5H340.542V14.5ZM302.242 16V60H305.242V16H302.242ZM361.632 72L361.202 73.4373L361.211 73.4398L361.22 73.4423L361.632 72ZM349.232 66.1L347.864 65.4835L347.375 66.5677L348.32 67.2908L349.232 66.1ZM354.732 53.9L355.601 52.6776L354.114 51.6202L353.364 53.2835L354.732 53.9ZM365.332 59.2L364.843 60.6183L364.857 60.6231L364.871 60.6276L365.332 59.2ZM385.532 60.3L385.976 61.7326L385.991 61.728L386.006 61.723L385.532 60.3ZM389.932 57.6L388.774 56.6464L388.774 56.6464L389.932 57.6ZM389.132 49.3L388.214 50.4869L388.232 50.5003L388.249 50.5131L389.132 49.3ZM383.332 46.6L382.893 48.0345L382.912 48.0401L382.93 48.0453L383.332 46.6ZM375.332 44.6L374.992 46.061L375.011 46.0656L375.031 46.0696L375.332 44.6ZM366.632 42.2L366.167 43.6263L366.177 43.6294L366.632 42.2ZM358.732 38.6L357.949 39.8799L357.949 39.8799L358.732 38.6ZM352.832 32.8L351.552 33.5822L351.56 33.595L351.568 33.6076L352.832 32.8ZM353.832 12.7L352.58 11.8737L352.576 11.8798L353.832 12.7ZM363.632 4.8L364.243 6.16988L364.252 6.16555L363.632 4.8ZM393.132 3.4L392.768 4.85521L392.779 4.85789L392.789 4.86042L393.132 3.4ZM404.432 8L405.821 8.56487L406.294 7.40295L405.234 6.73238L404.432 8ZM399.432 20.3L398.687 21.6024L400.176 22.4528L400.821 20.8649L399.432 20.3ZM389.632 16.2L389.22 17.6423L389.233 17.6462L389.247 17.6498L389.632 16.2ZM372.332 15.9L371.815 14.4917L371.815 14.4917L372.332 15.9ZM368.032 18.8L369.223 19.7112L369.236 19.6949L369.248 19.6782L368.032 18.8ZM368.932 27.2L368.014 28.3869L368.032 28.4003L368.049 28.4131L368.932 27.2ZM374.732 29.8L374.33 31.2453L374.33 31.2453L374.732 29.8ZM382.632 31.8L382.292 33.261L382.299 33.2627L382.632 31.8ZM391.332 34.1L390.898 35.5358L390.907 35.5385L391.332 34.1ZM399.332 37.6L400.114 36.3201L400.114 36.3201L399.332 37.6ZM405.132 43.4L403.852 44.1822L403.86 44.195L403.868 44.2076L405.132 43.4ZM404.132 63.3L405.376 64.1379L405.376 64.1379L404.132 63.3ZM394.232 71.2L393.611 69.8344L393.603 69.8381L394.232 71.2ZM377.732 72.7C372.264 72.7 367.037 71.9843 362.044 70.5577L361.22 73.4423C366.493 74.9491 371.999 75.7 377.732 75.7V72.7ZM362.061 70.5627C357.044 69.0641 353.091 67.1666 350.144 64.9092L348.32 67.2908C351.639 69.8334 355.953 71.8692 361.202 73.4373L362.061 70.5627ZM350.599 66.7165L356.099 54.5165L353.364 53.2835L347.864 65.4835L350.599 66.7165ZM353.862 55.1224C356.997 57.3516 360.663 59.1792 364.843 60.6183L365.82 57.7817C361.867 56.4208 358.466 54.7151 355.601 52.6776L353.862 55.1224ZM364.871 60.6276C369.148 62.0072 373.47 62.7 377.832 62.7V59.7C373.793 59.7 369.782 59.0594 365.792 57.7724L364.871 60.6276ZM377.832 62.7C381.106 62.7 383.84 62.3954 385.976 61.7326L385.087 58.8674C383.356 59.4046 380.958 59.7 377.832 59.7V62.7ZM386.006 61.723C388.163 61.0041 389.915 59.9797 391.09 58.5536L388.774 56.6464C388.082 57.487 386.9 58.2626 385.057 58.877L386.006 61.723ZM391.09 58.5536C392.244 57.152 392.832 55.515 392.832 53.7H389.832C389.832 54.8184 389.486 55.7814 388.774 56.6464L391.09 58.5536ZM392.832 53.7C392.832 51.37 391.882 49.4455 390.014 48.0869L388.249 50.5131C389.315 51.2879 389.832 52.2966 389.832 53.7H392.832ZM390.049 48.1131C388.386 46.8279 386.26 45.8565 383.733 45.1547L382.93 48.0453C385.204 48.6768 386.944 49.5054 388.214 50.4869L390.049 48.1131ZM383.77 45.1655C381.317 44.416 378.603 43.7382 375.632 43.1304L375.031 46.0696C377.926 46.6618 380.546 47.3174 382.893 48.0345L383.77 45.1655ZM375.671 43.139C372.845 42.4817 369.984 41.6924 367.086 40.7706L366.177 43.6294C369.146 44.5742 372.085 45.3849 374.992 46.061L375.671 43.139ZM367.096 40.7737C364.333 39.874 361.807 38.7215 359.514 37.3201L357.949 39.8799C360.456 41.4118 363.197 42.6593 366.167 43.6263L367.096 40.7737ZM359.514 37.3201C357.311 35.9738 355.508 34.2029 354.096 31.9924L351.568 33.6076C353.222 36.1971 355.353 38.2929 357.949 39.8799L359.514 37.3201ZM354.112 32.0178C352.829 29.9185 352.132 27.1453 352.132 23.6H349.132C349.132 27.5214 349.901 30.8815 351.552 33.5822L354.112 32.0178ZM352.132 23.6C352.132 19.8835 353.118 16.5365 355.088 13.5202L352.576 11.8798C350.279 15.3968 349.132 19.3165 349.132 23.6H352.132ZM355.084 13.5263C357.099 10.4732 360.121 8.00892 364.243 6.16984L363.02 3.43015C358.476 5.45773 354.965 8.26014 352.58 11.8737L355.084 13.5263ZM364.252 6.16555C368.4 4.28029 373.672 3.3 380.132 3.3V0.299999C373.391 0.299999 367.663 1.3197 363.011 3.43445L364.252 6.16555ZM380.132 3.3C384.409 3.3 388.62 3.8183 392.768 4.85521L393.495 1.94478C389.11 0.848358 384.654 0.299999 380.132 0.299999V3.3ZM392.789 4.86042C396.915 5.82728 400.522 7.30149 403.63 9.26761L405.234 6.73238C401.808 4.56516 397.882 2.97271 393.474 1.93957L392.789 4.86042ZM403.042 7.43513L398.042 19.7351L400.821 20.8649L405.821 8.56487L403.042 7.43513ZM400.176 18.9976C396.809 17.0736 393.422 15.6537 390.016 14.7502L389.247 17.6498C392.375 18.4796 395.521 19.793 398.687 21.6024L400.176 18.9976ZM390.044 14.7577C386.654 13.7893 383.316 13.3 380.032 13.3V16.3C383.014 16.3 386.076 16.744 389.22 17.6423L390.044 14.7577ZM380.032 13.3C376.797 13.3 374.039 13.6763 371.815 14.4917L372.848 17.3083C374.624 16.657 376.999 16.3 380.032 16.3V13.3ZM371.815 14.4917C369.652 15.2848 367.919 16.3944 366.816 17.9218L369.248 19.6782C369.878 18.8056 371.011 17.9818 372.848 17.3083L371.815 14.4917ZM366.84 17.8888C365.758 19.3039 365.232 20.9635 365.232 22.8H368.232C368.232 21.5698 368.572 20.5628 369.223 19.7112L366.84 17.8888ZM365.232 22.8C365.232 25.0805 366.193 26.9794 368.014 28.3869L369.849 26.0131C368.737 25.1539 368.232 24.1195 368.232 22.8H365.232ZM368.049 28.4131C369.704 29.6166 371.817 30.5473 374.33 31.2453L375.133 28.3547C372.846 27.7194 371.092 26.9167 369.814 25.9869L368.049 28.4131ZM374.33 31.2453C376.754 31.9185 379.408 32.5904 382.292 33.261L382.971 30.339C380.122 29.6763 377.509 29.0148 375.133 28.3547L374.33 31.2453ZM382.299 33.2627C385.199 33.9216 388.065 34.6793 390.898 35.5358L391.766 32.6642C388.865 31.7873 385.931 31.0117 382.964 30.3373L382.299 33.2627ZM390.907 35.5385C393.725 36.3713 396.27 37.4871 398.549 38.8799L400.114 36.3201C397.593 34.7795 394.805 33.562 391.757 32.6615L390.907 35.5385ZM398.549 38.8799C400.746 40.2225 402.509 41.9852 403.852 44.1822L406.412 42.6178C404.821 40.0148 402.717 37.9108 400.114 36.3201L398.549 38.8799ZM403.868 44.2076C405.208 46.306 405.932 49.0383 405.932 52.5H408.932C408.932 48.6284 408.122 45.294 406.396 42.5924L403.868 44.2076ZM405.932 52.5C405.932 56.1344 404.921 59.4427 402.887 62.4621L405.376 64.1379C407.742 60.624 408.932 56.7323 408.932 52.5H405.932ZM402.887 62.4621C400.874 65.4514 397.816 67.9232 393.611 69.8345L394.852 72.5655C399.448 70.4768 402.989 67.6819 405.376 64.1379L402.887 62.4621ZM393.603 69.8381C389.529 71.7185 384.262 72.7 377.732 72.7V75.7C384.535 75.7 390.268 74.6815 394.86 72.5619L393.603 69.8381ZM466.501 3V1.5H465.001V3H466.501ZM482.701 3H484.201V1.5H482.701V3ZM482.701 73V74.5H484.201V73H482.701ZM466.501 73H465.001V74.5H466.501V73ZM434.701 73V74.5H436.201V73H434.701ZM418.501 73H417.001V74.5H418.501V73ZM418.501 3V1.5H417.001V3H418.501ZM434.701 3H436.201V1.5H434.701V3ZM467.701 44.3V45.8H469.201V44.3H467.701ZM433.501 44.3H432.001V45.8H433.501V44.3ZM433.501 30.6V29.1H432.001V30.6H433.501ZM467.701 30.6H469.201V29.1H467.701V30.6ZM466.501 4.5H482.701V1.5H466.501V4.5ZM481.201 3V73H484.201V3H481.201ZM482.701 71.5H466.501V74.5H482.701V71.5ZM468.001 73V3H465.001V73H468.001ZM434.701 71.5H418.501V74.5H434.701V71.5ZM420.001 73V3H417.001V73H420.001ZM418.501 4.5H434.701V1.5H418.501V4.5ZM433.201 3V73H436.201V3H433.201ZM467.701 42.8H433.501V45.8H467.701V42.8ZM435.001 44.3V30.6H432.001V44.3H435.001ZM433.501 32.1H467.701V29.1H433.501V32.1ZM466.201 30.6V44.3H469.201V30.6H466.201ZM499.263 73H497.763V74.5H499.263V73ZM499.263 3V1.5H497.763V3H499.263ZM515.463 3H516.963V1.5H515.463V3ZM515.463 73V74.5H516.963V73H515.463ZM500.763 73V3H497.763V73H500.763ZM499.263 4.5H515.463V1.5H499.263V4.5ZM513.963 3V73H516.963V3H513.963ZM515.463 71.5H499.263V74.5H515.463V71.5ZM532.075 73H530.575V74.5H532.075V73ZM532.075 3V1.5H530.575V3H532.075ZM545.475 3L546.636 2.04926L546.186 1.5H545.475V3ZM586.775 53.4V54.9H589.944L587.936 52.4493L586.775 53.4ZM580.275 53.4H578.775V54.9H580.275V53.4ZM580.275 3V1.5H578.775V3H580.275ZM596.275 3H597.775V1.5H596.275V3ZM596.275 73V74.5H597.775V73H596.275ZM582.975 73L581.816 73.9521L582.266 74.5H582.975V73ZM541.575 22.6V21.1H538.402L540.416 23.5521L541.575 22.6ZM548.075 22.6H549.575V21.1H548.075V22.6ZM548.075 73V74.5H549.575V73H548.075ZM533.575 73V3H530.575V73H533.575ZM532.075 4.5H545.475V1.5H532.075V4.5ZM544.315 3.95073L585.615 54.3507L587.936 52.4493L546.636 2.04926L544.315 3.95073ZM586.775 51.9H580.275V54.9H586.775V51.9ZM581.775 53.4V3H578.775V53.4H581.775ZM580.275 4.5H596.275V1.5H580.275V4.5ZM594.775 3V73H597.775V3H594.775ZM596.275 71.5H582.975V74.5H596.275V71.5ZM584.134 72.0479L542.734 21.6479L540.416 23.5521L581.816 73.9521L584.134 72.0479ZM541.575 24.1H548.075V21.1H541.575V24.1ZM546.575 22.6V73H549.575V22.6H546.575ZM548.075 71.5H532.075V74.5H548.075V71.5ZM631.337 71.6L630.791 72.9969L630.803 73.0016L630.815 73.0061L631.337 71.6ZM619.237 64L618.198 65.0817L618.203 65.0867L618.208 65.0917L619.237 64ZM611.237 52.5L609.856 53.0858L609.86 53.0946L609.864 53.1034L611.237 52.5ZM611.237 23.5L609.864 22.8966L609.86 22.9054L609.856 22.9142L611.237 23.5ZM619.337 12L620.366 13.0917L620.366 13.0917L619.337 12ZM631.537 4.49999L632.059 5.90613L632.068 5.90287L632.077 5.8995L631.537 4.49999ZM663.637 4.89999L663.058 6.28352L663.064 6.28624L663.637 4.89999ZM676.237 13.9L677.255 15.0022L678.321 14.0174L677.372 12.9191L676.237 13.9ZM665.837 23.5L664.75 24.5331L665.768 25.6051L666.855 24.6022L665.837 23.5ZM657.537 17.6L656.928 18.9707L656.941 18.9764L656.954 18.9819L657.537 17.6ZM631.137 21.8L630.094 20.7221L630.085 20.7306L630.076 20.7393L631.137 21.8ZM626.437 28.9L625.051 28.3255L625.045 28.34L625.04 28.3547L626.437 28.9ZM626.437 47L625.04 47.5453L625.045 47.56L625.051 47.5745L626.437 47ZM631.137 54.2L630.059 55.2431L630.076 55.2608L630.094 55.2779L631.137 54.2ZM638.337 58.8L637.792 60.1974L637.803 60.2017L638.337 58.8ZM656.837 58.9L657.311 60.323L657.321 60.3199L657.33 60.3167L656.837 58.9ZM665.737 53.6L666.916 52.6728L665.947 51.4404L664.759 52.463L665.737 53.6ZM674.937 65.3L675.84 66.4975L677.062 65.5758L676.116 64.3728L674.937 65.3ZM661.637 71.9L661.203 70.4643L661.197 70.4659L661.637 71.9ZM660.137 63.2H658.637V64.5022L659.926 64.6851L660.137 63.2ZM660.137 36.9V35.4H658.637V36.9H660.137ZM674.937 36.9H676.437V35.4H674.937V36.9ZM674.937 65.3L674.726 66.7851L676.437 67.0279V65.3H674.937ZM646.637 72.7C641.262 72.7 636.341 71.8586 631.859 70.1939L630.815 73.0061C635.666 74.8081 640.945 75.7 646.637 75.7V72.7ZM631.884 70.2031C627.456 68.4704 623.588 66.0385 620.266 62.9083L618.208 65.0917C621.82 68.4949 626.019 71.1296 630.791 72.9969L631.884 70.2031ZM620.276 62.9183C617.021 59.7904 614.466 56.1204 612.61 51.8966L609.864 53.1034C611.875 57.6796 614.654 61.6763 618.198 65.0817L620.276 62.9183ZM612.618 51.9142C610.838 47.7176 609.937 43.086 609.937 38H606.937C606.937 43.4473 607.903 48.4824 609.856 53.0858L612.618 51.9142ZM609.937 38C609.937 32.914 610.838 28.2824 612.618 24.0858L609.856 22.9142C607.903 27.5176 606.937 32.5526 606.937 38H609.937ZM612.61 24.1034C614.464 19.8859 617.047 16.2191 620.366 13.0917L618.308 10.9083C614.694 14.3142 611.877 18.3141 609.864 22.8966L612.61 24.1034ZM620.366 13.0917C623.68 9.96885 627.572 7.5728 632.059 5.90613L631.015 3.09386C626.169 4.89386 621.928 7.49781 618.308 10.9083L620.366 13.0917ZM632.077 5.8995C636.552 4.1734 641.5 3.3 646.937 3.3V0.299999C641.174 0.299999 635.856 1.22659 630.997 3.10049L632.077 5.8995ZM646.937 3.3C652.969 3.3 658.335 4.30498 663.058 6.2835L664.217 3.51649C659.073 1.36168 653.305 0.299999 646.937 0.299999V3.3ZM663.064 6.28624C667.857 8.26724 671.862 11.132 675.102 14.8809L677.372 12.9191C673.813 8.80137 669.417 5.66608 664.21 3.51374L663.064 6.28624ZM675.22 12.7978L664.82 22.3978L666.855 24.6022L677.255 15.0022L675.22 12.7978ZM666.925 22.4669C664.267 19.6699 661.334 17.5749 658.121 16.2181L656.954 18.9819C659.74 20.1584 662.34 21.9968 664.75 24.5331L666.925 22.4669ZM658.146 16.2293C654.94 14.8044 651.464 14.1 647.737 14.1V17.1C651.077 17.1 654.134 17.729 656.928 18.9707L658.146 16.2293ZM647.737 14.1C644.179 14.1 640.895 14.6585 637.903 15.7983L638.971 18.6017C641.579 17.6082 644.495 17.1 647.737 17.1V14.1ZM637.903 15.7983C634.921 16.9342 632.313 18.5749 630.094 20.7221L632.18 22.8779C634.095 21.0251 636.353 19.5991 638.971 18.6017L637.903 15.7983ZM630.076 20.7393C627.931 22.8849 626.257 25.4189 625.051 28.3255L627.823 29.4745C628.884 26.9144 630.343 24.7151 632.198 22.8607L630.076 20.7393ZM625.04 28.3547C623.897 31.2838 623.337 34.5053 623.337 38H626.337C626.337 34.8281 626.844 31.9828 627.834 29.4453L625.04 28.3547ZM623.337 38C623.337 41.4321 623.898 44.6195 625.04 47.5453L627.834 46.4547C626.843 43.9138 626.337 41.1012 626.337 38H623.337ZM625.051 47.5745C626.255 50.4769 627.924 53.0371 630.059 55.2431L632.215 53.1569C630.35 51.2296 628.886 48.9898 627.823 46.4255L625.051 47.5745ZM630.094 55.2779C632.307 57.4192 634.877 59.0598 637.792 60.1974L638.882 57.4026C636.331 56.4069 634.101 54.9808 632.18 53.1221L630.094 55.2779ZM637.803 60.2017C640.792 61.3403 644.042 61.9 647.537 61.9V58.9C644.366 58.9 641.482 58.3931 638.871 57.3983L637.803 60.2017ZM647.537 61.9C650.896 61.9 654.157 61.3746 657.311 60.323L656.363 57.477C653.518 58.4254 650.578 58.9 647.537 58.9V61.9ZM657.33 60.3167C660.601 59.1789 663.729 57.3067 666.715 54.737L664.759 52.463C662.012 54.8267 659.206 56.4878 656.344 57.4833L657.33 60.3167ZM664.558 54.5272L673.758 66.2272L676.116 64.3728L666.916 52.6728L664.558 54.5272ZM674.034 64.1025C670.39 66.8515 666.119 68.9764 661.203 70.4643L662.072 73.3357C667.289 71.7569 671.885 69.4818 675.84 66.4975L674.034 64.1025ZM661.197 70.4659C656.333 71.9576 651.481 72.7 646.637 72.7V75.7C651.793 75.7 656.941 74.9091 662.077 73.3341L661.197 70.4659ZM661.637 63.2V36.9H658.637V63.2H661.637ZM660.137 38.4H674.937V35.4H660.137V38.4ZM673.437 36.9V65.3H676.437V36.9H673.437ZM675.148 63.8149L660.348 61.7149L659.926 64.6851L674.726 66.7851L675.148 63.8149ZM24.798 195H23.298V196.5H24.798V195ZM24.798 138.2H26.298V136.7H24.798V138.2ZM2.39805 138.2H0.898047V139.7H2.39805V138.2ZM2.39805 125V123.5H0.898047V125H2.39805ZM63.398 125H64.898V123.5H63.398V125ZM63.398 138.2V139.7H64.898V138.2H63.398ZM40.998 138.2V136.7H39.498V138.2H40.998ZM40.998 195V196.5H42.498V195H40.998ZM26.298 195V138.2H23.298V195H26.298ZM24.798 136.7H2.39805V139.7H24.798V136.7ZM3.89805 138.2V125H0.898047V138.2H3.89805ZM2.39805 126.5H63.398V123.5H2.39805V126.5ZM61.898 125V138.2H64.898V125H61.898ZM63.398 136.7H40.998V139.7H63.398V136.7ZM39.498 138.2V195H42.498V138.2H39.498ZM40.998 193.5H24.798V196.5H40.998V193.5ZM72.1145 195H70.6145V196.5H72.1145V195ZM72.1145 125V123.5H70.6145V125H72.1145ZM118.614 128.1L117.992 129.465L118.001 129.469L118.009 129.472L118.614 128.1ZM129.114 136.8L127.856 137.617L127.856 137.617L129.114 136.8ZM129.114 163.9L130.366 164.727L130.373 164.717L129.114 163.9ZM118.614 172.5L119.22 173.872L119.22 173.872L118.614 172.5ZM81.1145 175.5L80.0612 174.432L77.457 177H81.1145V175.5ZM88.3145 168.4H89.8145V164.814L87.2612 167.332L88.3145 168.4ZM88.3145 195V196.5H89.8145V195H88.3145ZM116.614 195L115.379 195.851L115.826 196.5H116.614V195ZM99.1145 169.6V168.1H96.2594L97.8792 170.451L99.1145 169.6ZM116.414 169.6L117.645 168.742L117.197 168.1H116.414V169.6ZM134.114 195V196.5H136.988L135.345 194.142L134.114 195ZM88.3145 170.2L87.2255 171.232L89.8145 173.964V170.2H88.3145ZM81.1145 162.6V161.1H77.6272L80.0255 163.632L81.1145 162.6ZM112.714 159.4L113.696 160.535L113.704 160.527L113.713 160.519L112.714 159.4ZM81.1145 138.2L80.0188 137.176L77.6583 139.7H81.1145V138.2ZM88.3145 130.5H89.8145V126.7L87.2188 129.476L88.3145 130.5ZM73.6145 195V125H70.6145V195H73.6145ZM72.1145 126.5H102.414V123.5H72.1145V126.5ZM102.414 126.5C108.52 126.5 113.698 127.507 117.992 129.465L119.237 126.735C114.464 124.56 108.842 123.5 102.414 123.5V126.5ZM118.009 129.472C122.301 131.366 125.563 134.084 127.856 137.617L130.373 135.983C127.732 131.916 123.994 128.834 119.22 126.728L118.009 129.472ZM127.856 137.617C130.141 141.136 131.314 145.375 131.314 150.4H134.314C134.314 144.892 133.021 140.064 130.373 135.983L127.856 137.617ZM131.314 150.4C131.314 155.354 130.143 159.561 127.856 163.083L130.373 164.717C133.019 160.639 134.314 155.846 134.314 150.4H131.314ZM127.863 163.073C125.572 166.541 122.308 169.231 118.009 171.128L119.22 173.872C123.987 171.769 127.724 168.726 130.366 164.727L127.863 163.073ZM118.009 171.128C113.71 173.024 108.526 174 102.414 174V177C108.836 177 114.452 175.976 119.22 173.872L118.009 171.128ZM102.414 174H81.1145V177H102.414V174ZM82.1677 176.568L89.3677 169.468L87.2612 167.332L80.0612 174.432L82.1677 176.568ZM86.8145 168.4V195H89.8145V168.4H86.8145ZM88.3145 193.5H72.1145V196.5H88.3145V193.5ZM117.85 194.149L100.35 168.749L97.8792 170.451L115.379 195.851L117.85 194.149ZM99.1145 171.1H116.414V168.1H99.1145V171.1ZM115.184 170.458L132.884 195.858L135.345 194.142L117.645 168.742L115.184 170.458ZM134.114 193.5H116.614V196.5H134.114V193.5ZM89.4034 169.168L82.2034 161.568L80.0255 163.632L87.2255 171.232L89.4034 169.168ZM81.1145 164.1H101.514V161.1H81.1145V164.1ZM101.514 164.1C106.69 164.1 110.844 163.001 113.696 160.535L111.733 158.265C109.652 160.065 106.338 161.1 101.514 161.1V164.1ZM113.713 160.519C116.548 157.991 117.914 154.557 117.914 150.4H114.914C114.914 153.843 113.814 156.409 111.716 158.281L113.713 160.519ZM117.914 150.4C117.914 146.187 116.554 142.737 113.696 140.265L111.733 142.535C113.809 144.329 114.914 146.88 114.914 150.4H117.914ZM113.696 140.265C110.844 137.799 106.69 136.7 101.514 136.7V139.7C106.338 139.7 109.652 140.735 111.733 142.535L113.696 140.265ZM101.514 136.7H81.1145V139.7H101.514V136.7ZM82.2101 139.224L89.4101 131.524L87.2188 129.476L80.0188 137.176L82.2101 139.224ZM86.8145 130.5V170.2H89.8145V130.5H86.8145ZM136.45 195L135.08 194.389L134.139 196.5H136.45V195ZM167.65 125V123.5H166.676L166.28 124.389L167.65 125ZM183.65 125L185.019 124.388L184.622 123.5H183.65V125ZM214.95 195V196.5H217.263L216.319 194.388L214.95 195ZM197.95 195L196.564 195.574L196.947 196.5H197.95V195ZM172.35 133.2V131.7H170.105L170.964 133.774L172.35 133.2ZM178.75 133.2L180.135 133.776L180.998 131.7H178.75V133.2ZM153.05 195V196.5H154.05L154.435 195.576L153.05 195ZM152.05 180L150.634 179.505L149.936 181.5H152.05V180ZM156.35 167.7V166.2H155.285L154.934 167.205L156.35 167.7ZM192.35 167.7L193.762 167.195L193.406 166.2H192.35V167.7ZM196.75 180V181.5H198.879L198.162 179.495L196.75 180ZM137.82 195.611L169.02 125.611L166.28 124.389L135.08 194.389L137.82 195.611ZM167.65 126.5H183.65V123.5H167.65V126.5ZM182.28 125.612L213.58 195.612L216.319 194.388L185.019 124.388L182.28 125.612ZM214.95 193.5H197.95V196.5H214.95V193.5ZM199.335 194.426L173.735 132.626L170.964 133.774L196.564 195.574L199.335 194.426ZM172.35 134.7H178.75V131.7H172.35V134.7ZM177.365 132.624L151.665 194.424L154.435 195.576L180.135 133.776L177.365 132.624ZM153.05 193.5H136.45V196.5H153.05V193.5ZM153.466 180.495L157.766 168.195L154.934 167.205L150.634 179.505L153.466 180.495ZM156.35 169.2H192.35V166.2H156.35V169.2ZM190.937 168.205L195.337 180.505L198.162 179.495L193.762 167.195L190.937 168.205ZM196.75 178.5H152.05V181.5H196.75V178.5ZM222.212 195H220.712V196.5H222.212V195ZM222.212 125V123.5H220.712V125H222.212ZM274.112 129.4L273.435 130.739L273.447 130.745L274.112 129.4ZM287.712 141.5L286.442 142.298L287.712 141.5ZM287.712 178.5L288.982 179.298L288.987 179.291L287.712 178.5ZM274.112 190.7L274.777 192.045L274.789 192.039L274.112 190.7ZM238.412 181.7H236.912V183.2H238.412V181.7ZM265.312 179.1L265.993 180.436L266.003 180.431L265.312 179.1ZM273.312 171.5L272.021 170.736L272.015 170.746L272.01 170.756L273.312 171.5ZM273.312 148.5L272.01 149.244L272.019 149.26L272.028 149.276L273.312 148.5ZM265.312 141L264.61 142.326L264.626 142.334L264.641 142.342L265.312 141ZM238.412 138.3V136.8H236.912V138.3H238.412ZM223.712 195V125H220.712V195H223.712ZM222.212 126.5H254.012V123.5H222.212V126.5ZM254.012 126.5C261.417 126.5 267.878 127.928 273.435 130.739L274.789 128.061C268.746 125.005 261.808 123.5 254.012 123.5V126.5ZM273.447 130.745C279.013 133.495 283.331 137.345 286.442 142.298L288.982 140.702C285.56 135.255 280.811 131.038 274.777 128.055L273.447 130.745ZM286.442 142.298C289.536 147.222 291.112 153.102 291.112 160H294.112C294.112 152.631 292.422 146.178 288.982 140.702L286.442 142.298ZM291.112 160C291.112 166.827 289.537 172.712 286.437 177.709L288.987 179.291C292.421 173.755 294.112 167.306 294.112 160H291.112ZM286.442 177.702C283.329 182.658 279.007 186.544 273.435 189.361L274.789 192.039C280.817 188.99 285.562 184.742 288.982 179.298L286.442 177.702ZM273.447 189.355C267.887 192.103 261.422 193.5 254.012 193.5V196.5C261.803 196.5 268.737 195.03 274.777 192.045L273.447 189.355ZM254.012 193.5H222.212V196.5H254.012V193.5ZM238.412 183.2H253.212V180.2H238.412V183.2ZM253.212 183.2C258.064 183.2 262.341 182.299 265.993 180.436L264.631 177.764C261.484 179.368 257.694 180.2 253.212 180.2V183.2ZM266.003 180.431C269.716 178.504 272.599 175.771 274.614 172.244L272.01 170.756C270.292 173.762 267.842 176.096 264.621 177.769L266.003 180.431ZM274.603 172.264C276.694 168.731 277.712 164.625 277.712 160H274.712C274.712 164.175 273.797 167.735 272.021 170.736L274.603 172.264ZM277.712 160C277.712 155.313 276.696 151.2 274.596 147.724L272.028 149.276C273.795 152.2 274.712 155.753 274.712 160H277.712ZM274.614 147.756C272.596 144.224 269.706 141.52 265.983 139.658L264.641 142.342C267.852 143.947 270.295 146.243 272.01 149.244L274.614 147.756ZM266.014 139.674C262.356 137.738 258.072 136.8 253.212 136.8V139.8C257.686 139.8 261.468 140.662 264.61 142.326L266.014 139.674ZM253.212 136.8H238.412V139.8H253.212V136.8ZM236.912 138.3V181.7H239.912V138.3H236.912ZM304.829 195H303.329V196.5H304.829V195ZM304.829 125V123.5H303.329V125H304.829ZM321.029 125H322.529V123.5H321.029V125ZM321.029 195V196.5H322.529V195H321.029ZM306.329 195V125H303.329V195H306.329ZM304.829 126.5H321.029V123.5H304.829V126.5ZM319.529 125V195H322.529V125H319.529ZM321.029 193.5H304.829V196.5H321.029V193.5ZM352.142 195H350.642V196.5H352.142V195ZM352.142 138.2H353.642V136.7H352.142V138.2ZM329.742 138.2H328.242V139.7H329.742V138.2ZM329.742 125V123.5H328.242V125H329.742ZM390.742 125H392.242V123.5H390.742V125ZM390.742 138.2V139.7H392.242V138.2H390.742ZM368.342 138.2V136.7H366.842V138.2H368.342ZM368.342 195V196.5H369.842V195H368.342ZM353.642 195V138.2H350.642V195H353.642ZM352.142 136.7H329.742V139.7H352.142V136.7ZM331.242 138.2V125H328.242V138.2H331.242ZM329.742 126.5H390.742V123.5H329.742V126.5ZM389.242 125V138.2H392.242V125H389.242ZM390.742 136.7H368.342V139.7H390.742V136.7ZM366.842 138.2V195H369.842V138.2H366.842ZM368.342 193.5H352.142V196.5H368.342V193.5ZM399.458 195H397.958V196.5H399.458V195ZM399.458 125V123.5H397.958V125H399.458ZM415.658 125H417.158V123.5H415.658V125ZM415.658 195V196.5H417.158V195H415.658ZM400.958 195V125H397.958V195H400.958ZM399.458 126.5H415.658V123.5H399.458V126.5ZM414.158 125V195H417.158V125H414.158ZM415.658 193.5H399.458V196.5H415.658V193.5ZM450.871 193.5L450.331 194.9L450.338 194.902L450.871 193.5ZM438.671 185.9L437.631 186.982L437.637 186.987L437.642 186.992L438.671 185.9ZM430.671 174.4L429.29 174.986L429.294 174.995L429.297 175.003L430.671 174.4ZM430.671 145.6L429.297 144.997L429.294 145.005L429.29 145.014L430.671 145.6ZM438.771 134.1L439.799 135.192L438.771 134.1ZM450.971 126.5L450.431 125.1L450.431 125.1L450.971 126.5ZM481.371 126.5L480.824 127.897L480.831 127.899L481.371 126.5ZM493.471 134.1L492.431 135.182L492.437 135.187L492.442 135.192L493.471 134.1ZM501.571 145.6L500.197 146.203L500.201 146.211L501.571 145.6ZM501.571 174.5L502.944 175.103L502.947 175.096L501.571 174.5ZM493.471 186L494.499 187.092L494.499 187.092L493.471 186ZM481.371 193.5L480.831 192.1L480.824 192.103L481.371 193.5ZM474.771 180.8L474.214 179.407L474.201 179.412L474.771 180.8ZM481.771 176.2L480.71 175.139L480.71 175.139L481.771 176.2ZM486.371 169.1L484.985 168.525L484.979 168.54L484.973 168.555L486.371 169.1ZM486.371 150.9L484.973 151.445L484.979 151.46L484.985 151.475L486.371 150.9ZM481.771 143.8L480.692 144.843L480.701 144.852L480.71 144.861L481.771 143.8ZM474.871 139.2L474.314 140.593L474.314 140.593L474.871 139.2ZM457.471 139.2L456.914 137.807L456.901 137.812L457.471 139.2ZM450.571 143.8L451.631 144.861L451.631 144.861L450.571 143.8ZM445.871 150.9L444.485 150.325L444.479 150.34L444.473 150.355L445.871 150.9ZM445.871 169.1L444.469 169.634L444.477 169.654L444.485 169.675L445.871 169.1ZM450.471 176.2L449.392 177.243L449.401 177.252L449.41 177.261L450.471 176.2ZM457.471 180.8L456.914 182.193L456.914 182.193L457.471 180.8ZM466.271 194.7C460.903 194.7 455.952 193.827 451.404 192.098L450.338 194.902C455.256 196.773 460.572 197.7 466.271 197.7V194.7ZM451.411 192.1C446.916 190.367 443.018 187.935 439.699 184.808L437.642 186.992C441.257 190.398 445.492 193.033 450.331 194.9L451.411 192.1ZM439.71 184.818C436.454 181.69 433.9 178.02 432.044 173.797L429.297 175.003C431.308 179.58 434.087 183.576 437.631 186.982L439.71 184.818ZM432.052 173.814C430.27 169.615 429.371 165.017 429.371 160H426.371C426.371 165.383 427.338 170.385 429.29 174.986L432.052 173.814ZM429.371 160C429.371 154.983 430.27 150.385 432.052 146.186L429.29 145.014C427.338 149.615 426.371 154.617 426.371 160H429.371ZM432.044 146.203C433.897 141.986 436.481 138.319 439.799 135.192L437.742 133.008C434.128 136.414 431.311 140.414 429.297 144.997L432.044 146.203ZM439.799 135.192C443.118 132.065 447.016 129.633 451.511 127.899L450.431 125.1C445.592 126.967 441.357 129.602 437.742 133.008L439.799 135.192ZM451.511 127.899C455.99 126.172 460.871 125.3 466.171 125.3V122.3C460.537 122.3 455.285 123.228 450.431 125.1L451.511 127.899ZM466.171 125.3C471.539 125.3 476.418 126.173 480.824 127.897L481.917 125.103C477.123 123.227 471.869 122.3 466.171 122.3V125.3ZM480.831 127.899C485.323 129.632 489.184 132.061 492.431 135.182L494.51 133.018C490.958 129.605 486.752 126.968 481.911 125.1L480.831 127.899ZM492.442 135.192C495.761 138.319 498.344 141.986 500.197 146.203L502.944 144.997C500.93 140.414 498.114 136.414 494.499 133.008L492.442 135.192ZM500.201 146.211C502.039 150.332 502.971 154.921 502.971 160H505.971C505.971 154.546 504.969 149.535 502.941 144.989L500.201 146.211ZM502.971 160C502.971 165.009 502.041 169.638 500.194 173.904L502.947 175.096C504.968 170.428 505.971 165.391 505.971 160H502.971ZM500.197 173.897C498.344 178.114 495.761 181.781 492.442 184.908L494.499 187.092C498.114 183.686 500.93 179.686 502.944 175.103L500.197 173.897ZM492.443 184.908C489.194 187.965 485.33 190.365 480.831 192.1L481.911 194.9C486.745 193.035 490.948 190.435 494.499 187.092L492.443 184.908ZM480.824 192.103C476.416 193.828 471.57 194.7 466.271 194.7V197.7C471.904 197.7 477.125 196.772 481.917 194.897L480.824 192.103ZM466.171 183.9C469.477 183.9 472.54 183.337 475.34 182.188L474.201 179.412C471.802 180.397 469.131 180.9 466.171 180.9V183.9ZM475.328 182.193C478.18 181.052 480.685 179.407 482.831 177.261L480.71 175.139C478.856 176.993 476.695 178.415 474.214 179.407L475.328 182.193ZM482.831 177.261C484.984 175.108 486.629 172.564 487.768 169.645L484.973 168.555C483.979 171.102 482.558 173.291 480.71 175.139L482.831 177.261ZM487.756 169.675C488.974 166.737 489.571 163.506 489.571 160H486.571C486.571 163.161 486.034 165.996 484.985 168.525L487.756 169.675ZM489.571 160C489.571 156.494 488.974 153.263 487.756 150.325L484.985 151.475C486.034 154.004 486.571 156.839 486.571 160H489.571ZM487.768 150.355C486.629 147.436 484.984 144.891 482.831 142.739L480.71 144.861C482.558 146.708 483.979 148.898 484.973 151.445L487.768 150.355ZM482.849 142.757C480.764 140.6 478.284 138.95 475.428 137.807L474.314 140.593C476.79 141.583 478.911 143 480.692 144.843L482.849 142.757ZM475.428 137.807C472.568 136.664 469.477 136.1 466.171 136.1V139.1C469.131 139.1 471.84 139.603 474.314 140.593L475.428 137.807ZM466.171 136.1C462.864 136.1 459.773 136.664 456.914 137.807L458.028 140.593C460.502 139.603 463.211 139.1 466.171 139.1V136.1ZM456.901 137.812C454.116 138.955 451.65 140.6 449.51 142.739L451.631 144.861C453.492 143 455.625 141.579 458.04 140.588L456.901 137.812ZM449.51 142.739C447.364 144.885 445.69 147.419 444.485 150.325L447.256 151.475C448.318 148.914 449.777 146.715 451.631 144.861L449.51 142.739ZM444.473 150.355C443.33 153.284 442.771 156.505 442.771 160H445.771C445.771 156.828 446.278 153.983 447.268 151.445L444.473 150.355ZM442.771 160C442.771 163.433 443.332 166.649 444.469 169.634L447.272 168.566C446.276 165.951 445.771 163.101 445.771 160H442.771ZM444.485 169.675C445.686 172.571 447.32 175.099 449.392 177.243L451.549 175.157C449.755 173.301 448.322 171.096 447.256 168.525L444.485 169.675ZM449.41 177.261C451.556 179.407 454.061 181.052 456.914 182.193L458.028 179.407C455.547 178.415 453.385 176.993 451.531 175.139L449.41 177.261ZM456.914 182.193C459.773 183.336 462.864 183.9 466.171 183.9V180.9C463.211 180.9 460.502 180.397 458.028 179.407L456.914 182.193ZM516.646 195H515.146V196.5H516.646V195ZM516.646 125V123.5H515.146V125H516.646ZM530.046 125L531.206 124.049L530.756 123.5H530.046V125ZM571.346 175.4V176.9H574.514L572.506 174.449L571.346 175.4ZM564.846 175.4H563.346V176.9H564.846V175.4ZM564.846 125V123.5H563.346V125H564.846ZM580.846 125H582.346V123.5H580.846V125ZM580.846 195V196.5H582.346V195H580.846ZM567.546 195L566.387 195.952L566.837 196.5H567.546V195ZM526.146 144.6V143.1H522.972L524.987 145.552L526.146 144.6ZM532.646 144.6H534.146V143.1H532.646V144.6ZM532.646 195V196.5H534.146V195H532.646ZM518.146 195V125H515.146V195H518.146ZM516.646 126.5H530.046V123.5H516.646V126.5ZM528.885 125.951L570.185 176.351L572.506 174.449L531.206 124.049L528.885 125.951ZM571.346 173.9H564.846V176.9H571.346V173.9ZM566.346 175.4V125H563.346V175.4H566.346ZM564.846 126.5H580.846V123.5H564.846V126.5ZM579.346 125V195H582.346V125H579.346ZM580.846 193.5H567.546V196.5H580.846V193.5ZM568.705 194.048L527.305 143.648L524.987 145.552L566.387 195.952L568.705 194.048ZM526.146 146.1H532.646V143.1H526.146V146.1ZM531.146 144.6V195H534.146V144.6H531.146ZM532.646 193.5H516.646V196.5H532.646V193.5ZM604.307 194L603.878 195.437L603.887 195.44L603.895 195.442L604.307 194ZM591.907 188.1L590.54 187.484L590.051 188.568L590.995 189.291L591.907 188.1ZM597.407 175.9L598.277 174.678L596.79 173.62L596.04 175.284L597.407 175.9ZM608.007 181.2L607.519 182.618L607.533 182.623L607.547 182.628L608.007 181.2ZM628.207 182.3L628.652 183.733L628.667 183.728L628.682 183.723L628.207 182.3ZM632.607 179.6L631.45 178.646L631.45 178.646L632.607 179.6ZM631.807 171.3L630.89 172.487L630.908 172.5L630.925 172.513L631.807 171.3ZM626.007 168.6L625.569 170.035L625.587 170.04L625.606 170.045L626.007 168.6ZM618.007 166.6L617.668 168.061L617.687 168.066L617.707 168.07L618.007 166.6ZM609.307 164.2L608.843 165.626L608.853 165.629L609.307 164.2ZM601.407 160.6L600.625 161.88L600.625 161.88L601.407 160.6ZM595.507 154.8L594.227 155.582L594.235 155.595L594.243 155.608L595.507 154.8ZM596.507 134.7L595.255 133.874L595.252 133.88L596.507 134.7ZM606.307 126.8L606.919 128.17L606.928 128.166L606.307 126.8ZM635.807 125.4L635.444 126.855L635.454 126.858L635.465 126.86L635.807 125.4ZM647.107 130L648.497 130.565L648.969 129.403L647.909 128.732L647.107 130ZM642.107 142.3L641.363 143.602L642.851 144.453L643.497 142.865L642.107 142.3ZM632.307 138.2L631.895 139.642L631.909 139.646L631.923 139.65L632.307 138.2ZM615.007 137.9L614.491 136.492L614.491 136.492L615.007 137.9ZM610.707 140.8L611.899 141.711L611.911 141.695L611.923 141.678L610.707 140.8ZM611.607 149.2L610.69 150.387L610.708 150.4L610.725 150.413L611.607 149.2ZM617.407 151.8L617.006 153.245L617.006 153.245L617.407 151.8ZM625.307 153.8L624.968 155.261L624.975 155.263L625.307 153.8ZM634.007 156.1L633.573 157.536L633.582 157.539L634.007 156.1ZM642.007 159.6L642.79 158.32L642.79 158.32L642.007 159.6ZM647.807 165.4L646.528 166.182L646.535 166.195L646.543 166.208L647.807 165.4ZM646.807 185.3L648.052 186.138L648.052 186.138L646.807 185.3ZM636.907 193.2L636.287 191.834L636.279 191.838L636.907 193.2ZM620.407 194.7C614.94 194.7 609.712 193.984 604.72 192.558L603.895 195.442C609.169 196.949 614.675 197.7 620.407 197.7V194.7ZM604.737 192.563C599.72 191.064 595.767 189.167 592.82 186.909L590.995 189.291C594.315 191.833 598.629 193.869 603.878 195.437L604.737 192.563ZM593.275 188.716L598.775 176.516L596.04 175.284L590.54 187.484L593.275 188.716ZM596.538 177.122C599.673 179.352 603.339 181.179 607.519 182.618L608.496 179.782C604.543 178.421 601.142 176.715 598.277 174.678L596.538 177.122ZM607.547 182.628C611.824 184.007 616.146 184.7 620.507 184.7V181.7C616.469 181.7 612.458 181.059 608.468 179.772L607.547 182.628ZM620.507 184.7C623.781 184.7 626.516 184.395 628.652 183.733L627.763 180.867C626.032 181.405 623.633 181.7 620.507 181.7V184.7ZM628.682 183.723C630.839 183.004 632.591 181.98 633.765 180.554L631.45 178.646C630.757 179.487 629.576 180.263 627.733 180.877L628.682 183.723ZM633.765 180.554C634.92 179.152 635.507 177.515 635.507 175.7H632.507C632.507 176.818 632.162 177.781 631.45 178.646L633.765 180.554ZM635.507 175.7C635.507 173.37 634.558 171.445 632.69 170.087L630.925 172.513C631.99 173.288 632.507 174.297 632.507 175.7H635.507ZM632.725 170.113C631.061 168.828 628.935 167.857 626.409 167.155L625.606 170.045C627.88 170.677 629.62 171.505 630.89 172.487L632.725 170.113ZM626.446 167.165C623.993 166.416 621.279 165.738 618.308 165.13L617.707 168.07C620.602 168.662 623.222 169.317 625.569 170.035L626.446 167.165ZM618.347 165.139C615.521 164.482 612.659 163.692 609.762 162.771L608.853 165.629C611.822 166.574 614.761 167.385 617.668 168.061L618.347 165.139ZM609.772 162.774C607.008 161.874 604.483 160.722 602.19 159.32L600.625 161.88C603.132 163.412 605.873 164.659 608.843 165.626L609.772 162.774ZM602.19 159.32C599.987 157.974 598.184 156.203 596.771 153.992L594.243 155.608C595.898 158.197 598.028 160.293 600.625 161.88L602.19 159.32ZM596.787 154.018C595.504 151.919 594.807 149.145 594.807 145.6H591.807C591.807 149.521 592.577 152.881 594.227 155.582L596.787 154.018ZM594.807 145.6C594.807 141.884 595.793 138.537 597.763 135.52L595.252 133.88C592.955 137.397 591.807 141.316 591.807 145.6H594.807ZM597.759 135.526C599.774 132.473 602.797 130.009 606.919 128.17L605.696 125.43C601.152 127.458 597.64 130.26 595.256 133.874L597.759 135.526ZM606.928 128.166C611.076 126.28 616.348 125.3 622.807 125.3V122.3C616.067 122.3 610.339 123.32 605.687 125.434L606.928 128.166ZM622.807 125.3C627.085 125.3 631.296 125.818 635.444 126.855L636.171 123.945C631.786 122.848 627.33 122.3 622.807 122.3V125.3ZM635.465 126.86C639.59 127.827 643.198 129.301 646.305 131.268L647.909 128.732C644.484 126.565 640.558 124.973 636.15 123.94L635.465 126.86ZM645.718 129.435L640.718 141.735L643.497 142.865L648.497 130.565L645.718 129.435ZM642.852 140.998C639.485 139.074 636.098 137.654 632.692 136.75L631.923 139.65C635.05 140.48 638.197 141.793 641.363 143.602L642.852 140.998ZM632.72 136.758C629.33 135.789 625.991 135.3 622.707 135.3V138.3C625.69 138.3 628.751 138.744 631.895 139.642L632.72 136.758ZM622.707 135.3C619.473 135.3 616.715 135.676 614.491 136.492L615.524 139.308C617.3 138.657 619.675 138.3 622.707 138.3V135.3ZM614.491 136.492C612.328 137.285 610.595 138.394 609.491 139.922L611.923 141.678C612.554 140.806 613.687 139.982 615.524 139.308L614.491 136.492ZM609.516 139.889C608.434 141.304 607.907 142.964 607.907 144.8H610.907C610.907 143.57 611.248 142.563 611.899 141.711L609.516 139.889ZM607.907 144.8C607.907 147.08 608.869 148.979 610.69 150.387L612.525 148.013C611.413 147.154 610.907 146.12 610.907 144.8H607.907ZM610.725 150.413C612.38 151.617 614.493 152.547 617.006 153.245L617.809 150.355C615.522 149.719 613.768 148.917 612.49 147.987L610.725 150.413ZM617.006 153.245C619.43 153.919 622.084 154.59 624.968 155.261L625.647 152.339C622.798 151.676 620.185 151.015 617.809 150.355L617.006 153.245ZM624.975 155.263C627.874 155.922 630.74 156.679 633.573 157.536L634.442 154.664C631.541 153.787 628.607 153.012 625.64 152.337L624.975 155.263ZM633.582 157.539C636.401 158.371 638.946 159.487 641.225 160.88L642.79 158.32C640.269 156.78 637.48 155.562 634.432 154.661L633.582 157.539ZM641.225 160.88C643.422 162.223 645.185 163.985 646.528 166.182L649.087 164.618C647.497 162.015 645.393 159.911 642.79 158.32L641.225 160.88ZM646.543 166.208C647.884 168.306 648.607 171.038 648.607 174.5H651.607C651.607 170.628 650.797 167.294 649.071 164.592L646.543 166.208ZM648.607 174.5C648.607 178.134 647.597 181.443 645.563 184.462L648.052 186.138C650.418 182.624 651.607 178.732 651.607 174.5H648.607ZM645.563 184.462C643.55 187.451 640.491 189.923 636.287 191.834L637.528 194.566C642.123 192.477 645.665 189.682 648.052 186.138L645.563 184.462ZM636.279 191.838C632.205 193.719 626.938 194.7 620.407 194.7V197.7C627.211 197.7 632.944 196.681 637.536 194.562L636.279 191.838ZM659.33 210.4L657.884 210.002L657.362 211.9H659.33V210.4ZM665.93 186.4L667.387 186.044L666.015 180.432L664.484 186.002L665.93 186.4ZM668.13 195.4V196.9H670.041L669.587 195.044L668.13 195.4ZM661.03 192.9L660.011 194.001L660.021 194.01L660.031 194.019L661.03 192.9ZM661.13 179L660.109 177.901L660.109 177.901L661.13 179ZM674.93 179.1L673.869 180.161L673.879 180.171L673.89 180.18L674.93 179.1ZM677.43 188.6L678.91 188.847L678.911 188.837L678.913 188.828L677.43 188.6ZM676.63 191.6L675.207 191.126L675.199 191.151L675.191 191.177L676.63 191.6ZM674.93 196L673.559 195.391L673.547 195.419L673.535 195.448L674.93 196ZM669.23 210.4V211.9H670.25L670.625 210.952L669.23 210.4ZM660.776 210.798L667.376 186.798L664.484 186.002L657.884 210.002L660.776 210.798ZM664.473 186.756L666.673 195.756L669.587 195.044L667.387 186.044L664.473 186.756ZM668.13 193.9C665.575 193.9 663.581 193.167 662.029 191.781L660.031 194.019C662.213 195.967 664.952 196.9 668.13 196.9V193.9ZM662.049 191.799C660.615 190.472 659.83 188.604 659.83 186H656.83C656.83 189.262 657.845 191.995 660.011 194.001L662.049 191.799ZM659.83 186C659.83 183.414 660.637 181.505 662.151 180.099L660.109 177.901C657.89 179.962 656.83 182.719 656.83 186H659.83ZM662.151 180.099C663.719 178.643 665.645 177.9 668.03 177.9V174.9C664.948 174.9 662.275 175.89 660.109 177.901L662.151 180.099ZM668.03 177.9C670.476 177.9 672.38 178.671 673.869 180.161L675.991 178.039C673.88 175.929 671.184 174.9 668.03 174.9V177.9ZM673.89 180.18C675.352 181.589 676.13 183.475 676.13 186H679.13C679.13 182.791 678.108 180.078 675.971 178.02L673.89 180.18ZM676.13 186C676.13 186.789 676.069 187.58 675.948 188.372L678.913 188.828C679.057 187.887 679.13 186.944 679.13 186H676.13ZM675.95 188.353C675.835 189.046 675.594 189.964 675.207 191.126L678.053 192.074C678.466 190.836 678.758 189.754 678.91 188.847L675.95 188.353ZM675.191 191.177C674.885 192.219 674.348 193.617 673.559 195.391L676.301 196.609C677.112 194.783 677.709 193.248 678.069 192.023L675.191 191.177ZM673.535 195.448L667.835 209.848L670.625 210.952L676.325 196.552L673.535 195.448ZM669.23 208.9H659.33V211.9H669.23V208.9ZM36.575 275.2V273.7H35.075V275.2H36.575ZM70.275 275.2H71.775V273.7H70.275V275.2ZM70.275 287.8V289.3H71.775V287.8H70.275ZM36.575 287.8H35.075V289.3H36.575V287.8ZM37.775 304H36.275V305.5H37.775V304ZM75.875 304H77.375V302.5H75.875V304ZM75.875 317V318.5H77.375V317H75.875ZM21.675 317H20.175V318.5H21.675V317ZM21.675 247V245.5H20.175V247H21.675ZM74.575 247H76.075V245.5H74.575V247ZM74.575 260V261.5H76.075V260H74.575ZM37.775 260V258.5H36.275V260H37.775ZM36.575 276.7H70.275V273.7H36.575V276.7ZM68.775 275.2V287.8H71.775V275.2H68.775ZM70.275 286.3H36.575V289.3H70.275V286.3ZM38.075 287.8V275.2H35.075V287.8H38.075ZM37.775 305.5H75.875V302.5H37.775V305.5ZM74.375 304V317H77.375V304H74.375ZM75.875 315.5H21.675V318.5H75.875V315.5ZM23.175 317V247H20.175V317H23.175ZM21.675 248.5H74.575V245.5H21.675V248.5ZM73.075 247V260H76.075V247H73.075ZM74.575 258.5H37.775V261.5H74.575V258.5ZM36.275 260V304H39.275V260H36.275ZM88.7648 317H87.2648V318.5H88.7648V317ZM88.7648 247V245.5H87.2648V247H88.7648ZM102.165 247L103.325 246.049L102.875 245.5H102.165V247ZM143.465 297.4V298.9H146.633L144.625 296.449L143.465 297.4ZM136.965 297.4H135.465V298.9H136.965V297.4ZM136.965 247V245.5H135.465V247H136.965ZM152.965 247H154.465V245.5H152.965V247ZM152.965 317V318.5H154.465V317H152.965ZM139.665 317L138.506 317.952L138.956 318.5H139.665V317ZM98.2648 266.6V265.1H95.0915L97.1058 267.552L98.2648 266.6ZM104.765 266.6H106.265V265.1H104.765V266.6ZM104.765 317V318.5H106.265V317H104.765ZM90.2648 317V247H87.2648V317H90.2648ZM88.7648 248.5H102.165V245.5H88.7648V248.5ZM101.005 247.951L142.305 298.351L144.625 296.449L103.325 246.049L101.005 247.951ZM143.465 295.9H136.965V298.9H143.465V295.9ZM138.465 297.4V247H135.465V297.4H138.465ZM136.965 248.5H152.965V245.5H136.965V248.5ZM151.465 247V317H154.465V247H151.465ZM152.965 315.5H139.665V318.5H152.965V315.5ZM140.824 316.048L99.4239 265.648L97.1058 267.552L138.506 317.952L140.824 316.048ZM98.2648 268.1H104.765V265.1H98.2648V268.1ZM103.265 266.6V317H106.265V266.6H103.265ZM104.765 315.5H88.7648V318.5H104.765V315.5ZM184.427 275.2V273.7H182.927V275.2H184.427ZM218.127 275.2H219.627V273.7H218.127V275.2ZM218.127 287.8V289.3H219.627V287.8H218.127ZM184.427 287.8H182.927V289.3H184.427V287.8ZM185.627 304H184.127V305.5H185.627V304ZM223.727 304H225.227V302.5H223.727V304ZM223.727 317V318.5H225.227V317H223.727ZM169.527 317H168.027V318.5H169.527V317ZM169.527 247V245.5H168.027V247H169.527ZM222.427 247H223.927V245.5H222.427V247ZM222.427 260V261.5H223.927V260H222.427ZM185.627 260V258.5H184.127V260H185.627ZM184.427 276.7H218.127V273.7H184.427V276.7ZM216.627 275.2V287.8H219.627V275.2H216.627ZM218.127 286.3H184.427V289.3H218.127V286.3ZM185.927 287.8V275.2H182.927V287.8H185.927ZM185.627 305.5H223.727V302.5H185.627V305.5ZM222.227 304V317H225.227V304H222.227ZM223.727 315.5H169.527V318.5H223.727V315.5ZM171.027 317V247H168.027V317H171.027ZM169.527 248.5H222.427V245.5H169.527V248.5ZM220.927 247V260H223.927V247H220.927ZM222.427 258.5H185.627V261.5H222.427V258.5ZM184.127 260V304H187.127V260H184.127ZM236.616 317H235.116V318.5H236.616V317ZM236.616 247V245.5H235.116V247H236.616ZM283.116 250.1L282.494 251.465L282.503 251.469L282.511 251.472L283.116 250.1ZM293.616 258.8L292.358 259.617L292.358 259.617L293.616 258.8ZM293.616 285.9L294.868 286.727L294.875 286.717L293.616 285.9ZM283.116 294.5L283.722 295.872L283.722 295.872L283.116 294.5ZM245.616 297.5L244.563 296.432L241.959 299H245.616V297.5ZM252.816 290.4H254.316V286.814L251.763 289.332L252.816 290.4ZM252.816 317V318.5H254.316V317H252.816ZM281.116 317L279.881 317.851L280.328 318.5H281.116V317ZM263.616 291.6V290.1H260.761L262.381 292.451L263.616 291.6ZM280.916 291.6L282.147 290.742L281.699 290.1H280.916V291.6ZM298.616 317V318.5H301.49L299.847 316.142L298.616 317ZM252.816 292.2L251.727 293.232L254.316 295.964V292.2H252.816ZM245.616 284.6V283.1H242.129L244.527 285.632L245.616 284.6ZM277.216 281.4L278.198 282.535L278.206 282.527L278.215 282.519L277.216 281.4ZM245.616 260.2L244.521 259.176L242.16 261.7H245.616V260.2ZM252.816 252.5H254.316V248.7L251.721 251.476L252.816 252.5ZM238.116 317V247H235.116V317H238.116ZM236.616 248.5H266.916V245.5H236.616V248.5ZM266.916 248.5C273.022 248.5 278.2 249.507 282.494 251.465L283.739 248.735C278.966 246.56 273.344 245.5 266.916 245.5V248.5ZM282.511 251.472C286.803 253.366 290.065 256.084 292.358 259.617L294.875 257.983C292.234 253.916 288.496 250.834 283.722 248.728L282.511 251.472ZM292.358 259.617C294.643 263.136 295.816 267.375 295.816 272.4H298.816C298.816 266.892 297.523 262.064 294.875 257.983L292.358 259.617ZM295.816 272.4C295.816 277.354 294.645 281.561 292.358 285.083L294.875 286.717C297.521 282.639 298.816 277.846 298.816 272.4H295.816ZM292.365 285.073C290.074 288.541 286.81 291.231 282.511 293.128L283.722 295.872C288.489 293.769 292.226 290.726 294.868 286.727L292.365 285.073ZM282.511 293.128C278.212 295.024 273.028 296 266.916 296V299C273.338 299 278.954 297.976 283.722 295.872L282.511 293.128ZM266.916 296H245.616V299H266.916V296ZM246.67 298.568L253.87 291.468L251.763 289.332L244.563 296.432L246.67 298.568ZM251.316 290.4V317H254.316V290.4H251.316ZM252.816 315.5H236.616V318.5H252.816V315.5ZM282.352 316.149L264.852 290.749L262.381 292.451L279.881 317.851L282.352 316.149ZM263.616 293.1H280.916V290.1H263.616V293.1ZM279.686 292.458L297.386 317.858L299.847 316.142L282.147 290.742L279.686 292.458ZM298.616 315.5H281.116V318.5H298.616V315.5ZM253.905 291.168L246.705 283.568L244.527 285.632L251.727 293.232L253.905 291.168ZM245.616 286.1H266.016V283.1H245.616V286.1ZM266.016 286.1C271.192 286.1 275.346 285.001 278.198 282.535L276.235 280.265C274.154 282.065 270.84 283.1 266.016 283.1V286.1ZM278.215 282.519C281.05 279.991 282.416 276.557 282.416 272.4H279.416C279.416 275.843 278.316 278.409 276.218 280.281L278.215 282.519ZM282.416 272.4C282.416 268.187 281.056 264.737 278.198 262.265L276.235 264.535C278.311 266.329 279.416 268.88 279.416 272.4H282.416ZM278.198 262.265C275.346 259.799 271.192 258.7 266.016 258.7V261.7C270.84 261.7 274.154 262.735 276.235 264.535L278.198 262.265ZM266.016 258.7H245.616V261.7H266.016V258.7ZM246.712 261.224L253.912 253.524L251.721 251.476L244.521 259.176L246.712 261.224ZM251.316 252.5V292.2H254.316V252.5H251.316ZM328.652 315.6L328.105 316.997L328.117 317.002L328.129 317.006L328.652 315.6ZM316.552 308L315.512 309.082L315.518 309.087L315.523 309.092L316.552 308ZM308.552 296.5L307.171 297.086L307.174 297.095L307.178 297.103L308.552 296.5ZM308.552 267.5L307.178 266.897L307.174 266.905L307.171 266.914L308.552 267.5ZM316.652 256L317.68 257.092L317.68 257.092L316.652 256ZM328.852 248.5L329.374 249.906L329.383 249.903L329.391 249.899L328.852 248.5ZM360.952 248.9L360.372 250.284L360.379 250.286L360.952 248.9ZM373.552 257.9L374.569 259.002L375.636 258.017L374.686 256.919L373.552 257.9ZM363.152 267.5L362.064 268.533L363.082 269.605L364.169 268.602L363.152 267.5ZM354.852 261.6L354.242 262.971L354.255 262.976L354.268 262.982L354.852 261.6ZM328.452 265.8L327.408 264.722L327.4 264.731L327.391 264.739L328.452 265.8ZM323.752 272.9L322.366 272.325L322.36 272.34L322.354 272.355L323.752 272.9ZM323.752 291L322.354 291.545L322.36 291.56L322.366 291.575L323.752 291ZM328.452 298.2L327.374 299.243L327.391 299.261L327.408 299.278L328.452 298.2ZM335.652 302.8L335.106 304.197L335.118 304.202L335.652 302.8ZM354.152 302.9L354.626 304.323L354.635 304.32L354.644 304.317L354.152 302.9ZM363.052 297.6L364.231 296.673L363.262 295.44L362.073 296.463L363.052 297.6ZM372.252 309.3L373.155 310.497L374.377 309.576L373.431 308.373L372.252 309.3ZM358.952 315.9L358.517 314.464L358.512 314.466L358.952 315.9ZM357.452 307.2H355.952V308.502L357.241 308.685L357.452 307.2ZM357.452 280.9V279.4H355.952V280.9H357.452ZM372.252 280.9H373.752V279.4H372.252V280.9ZM372.252 309.3L372.041 310.785L373.752 311.028V309.3H372.252ZM343.952 316.7C338.577 316.7 333.656 315.859 329.174 314.194L328.129 317.006C332.981 318.808 338.26 319.7 343.952 319.7V316.7ZM329.198 314.203C324.77 312.47 320.902 310.038 317.58 306.908L315.523 309.092C319.134 312.495 323.333 315.13 328.105 316.997L329.198 314.203ZM317.591 306.918C314.335 303.79 311.781 300.12 309.925 295.897L307.178 297.103C309.189 301.68 311.968 305.676 315.512 309.082L317.591 306.918ZM309.932 295.914C308.152 291.718 307.252 287.086 307.252 282H304.252C304.252 287.447 305.218 292.482 307.171 297.086L309.932 295.914ZM307.252 282C307.252 276.914 308.152 272.282 309.932 268.086L307.171 266.914C305.218 271.518 304.252 276.553 304.252 282H307.252ZM309.925 268.103C311.778 263.886 314.361 260.219 317.68 257.092L315.623 254.908C312.008 258.314 309.192 262.314 307.178 266.897L309.925 268.103ZM317.68 257.092C320.994 253.969 324.887 251.573 329.374 249.906L328.329 247.094C323.483 248.894 319.242 251.498 315.623 254.908L317.68 257.092ZM329.391 249.899C333.866 248.173 338.814 247.3 344.252 247.3V244.3C338.489 244.3 333.17 245.227 328.312 247.1L329.391 249.899ZM344.252 247.3C350.284 247.3 355.649 248.305 360.372 250.284L361.531 247.516C356.387 245.362 350.619 244.3 344.252 244.3V247.3ZM360.379 250.286C365.171 252.267 369.176 255.132 372.417 258.881L374.686 256.919C371.127 252.801 366.732 249.666 361.525 247.514L360.379 250.286ZM372.534 256.798L362.134 266.398L364.169 268.602L374.569 259.002L372.534 256.798ZM364.239 266.467C361.582 263.67 358.648 261.575 355.435 260.218L354.268 262.982C357.055 264.158 359.655 265.997 362.064 268.533L364.239 266.467ZM355.461 260.229C352.255 258.804 348.779 258.1 345.052 258.1V261.1C348.391 261.1 351.448 261.729 354.242 262.971L355.461 260.229ZM345.052 258.1C341.493 258.1 338.209 258.658 335.218 259.798L336.286 262.602C338.894 261.608 341.81 261.1 345.052 261.1V258.1ZM335.218 259.798C332.236 260.934 329.627 262.575 327.408 264.722L329.495 266.878C331.409 265.025 333.667 263.599 336.286 262.602L335.218 259.798ZM327.391 264.739C325.245 266.885 323.571 269.419 322.366 272.325L325.137 273.475C326.199 270.914 327.658 268.715 329.512 266.861L327.391 264.739ZM322.354 272.355C321.211 275.284 320.652 278.505 320.652 282H323.652C323.652 278.828 324.159 275.983 325.149 273.445L322.354 272.355ZM320.652 282C320.652 285.432 321.212 288.62 322.354 291.545L325.149 290.455C324.157 287.914 323.652 285.101 323.652 282H320.652ZM322.366 291.575C323.569 294.477 325.239 297.037 327.374 299.243L329.529 297.157C327.664 295.23 326.2 292.99 325.137 290.425L322.366 291.575ZM327.408 299.278C329.621 301.419 332.191 303.06 335.106 304.197L336.197 301.403C333.645 300.407 331.415 298.981 329.495 297.122L327.408 299.278ZM335.118 304.202C338.106 305.34 341.356 305.9 344.852 305.9V302.9C341.68 302.9 338.797 302.393 336.186 301.398L335.118 304.202ZM344.852 305.9C348.211 305.9 351.471 305.375 354.626 304.323L353.677 301.477C350.832 302.425 347.892 302.9 344.852 302.9V305.9ZM354.644 304.317C357.916 303.179 361.044 301.307 364.03 298.737L362.073 296.463C359.326 298.827 356.521 300.488 353.659 301.483L354.644 304.317ZM361.872 298.527L371.072 310.227L373.431 308.373L364.231 296.673L361.872 298.527ZM371.348 308.103C367.704 310.852 363.434 312.976 358.517 314.464L359.386 317.336C364.603 315.757 369.199 313.482 373.155 310.497L371.348 308.103ZM358.512 314.466C353.648 315.958 348.796 316.7 343.952 316.7V319.7C349.107 319.7 354.255 318.909 359.391 317.334L358.512 314.466ZM358.952 307.2V280.9H355.952V307.2H358.952ZM357.452 282.4H372.252V279.4H357.452V282.4ZM370.752 280.9V309.3H373.752V280.9H370.752ZM372.462 307.815L357.662 305.715L357.241 308.685L372.041 310.785L372.462 307.815ZM387.3 317H385.8V318.5H387.3V317ZM387.3 247V245.5H385.8V247H387.3ZM403.5 247H405V245.5H403.5V247ZM403.5 317V318.5H405V317H403.5ZM388.8 317V247H385.8V317H388.8ZM387.3 248.5H403.5V245.5H387.3V248.5ZM402 247V317H405V247H402ZM403.5 315.5H387.3V318.5H403.5V315.5ZM415.613 317H414.113V318.5H415.613V317ZM415.613 306.5L414.458 305.542L414.113 305.959V306.5H415.613ZM458.913 254.3L460.333 253.818L459.471 251.277L457.758 253.342L458.913 254.3ZM460.913 260.2V261.7H463.005L462.333 259.718L460.913 260.2ZM416.413 260.2H414.913V261.7H416.413V260.2ZM416.413 247V245.5H414.913V247H416.413ZM475.313 247H476.813V245.5H475.313V247ZM475.313 257.5L476.468 258.456L476.813 258.04V257.5H475.313ZM432.113 309.7L430.692 310.182L431.555 312.727L433.268 310.656L432.113 309.7ZM430.113 303.8V302.3H428.02L428.692 304.282L430.113 303.8ZM476.813 303.8H478.313V302.3H476.813V303.8ZM476.813 317V318.5H478.313V317H476.813ZM417.113 317V306.5H414.113V317H417.113ZM416.767 307.458L460.067 255.258L457.758 253.342L414.458 305.542L416.767 307.458ZM457.492 254.782L459.492 260.682L462.333 259.718L460.333 253.818L457.492 254.782ZM460.913 258.7H416.413V261.7H460.913V258.7ZM417.913 260.2V247H414.913V260.2H417.913ZM416.413 248.5H475.313V245.5H416.413V248.5ZM473.813 247V257.5H476.813V247H473.813ZM474.157 256.544L430.957 308.744L433.268 310.656L476.468 258.456L474.157 256.544ZM433.533 309.218L431.533 303.318L428.692 304.282L430.692 310.182L433.533 309.218ZM430.113 305.3H476.813V302.3H430.113V305.3ZM475.313 303.8V317H478.313V303.8H475.313ZM476.813 315.5H415.613V318.5H476.813V315.5ZM487.202 317H485.702V318.5H487.202V317ZM487.202 247V245.5H485.702V247H487.202ZM503.402 247H504.902V245.5H503.402V247ZM503.402 317V318.5H504.902V317H503.402ZM488.702 317V247H485.702V317H488.702ZM487.202 248.5H503.402V245.5H487.202V248.5ZM501.902 247V317H504.902V247H501.902ZM503.402 315.5H487.202V318.5H503.402V315.5ZM520.015 317H518.515V318.5H520.015V317ZM520.015 247V245.5H518.515V247H520.015ZM533.415 247L534.575 246.049L534.125 245.5H533.415V247ZM574.715 297.4V298.9H577.883L575.875 296.449L574.715 297.4ZM568.215 297.4H566.715V298.9H568.215V297.4ZM568.215 247V245.5H566.715V247H568.215ZM584.215 247H585.715V245.5H584.215V247ZM584.215 317V318.5H585.715V317H584.215ZM570.915 317L569.756 317.952L570.206 318.5H570.915V317ZM529.515 266.6V265.1H526.342L528.356 267.552L529.515 266.6ZM536.015 266.6H537.515V265.1H536.015V266.6ZM536.015 317V318.5H537.515V317H536.015ZM521.515 317V247H518.515V317H521.515ZM520.015 248.5H533.415V245.5H520.015V248.5ZM532.255 247.951L573.555 298.351L575.875 296.449L534.575 246.049L532.255 247.951ZM574.715 295.9H568.215V298.9H574.715V295.9ZM569.715 297.4V247H566.715V297.4H569.715ZM568.215 248.5H584.215V245.5H568.215V248.5ZM582.715 247V317H585.715V247H582.715ZM584.215 315.5H570.915V318.5H584.215V315.5ZM572.074 316.048L530.674 265.648L528.356 267.552L569.756 317.952L572.074 316.048ZM529.515 268.1H536.015V265.1H529.515V268.1ZM534.515 266.6V317H537.515V266.6H534.515ZM536.015 315.5H520.015V318.5H536.015V315.5ZM619.277 315.6L618.73 316.997L618.742 317.002L618.754 317.006L619.277 315.6ZM607.177 308L606.137 309.082L606.143 309.087L606.148 309.092L607.177 308ZM599.177 296.5L597.796 297.086L597.799 297.095L597.803 297.103L599.177 296.5ZM599.177 267.5L597.803 266.897L597.799 266.905L597.796 266.914L599.177 267.5ZM607.277 256L608.305 257.092L608.305 257.092L607.277 256ZM619.477 248.5L619.999 249.906L620.008 249.903L620.016 249.899L619.477 248.5ZM651.577 248.9L650.997 250.284L651.004 250.286L651.577 248.9ZM664.177 257.9L665.194 259.002L666.261 258.017L665.311 256.919L664.177 257.9ZM653.777 267.5L652.689 268.533L653.707 269.605L654.794 268.602L653.777 267.5ZM645.477 261.6L644.867 262.971L644.88 262.976L644.893 262.982L645.477 261.6ZM619.077 265.8L618.033 264.722L618.025 264.731L618.016 264.739L619.077 265.8ZM614.377 272.9L612.991 272.325L612.985 272.34L612.979 272.355L614.377 272.9ZM614.377 291L612.979 291.545L612.985 291.56L612.991 291.575L614.377 291ZM619.077 298.2L617.999 299.243L618.016 299.261L618.033 299.278L619.077 298.2ZM626.277 302.8L625.731 304.197L625.743 304.202L626.277 302.8ZM644.777 302.9L645.251 304.323L645.26 304.32L645.269 304.317L644.777 302.9ZM653.677 297.6L654.856 296.673L653.887 295.44L652.698 296.463L653.677 297.6ZM662.877 309.3L663.78 310.497L665.002 309.576L664.056 308.373L662.877 309.3ZM649.577 315.9L649.142 314.464L649.137 314.466L649.577 315.9ZM648.077 307.2H646.577V308.502L647.866 308.685L648.077 307.2ZM648.077 280.9V279.4H646.577V280.9H648.077ZM662.877 280.9H664.377V279.4H662.877V280.9ZM662.877 309.3L662.666 310.785L664.377 311.028V309.3H662.877ZM634.577 316.7C629.202 316.7 624.281 315.859 619.799 314.194L618.754 317.006C623.606 318.808 628.885 319.7 634.577 319.7V316.7ZM619.823 314.203C615.395 312.47 611.527 310.038 608.205 306.908L606.148 309.092C609.759 312.495 613.958 315.13 618.73 316.997L619.823 314.203ZM608.216 306.918C604.96 303.79 602.406 300.12 600.55 295.897L597.803 297.103C599.814 301.68 602.593 305.676 606.137 309.082L608.216 306.918ZM600.557 295.914C598.777 291.718 597.877 287.086 597.877 282H594.877C594.877 287.447 595.843 292.482 597.796 297.086L600.557 295.914ZM597.877 282C597.877 276.914 598.777 272.282 600.557 268.086L597.796 266.914C595.843 271.518 594.877 276.553 594.877 282H597.877ZM600.55 268.103C602.403 263.886 604.986 260.219 608.305 257.092L606.248 254.908C602.633 258.314 599.817 262.314 597.803 266.897L600.55 268.103ZM608.305 257.092C611.619 253.969 615.512 251.573 619.999 249.906L618.954 247.094C614.108 248.894 609.867 251.498 606.248 254.908L608.305 257.092ZM620.016 249.899C624.491 248.173 629.439 247.3 634.877 247.3V244.3C629.114 244.3 623.795 245.227 618.937 247.1L620.016 249.899ZM634.877 247.3C640.909 247.3 646.274 248.305 650.997 250.284L652.156 247.516C647.012 245.362 641.244 244.3 634.877 244.3V247.3ZM651.004 250.286C655.796 252.267 659.801 255.132 663.042 258.881L665.311 256.919C661.752 252.801 657.357 249.666 652.15 247.514L651.004 250.286ZM663.159 256.798L652.759 266.398L654.794 268.602L665.194 259.002L663.159 256.798ZM654.864 266.467C652.207 263.67 649.273 261.575 646.06 260.218L644.893 262.982C647.68 264.158 650.28 265.997 652.689 268.533L654.864 266.467ZM646.086 260.229C642.88 258.804 639.404 258.1 635.677 258.1V261.1C639.016 261.1 642.073 261.729 644.867 262.971L646.086 260.229ZM635.677 258.1C632.118 258.1 628.834 258.658 625.843 259.798L626.911 262.602C629.519 261.608 632.435 261.1 635.677 261.1V258.1ZM625.843 259.798C622.861 260.934 620.252 262.575 618.033 264.722L620.12 266.878C622.034 265.025 624.292 263.599 626.911 262.602L625.843 259.798ZM618.016 264.739C615.87 266.885 614.196 269.419 612.991 272.325L615.762 273.475C616.824 270.914 618.283 268.715 620.137 266.861L618.016 264.739ZM612.979 272.355C611.836 275.284 611.277 278.505 611.277 282H614.277C614.277 278.828 614.784 275.983 615.774 273.445L612.979 272.355ZM611.277 282C611.277 285.432 611.837 288.62 612.979 291.545L615.774 290.455C614.782 287.914 614.277 285.101 614.277 282H611.277ZM612.991 291.575C614.194 294.477 615.864 297.037 617.999 299.243L620.154 297.157C618.289 295.23 616.825 292.99 615.762 290.425L612.991 291.575ZM618.033 299.278C620.246 301.419 622.816 303.06 625.731 304.197L626.822 301.403C624.27 300.407 622.04 298.981 620.12 297.122L618.033 299.278ZM625.743 304.202C628.731 305.34 631.981 305.9 635.477 305.9V302.9C632.305 302.9 629.422 302.393 626.811 301.398L625.743 304.202ZM635.477 305.9C638.836 305.9 642.096 305.375 645.251 304.323L644.302 301.477C641.457 302.425 638.517 302.9 635.477 302.9V305.9ZM645.269 304.317C648.541 303.179 651.669 301.307 654.655 298.737L652.698 296.463C649.951 298.827 647.146 300.488 644.284 301.483L645.269 304.317ZM652.497 298.527L661.697 310.227L664.056 308.373L654.856 296.673L652.497 298.527ZM661.973 308.103C658.329 310.852 654.059 312.976 649.142 314.464L650.011 317.336C655.228 315.757 659.824 313.482 663.78 310.497L661.973 308.103ZM649.137 314.466C644.273 315.958 639.421 316.7 634.577 316.7V319.7C639.732 319.7 644.88 318.909 650.016 317.334L649.137 314.466ZM649.577 307.2V280.9H646.577V307.2H649.577ZM648.077 282.4H662.877V279.4H648.077V282.4ZM661.377 280.9V309.3H664.377V280.9H661.377ZM663.087 307.815L648.287 305.715L647.866 308.685L662.666 310.785L663.087 307.815ZM122.124 400.5V399H120.624V400.5H122.124ZM155.724 400.5H157.224V399H155.724V400.5ZM155.724 413.5V415H157.224V413.5H155.724ZM122.124 413.5H120.624V415H122.124V413.5ZM123.324 439V440.5H124.824V439H123.324ZM107.124 439H105.624V440.5H107.124V439ZM107.124 369V367.5H105.624V369H107.124ZM160.024 369H161.524V367.5H160.024V369ZM160.024 382V383.5H161.524V382H160.024ZM123.324 382V380.5H121.824V382H123.324ZM122.124 402H155.724V399H122.124V402ZM154.224 400.5V413.5H157.224V400.5H154.224ZM155.724 412H122.124V415H155.724V412ZM123.624 413.5V400.5H120.624V413.5H123.624ZM123.324 437.5H107.124V440.5H123.324V437.5ZM108.624 439V369H105.624V439H108.624ZM107.124 370.5H160.024V367.5H107.124V370.5ZM158.524 369V382H161.524V369H158.524ZM160.024 380.5H123.324V383.5H160.024V380.5ZM121.824 382V439H124.824V382H121.824ZM178.791 431.9L179.846 430.833L179.846 430.833L178.791 431.9ZM170.391 369V367.5H168.891V369H170.391ZM186.591 369H188.091V367.5H186.591V369ZM190.691 422L189.594 423.023L189.594 423.023L190.691 422ZM213.691 422L214.789 423.023L214.789 423.023L213.691 422ZM217.791 369V367.5H216.291V369H217.791ZM233.791 369H235.291V367.5H233.791V369ZM225.391 431.9L226.446 432.967L226.446 432.967L225.391 431.9ZM202.091 438.7C192.444 438.7 185.096 436.021 179.846 430.833L177.737 432.967C183.687 438.846 191.872 441.7 202.091 441.7V438.7ZM179.846 430.833C174.61 425.66 171.891 418.193 171.891 408.2H168.891C168.891 418.74 171.773 427.074 177.737 432.967L179.846 430.833ZM171.891 408.2V369H168.891V408.2H171.891ZM170.391 370.5H186.591V367.5H170.391V370.5ZM185.091 369V407.6H188.091V369H185.091ZM185.091 407.6C185.091 414.411 186.477 419.677 189.594 423.023L191.789 420.977C189.439 418.456 188.091 414.123 188.091 407.6H185.091ZM189.594 423.023C192.674 426.328 196.945 427.9 202.191 427.9V424.9C197.571 424.9 194.175 423.538 191.789 420.977L189.594 423.023ZM202.191 427.9C207.438 427.9 211.708 426.328 214.789 423.023L212.594 420.977C210.208 423.538 206.812 424.9 202.191 424.9V427.9ZM214.789 423.023C217.906 419.677 219.291 414.411 219.291 407.6H216.291C216.291 414.123 214.943 418.456 212.594 420.977L214.789 423.023ZM219.291 407.6V369H216.291V407.6H219.291ZM217.791 370.5H233.791V367.5H217.791V370.5ZM232.291 369V408.2H235.291V369H232.291ZM232.291 408.2C232.291 418.193 229.573 425.66 224.337 430.833L226.446 432.967C232.41 427.074 235.291 418.74 235.291 408.2H232.291ZM224.337 430.833C219.087 436.021 211.739 438.7 202.091 438.7V441.7C212.311 441.7 220.496 438.846 226.446 432.967L224.337 430.833ZM263.128 439H261.628V440.5H263.128V439ZM263.128 382.2H264.628V380.7H263.128V382.2ZM240.728 382.2H239.228V383.7H240.728V382.2ZM240.728 369V367.5H239.228V369H240.728ZM301.728 369H303.228V367.5H301.728V369ZM301.728 382.2V383.7H303.228V382.2H301.728ZM279.328 382.2V380.7H277.828V382.2H279.328ZM279.328 439V440.5H280.828V439H279.328ZM264.628 439V382.2H261.628V439H264.628ZM263.128 380.7H240.728V383.7H263.128V380.7ZM242.228 382.2V369H239.228V382.2H242.228ZM240.728 370.5H301.728V367.5H240.728V370.5ZM300.228 369V382.2H303.228V369H300.228ZM301.728 380.7H279.328V383.7H301.728V380.7ZM277.828 382.2V439H280.828V382.2H277.828ZM279.328 437.5H263.128V440.5H279.328V437.5ZM317.073 431.9L318.127 430.833L318.127 430.833L317.073 431.9ZM308.673 369V367.5H307.173V369H308.673ZM324.873 369H326.373V367.5H324.873V369ZM328.973 422L327.875 423.023L327.875 423.023L328.973 422ZM351.973 422L353.07 423.023L353.07 423.023L351.973 422ZM356.073 369V367.5H354.573V369H356.073ZM372.073 369H373.573V367.5H372.073V369ZM363.673 431.9L364.727 432.967L364.727 432.967L363.673 431.9ZM340.373 438.7C330.725 438.7 323.377 436.021 318.127 430.833L316.018 432.967C321.968 438.846 330.153 441.7 340.373 441.7V438.7ZM318.127 430.833C312.891 425.66 310.173 418.193 310.173 408.2H307.173C307.173 418.74 310.054 427.074 316.018 432.967L318.127 430.833ZM310.173 408.2V369H307.173V408.2H310.173ZM308.673 370.5H324.873V367.5H308.673V370.5ZM323.373 369V407.6H326.373V369H323.373ZM323.373 407.6C323.373 414.411 324.758 419.677 327.875 423.023L330.07 420.977C327.721 418.456 326.373 414.123 326.373 407.6H323.373ZM327.875 423.023C330.956 426.328 335.226 427.9 340.473 427.9V424.9C335.853 424.9 332.456 423.538 330.07 420.977L327.875 423.023ZM340.473 427.9C345.719 427.9 349.99 426.328 353.07 423.023L350.875 420.977C348.489 423.538 345.093 424.9 340.473 424.9V427.9ZM353.07 423.023C356.187 419.677 357.573 414.411 357.573 407.6H354.573C354.573 414.123 353.225 418.456 350.875 420.977L353.07 423.023ZM357.573 407.6V369H354.573V407.6H357.573ZM356.073 370.5H372.073V367.5H356.073V370.5ZM370.573 369V408.2H373.573V369H370.573ZM370.573 408.2C370.573 418.193 367.854 425.66 362.618 430.833L364.727 432.967C370.691 427.074 373.573 418.74 373.573 408.2H370.573ZM362.618 430.833C357.368 436.021 350.02 438.7 340.373 438.7V441.7C350.592 441.7 358.777 438.846 364.727 432.967L362.618 430.833ZM388.081 439H386.581V440.5H388.081V439ZM388.081 369V367.5H386.581V369H388.081ZM434.581 372.1L433.959 373.465L433.967 373.469L433.976 373.472L434.581 372.1ZM445.081 380.8L443.823 381.617L443.823 381.617L445.081 380.8ZM445.081 407.9L446.333 408.727L446.339 408.717L445.081 407.9ZM434.581 416.5L435.187 417.872L435.187 417.872L434.581 416.5ZM397.081 419.5L396.028 418.432L393.424 421H397.081V419.5ZM404.281 412.4H405.781V408.814L403.228 411.332L404.281 412.4ZM404.281 439V440.5H405.781V439H404.281ZM432.581 439L431.346 439.851L431.793 440.5H432.581V439ZM415.081 413.6V412.1H412.226L413.846 414.451L415.081 413.6ZM432.381 413.6L433.612 412.742L433.164 412.1H432.381V413.6ZM450.081 439V440.5H452.955L451.312 438.142L450.081 439ZM404.281 414.2L403.192 415.232L405.781 417.964V414.2H404.281ZM397.081 406.6V405.1H393.594L395.992 407.632L397.081 406.6ZM428.681 403.4L429.662 404.535L429.671 404.527L429.68 404.519L428.681 403.4ZM397.081 382.2L395.986 381.176L393.625 383.7H397.081V382.2ZM404.281 374.5H405.781V370.7L403.186 373.476L404.281 374.5ZM389.581 439V369H386.581V439H389.581ZM388.081 370.5H418.381V367.5H388.081V370.5ZM418.381 370.5C424.487 370.5 429.665 371.507 433.959 373.465L435.203 370.735C430.431 368.56 424.809 367.5 418.381 367.5V370.5ZM433.976 373.472C438.268 375.366 441.53 378.084 443.823 381.617L446.339 379.983C443.699 375.916 439.961 372.834 435.187 370.728L433.976 373.472ZM443.823 381.617C446.108 385.136 447.281 389.375 447.281 394.4H450.281C450.281 388.892 448.988 384.064 446.339 379.983L443.823 381.617ZM447.281 394.4C447.281 399.354 446.11 403.561 443.823 407.083L446.339 408.717C448.986 404.639 450.281 399.846 450.281 394.4H447.281ZM443.83 407.073C441.538 410.541 438.275 413.231 433.976 415.128L435.187 417.872C439.954 415.769 443.691 412.726 446.333 408.727L443.83 407.073ZM433.976 415.128C429.677 417.024 424.493 418 418.381 418V421C424.803 421 430.419 419.976 435.187 417.872L433.976 415.128ZM418.381 418H397.081V421H418.381V418ZM398.134 420.568L405.334 413.468L403.228 411.332L396.028 418.432L398.134 420.568ZM402.781 412.4V439H405.781V412.4H402.781ZM404.281 437.5H388.081V440.5H404.281V437.5ZM433.816 438.149L416.316 412.749L413.846 414.451L431.346 439.851L433.816 438.149ZM415.081 415.1H432.381V412.1H415.081V415.1ZM431.151 414.458L448.851 439.858L451.312 438.142L433.612 412.742L431.151 414.458ZM450.081 437.5H432.581V440.5H450.081V437.5ZM405.37 413.168L398.17 405.568L395.992 407.632L403.192 415.232L405.37 413.168ZM397.081 408.1H417.481V405.1H397.081V408.1ZM417.481 408.1C422.657 408.1 426.81 407.001 429.662 404.535L427.7 402.265C425.619 404.065 422.305 405.1 417.481 405.1V408.1ZM429.68 404.519C432.515 401.991 433.881 398.557 433.881 394.4H430.881C430.881 397.843 429.781 400.409 427.683 402.281L429.68 404.519ZM433.881 394.4C433.881 390.187 432.52 386.737 429.662 384.265L427.7 386.535C429.775 388.329 430.881 390.88 430.881 394.4H433.881ZM429.662 384.265C426.81 381.799 422.657 380.7 417.481 380.7V383.7C422.305 383.7 425.619 384.735 427.7 386.535L429.662 384.265ZM417.481 380.7H397.081V383.7H417.481V380.7ZM398.177 383.224L405.377 375.524L403.186 373.476L395.986 381.176L398.177 383.224ZM402.781 374.5V414.2H405.781V374.5H402.781ZM476.516 397.2V395.7H475.016V397.2H476.516ZM510.216 397.2H511.716V395.7H510.216V397.2ZM510.216 409.8V411.3H511.716V409.8H510.216ZM476.516 409.8H475.016V411.3H476.516V409.8ZM477.716 426H476.216V427.5H477.716V426ZM515.816 426H517.316V424.5H515.816V426ZM515.816 439V440.5H517.316V439H515.816ZM461.616 439H460.116V440.5H461.616V439ZM461.616 369V367.5H460.116V369H461.616ZM514.516 369H516.016V367.5H514.516V369ZM514.516 382V383.5H516.016V382H514.516ZM477.716 382V380.5H476.216V382H477.716ZM476.516 398.7H510.216V395.7H476.516V398.7ZM508.716 397.2V409.8H511.716V397.2H508.716ZM510.216 408.3H476.516V411.3H510.216V408.3ZM478.016 409.8V397.2H475.016V409.8H478.016ZM477.716 427.5H515.816V424.5H477.716V427.5ZM514.316 426V439H517.316V426H514.316ZM515.816 437.5H461.616V440.5H515.816V437.5ZM463.116 439V369H460.116V439H463.116ZM461.616 370.5H514.516V367.5H461.616V370.5ZM513.016 369V382H516.016V369H513.016ZM514.516 380.5H477.716V383.5H514.516V380.5ZM476.216 382V426H479.216V382H476.216ZM535.606 438L535.177 439.437L535.186 439.44L535.194 439.442L535.606 438ZM523.206 432.1L521.839 431.484L521.35 432.568L522.294 433.291L523.206 432.1ZM528.706 419.9L529.576 418.678L528.089 417.62L527.339 419.284L528.706 419.9ZM539.306 425.2L538.818 426.618L538.832 426.623L538.846 426.628L539.306 425.2ZM559.506 426.3L559.951 427.733L559.966 427.728L559.981 427.723L559.506 426.3ZM563.906 423.6L562.748 422.646L562.748 422.646L563.906 423.6ZM563.106 415.3L562.189 416.487L562.206 416.5L562.224 416.513L563.106 415.3ZM557.306 412.6L556.868 414.035L556.886 414.04L556.905 414.045L557.306 412.6ZM549.306 410.6L548.966 412.061L548.986 412.066L549.006 412.07L549.306 410.6ZM540.606 408.2L540.142 409.626L540.151 409.629L540.606 408.2ZM532.706 404.6L531.924 405.88L531.924 405.88L532.706 404.6ZM526.806 398.8L525.526 399.582L525.534 399.595L525.542 399.608L526.806 398.8ZM527.806 378.7L526.554 377.874L526.55 377.88L527.806 378.7ZM537.606 370.8L538.217 372.17L538.227 372.166L537.606 370.8ZM567.106 369.4L566.742 370.855L566.753 370.858L566.764 370.86L567.106 369.4ZM578.406 374L579.796 374.565L580.268 373.403L579.208 372.732L578.406 374ZM573.406 386.3L572.662 387.602L574.15 388.453L574.796 386.865L573.406 386.3ZM563.606 382.2L563.194 383.642L563.208 383.646L563.222 383.65L563.606 382.2ZM546.306 381.9L545.79 380.492L545.79 380.492L546.306 381.9ZM542.006 384.8L543.198 385.711L543.21 385.695L543.222 385.678L542.006 384.8ZM542.906 393.2L541.989 394.387L542.006 394.4L542.024 394.413L542.906 393.2ZM548.706 395.8L548.305 397.245L548.305 397.245L548.706 395.8ZM556.606 397.8L556.266 399.261L556.274 399.263L556.606 397.8ZM565.306 400.1L564.872 401.536L564.881 401.539L565.306 400.1ZM573.306 403.6L574.088 402.32L574.088 402.32L573.306 403.6ZM579.106 409.4L577.826 410.182L577.834 410.195L577.842 410.208L579.106 409.4ZM578.106 429.3L579.35 430.138L579.35 430.138L578.106 429.3ZM568.206 437.2L567.586 435.834L567.578 435.838L568.206 437.2ZM551.706 438.7C546.239 438.7 541.011 437.984 536.018 436.558L535.194 439.442C540.468 440.949 545.974 441.7 551.706 441.7V438.7ZM536.036 436.563C531.018 435.064 527.066 433.167 524.118 430.909L522.294 433.291C525.614 435.833 529.927 437.869 535.177 439.437L536.036 436.563ZM524.574 432.716L530.074 420.516L527.339 419.284L521.839 431.484L524.574 432.716ZM527.837 421.122C530.972 423.352 534.638 425.179 538.818 426.618L539.795 423.782C535.841 422.421 532.441 420.715 529.576 418.678L527.837 421.122ZM538.846 426.628C543.123 428.007 547.445 428.7 551.806 428.7V425.7C547.768 425.7 543.756 425.059 539.767 423.772L538.846 426.628ZM551.806 428.7C555.08 428.7 557.815 428.395 559.951 427.733L559.062 424.867C557.331 425.405 554.932 425.7 551.806 425.7V428.7ZM559.981 427.723C562.137 427.004 563.89 425.98 565.064 424.554L562.748 422.646C562.056 423.487 560.875 424.263 559.032 424.877L559.981 427.723ZM565.064 424.554C566.218 423.152 566.806 421.515 566.806 419.7H563.806C563.806 420.818 563.461 421.781 562.748 422.646L565.064 424.554ZM566.806 419.7C566.806 417.37 565.857 415.445 563.989 414.087L562.224 416.513C563.289 417.288 563.806 418.297 563.806 419.7H566.806ZM564.023 414.113C562.36 412.828 560.234 411.857 557.708 411.155L556.905 414.045C559.178 414.677 560.919 415.505 562.189 416.487L564.023 414.113ZM557.745 411.165C555.292 410.416 552.578 409.738 549.607 409.13L549.006 412.07C551.901 412.662 554.521 413.317 556.868 414.035L557.745 411.165ZM549.646 409.139C546.82 408.482 543.958 407.692 541.061 406.771L540.151 409.629C543.121 410.574 546.059 411.385 548.966 412.061L549.646 409.139ZM541.071 406.774C538.307 405.874 535.782 404.722 533.488 403.32L531.924 405.88C534.431 407.412 537.172 408.659 540.142 409.626L541.071 406.774ZM533.488 403.32C531.285 401.974 529.483 400.203 528.07 397.992L525.542 399.608C527.197 402.197 529.327 404.293 531.924 405.88L533.488 403.32ZM528.086 398.018C526.803 395.919 526.106 393.145 526.106 389.6H523.106C523.106 393.521 523.876 396.881 525.526 399.582L528.086 398.018ZM526.106 389.6C526.106 385.884 527.092 382.537 529.062 379.52L526.55 377.88C524.254 381.397 523.106 385.316 523.106 389.6H526.106ZM529.058 379.526C531.073 376.473 534.095 374.009 538.217 372.17L536.995 369.43C532.45 371.458 528.939 374.26 526.554 377.874L529.058 379.526ZM538.227 372.166C542.375 370.28 547.647 369.3 554.106 369.3V366.3C547.366 366.3 541.638 367.32 536.986 369.434L538.227 372.166ZM554.106 369.3C558.384 369.3 562.595 369.818 566.742 370.855L567.47 367.945C563.084 366.848 558.629 366.3 554.106 366.3V369.3ZM566.764 370.86C570.889 371.827 574.497 373.301 577.604 375.268L579.208 372.732C575.783 370.565 571.857 368.973 567.449 367.94L566.764 370.86ZM577.017 373.435L572.017 385.735L574.796 386.865L579.796 374.565L577.017 373.435ZM574.15 384.998C570.783 383.074 567.397 381.654 563.991 380.75L563.222 383.65C566.349 384.48 569.496 385.793 572.662 387.602L574.15 384.998ZM564.018 380.758C560.629 379.789 557.29 379.3 554.006 379.3V382.3C556.989 382.3 560.05 382.744 563.194 383.642L564.018 380.758ZM554.006 379.3C550.772 379.3 548.014 379.676 545.79 380.492L546.823 383.308C548.599 382.657 550.974 382.3 554.006 382.3V379.3ZM545.79 380.492C543.627 381.285 541.893 382.394 540.79 383.922L543.222 385.678C543.853 384.806 544.986 383.982 546.823 383.308L545.79 380.492ZM540.815 383.889C539.733 385.304 539.206 386.964 539.206 388.8H542.206C542.206 387.57 542.547 386.563 543.198 385.711L540.815 383.889ZM539.206 388.8C539.206 391.08 540.168 392.979 541.989 394.387L543.823 392.013C542.712 391.154 542.206 390.12 542.206 388.8H539.206ZM542.024 394.413C543.679 395.617 545.792 396.547 548.305 397.245L549.108 394.355C546.82 393.719 545.067 392.917 543.789 391.987L542.024 394.413ZM548.305 397.245C550.729 397.919 553.383 398.59 556.266 399.261L556.946 396.339C554.096 395.676 551.484 395.015 549.108 394.355L548.305 397.245ZM556.274 399.263C559.173 399.922 562.039 400.679 564.872 401.536L565.74 398.664C562.84 397.787 559.906 397.012 556.939 396.337L556.274 399.263ZM564.881 401.539C567.7 402.371 570.245 403.487 572.524 404.88L574.088 402.32C571.568 400.78 568.779 399.562 565.731 398.661L564.881 401.539ZM572.524 404.88C574.721 406.223 576.484 407.985 577.826 410.182L580.386 408.618C578.795 406.015 576.691 403.911 574.088 402.32L572.524 404.88ZM577.842 410.208C579.183 412.306 579.906 415.038 579.906 418.5H582.906C582.906 414.628 582.096 411.294 580.37 408.592L577.842 410.208ZM579.906 418.5C579.906 422.134 578.896 425.443 576.862 428.462L579.35 430.138C581.717 426.624 582.906 422.732 582.906 418.5H579.906ZM576.862 428.462C574.849 431.451 571.79 433.923 567.586 435.834L568.827 438.566C573.422 436.477 576.964 433.682 579.35 430.138L576.862 428.462ZM567.578 435.838C563.503 437.719 558.236 438.7 551.706 438.7V441.7C558.509 441.7 564.242 440.681 568.835 438.562L567.578 435.838Z" fill="black" mask="url(#path-1-outside-1_349_206)"/>
</svg>
