<svg width="680" height="442" viewBox="0 0 680 442" fill="none" xmlns="http://www.w3.org/2000/svg">
<mask id="path-1-outside-1_26_112" maskUnits="userSpaceOnUse" x="0" y="0" width="680" height="442" fill="black">
<rect fill="white" width="680" height="442"/>
<path d="M10.3 73V3H40.6C46.8667 3 52.2667 4.03333 56.8 6.1C61.3333 8.1 64.8333 11 67.3 14.8C69.7667 18.6 71 23.1333 71 28.4C71 33.6 69.7667 38.1 67.3 41.9C64.8333 45.6333 61.3333 48.5 56.8 50.5C52.2667 52.5 46.8667 53.5 40.6 53.5H19.3L26.5 46.4V73H10.3ZM54.8 73L37.3 47.6H54.6L72.3 73H54.8ZM26.5 48.2L19.3 40.6H39.7C44.7 40.6 48.4333 39.5333 50.9 37.4C53.3667 35.2 54.6 32.2 54.6 28.4C54.6 24.5333 53.3667 21.5333 50.9 19.4C48.4333 17.2667 44.7 16.2 39.7 16.2H19.3L26.5 8.5V48.2ZM98.7352 31.2H132.435V43.8H98.7352V31.2ZM99.9352 60H138.035V73H83.8352V3H136.735V16H99.9352V60ZM165.925 34.5H199.525V47.5H165.925V34.5ZM167.125 73H150.925V3H203.825V16H167.125V73ZM214.792 73V3H245.092C251.359 3 256.759 4.03333 261.292 6.1C265.826 8.1 269.326 11 271.792 14.8C274.259 18.6 275.492 23.1333 275.492 28.4C275.492 33.6 274.259 38.1 271.792 41.9C269.326 45.6333 265.826 48.5 261.292 50.5C256.759 52.5 251.359 53.5 245.092 53.5H223.792L230.992 46.4V73H214.792ZM259.292 73L241.792 47.6H259.092L276.792 73H259.292ZM230.992 48.2L223.792 40.6H244.192C249.192 40.6 252.926 39.5333 255.392 37.4C257.859 35.2 259.092 32.2 259.092 28.4C259.092 24.5333 257.859 21.5333 255.392 19.4C252.926 17.2667 249.192 16.2 244.192 16.2H223.792L230.992 8.5V48.2ZM303.227 31.2H336.927V43.8H303.227V31.2ZM304.427 60H342.527V73H288.327V3H341.227V16H304.427V60ZM378.417 74.2C372.817 74.2 367.451 73.4667 362.317 72C357.184 70.4667 353.051 68.5 349.917 66.1L355.417 53.9C358.417 56.0333 361.951 57.8 366.017 59.2C370.151 60.5333 374.317 61.2 378.517 61.2C381.717 61.2 384.284 60.9 386.217 60.3C388.217 59.6333 389.684 58.7333 390.617 57.6C391.551 56.4667 392.017 55.1667 392.017 53.7C392.017 51.8333 391.284 50.3667 389.817 49.3C388.351 48.1667 386.417 47.2667 384.017 46.6C381.617 45.8667 378.951 45.2 376.017 44.6C373.151 43.9333 370.251 43.1333 367.317 42.2C364.451 41.2667 361.817 40.0667 359.417 38.6C357.017 37.1333 355.051 35.2 353.517 32.8C352.051 30.4 351.317 27.3333 351.317 23.6C351.317 19.6 352.384 15.9667 354.517 12.7C356.717 9.36666 359.984 6.73333 364.317 4.8C368.717 2.8 374.217 1.8 380.817 1.8C385.217 1.8 389.551 2.33333 393.817 3.4C398.084 4.4 401.851 5.93333 405.117 8L400.117 20.3C396.851 18.4333 393.584 17.0667 390.317 16.2C387.051 15.2667 383.851 14.8 380.717 14.8C377.584 14.8 375.017 15.1667 373.017 15.9C371.017 16.6333 369.584 17.6 368.717 18.8C367.851 19.9333 367.417 21.2667 367.417 22.8C367.417 24.6 368.151 26.0667 369.617 27.2C371.084 28.2667 373.017 29.1333 375.417 29.8C377.817 30.4667 380.451 31.1333 383.317 31.8C386.251 32.4667 389.151 33.2333 392.017 34.1C394.951 34.9667 397.617 36.1333 400.017 37.6C402.417 39.0667 404.351 41 405.817 43.4C407.351 45.8 408.117 48.8333 408.117 52.5C408.117 56.4333 407.017 60.0333 404.817 63.3C402.617 66.5667 399.317 69.2 394.917 71.2C390.584 73.2 385.084 74.2 378.417 74.2ZM467.187 3H483.387V73H467.187V3ZM435.387 73H419.187V3H435.387V73ZM468.387 44.3H434.187V30.6H468.387V44.3ZM499.948 73V3H516.148V73H499.948ZM532.761 73V3H546.161L587.461 53.4H580.961V3H596.961V73H583.661L542.261 22.6H548.761V73H532.761ZM647.323 74.2C641.789 74.2 636.689 73.3333 632.023 71.6C627.423 69.8 623.389 67.2667 619.923 64C616.523 60.7333 613.856 56.9 611.923 52.5C610.056 48.1 609.123 43.2667 609.123 38C609.123 32.7333 610.056 27.9 611.923 23.5C613.856 19.1 616.556 15.2667 620.023 12C623.489 8.73333 627.556 6.23333 632.223 4.49999C636.889 2.7 642.023 1.8 647.623 1.8C653.823 1.8 659.389 2.83333 664.323 4.89999C669.323 6.96666 673.523 9.96666 676.923 13.9L666.523 23.5C663.989 20.8333 661.223 18.8667 658.223 17.6C655.223 16.2667 651.956 15.6 648.423 15.6C645.023 15.6 641.923 16.1333 639.123 17.2C636.323 18.2667 633.889 19.8 631.823 21.8C629.823 23.8 628.256 26.1667 627.123 28.9C626.056 31.6333 625.523 34.6667 625.523 38C625.523 41.2667 626.056 44.2667 627.123 47C628.256 49.7333 629.823 52.1333 631.823 54.2C633.889 56.2 636.289 57.7333 639.023 58.8C641.823 59.8667 644.889 60.4 648.223 60.4C651.423 60.4 654.523 59.9 657.523 58.9C660.589 57.8333 663.556 56.0667 666.423 53.6L675.623 65.3C671.823 68.1667 667.389 70.3667 662.323 71.9C657.323 73.4333 652.323 74.2 647.323 74.2ZM660.823 63.2V36.9H675.623V65.3L660.823 63.2ZM24.8 195V138.2H2.4V125H63.4V138.2H41V195H24.8ZM72.1164 195V125H102.416C108.683 125 114.083 126.033 118.616 128.1C123.15 130.1 126.65 133 129.116 136.8C131.583 140.6 132.816 145.133 132.816 150.4C132.816 155.6 131.583 160.1 129.116 163.9C126.65 167.633 123.15 170.5 118.616 172.5C114.083 174.5 108.683 175.5 102.416 175.5H81.1164L88.3164 168.4V195H72.1164ZM116.616 195L99.1164 169.6H116.416L134.116 195H116.616ZM88.3164 170.2L81.1164 162.6H101.516C106.516 162.6 110.25 161.533 112.716 159.4C115.183 157.2 116.416 154.2 116.416 150.4C116.416 146.533 115.183 143.533 112.716 141.4C110.25 139.267 106.516 138.2 101.516 138.2H81.1164L88.3164 130.5V170.2ZM136.452 195L167.652 125H183.652L214.952 195H197.952L172.352 133.2H178.752L153.052 195H136.452ZM152.052 180L156.352 167.7H192.352L196.752 180H152.052ZM222.214 195V125H254.014C261.614 125 268.314 126.467 274.114 129.4C279.914 132.267 284.447 136.3 287.714 141.5C290.981 146.7 292.614 152.867 292.614 160C292.614 167.067 290.981 173.233 287.714 178.5C284.447 183.7 279.914 187.767 274.114 190.7C268.314 193.567 261.614 195 254.014 195H222.214ZM238.414 181.7H253.214C257.881 181.7 261.914 180.833 265.314 179.1C268.781 177.3 271.447 174.767 273.314 171.5C275.247 168.233 276.214 164.4 276.214 160C276.214 155.533 275.247 151.7 273.314 148.5C271.447 145.233 268.781 142.733 265.314 141C261.914 139.2 257.881 138.3 253.214 138.3H238.414V181.7ZM304.831 195V125H321.031V195H304.831ZM352.144 195V138.2H329.744V125H390.744V138.2H368.344V195H352.144ZM399.46 195V125H415.66V195H399.46ZM466.273 196.2C460.739 196.2 455.606 195.3 450.873 193.5C446.206 191.7 442.139 189.167 438.673 185.9C435.273 182.633 432.606 178.8 430.673 174.4C428.806 170 427.873 165.2 427.873 160C427.873 154.8 428.806 150 430.673 145.6C432.606 141.2 435.306 137.367 438.773 134.1C442.239 130.833 446.306 128.3 450.973 126.5C455.639 124.7 460.706 123.8 466.173 123.8C471.706 123.8 476.773 124.7 481.373 126.5C486.039 128.3 490.073 130.833 493.473 134.1C496.939 137.367 499.639 141.2 501.573 145.6C503.506 149.933 504.473 154.733 504.473 160C504.473 165.2 503.506 170.033 501.573 174.5C499.639 178.9 496.939 182.733 493.473 186C490.073 189.2 486.039 191.7 481.373 193.5C476.773 195.3 471.739 196.2 466.273 196.2ZM466.173 182.4C469.306 182.4 472.173 181.867 474.773 180.8C477.439 179.733 479.773 178.2 481.773 176.2C483.773 174.2 485.306 171.833 486.373 169.1C487.506 166.367 488.073 163.333 488.073 160C488.073 156.667 487.506 153.633 486.373 150.9C485.306 148.167 483.773 145.8 481.773 143.8C479.839 141.8 477.539 140.267 474.873 139.2C472.206 138.133 469.306 137.6 466.173 137.6C463.039 137.6 460.139 138.133 457.473 139.2C454.873 140.267 452.573 141.8 450.573 143.8C448.573 145.8 447.006 148.167 445.873 150.9C444.806 153.633 444.273 156.667 444.273 160C444.273 163.267 444.806 166.3 445.873 169.1C447.006 171.833 448.539 174.2 450.473 176.2C452.473 178.2 454.806 179.733 457.473 180.8C460.139 181.867 463.039 182.4 466.173 182.4ZM516.648 195V125H530.048L571.348 175.4H564.848V125H580.848V195H567.548L526.148 144.6H532.648V195H516.648ZM620.409 196.2C614.809 196.2 609.443 195.467 604.309 194C599.176 192.467 595.043 190.5 591.909 188.1L597.409 175.9C600.409 178.033 603.943 179.8 608.009 181.2C612.143 182.533 616.309 183.2 620.509 183.2C623.709 183.2 626.276 182.9 628.209 182.3C630.209 181.633 631.676 180.733 632.609 179.6C633.543 178.467 634.009 177.167 634.009 175.7C634.009 173.833 633.276 172.367 631.809 171.3C630.343 170.167 628.409 169.267 626.009 168.6C623.609 167.867 620.943 167.2 618.009 166.6C615.143 165.933 612.243 165.133 609.309 164.2C606.443 163.267 603.809 162.067 601.409 160.6C599.009 159.133 597.043 157.2 595.509 154.8C594.043 152.4 593.309 149.333 593.309 145.6C593.309 141.6 594.376 137.967 596.509 134.7C598.709 131.367 601.976 128.733 606.309 126.8C610.709 124.8 616.209 123.8 622.809 123.8C627.209 123.8 631.543 124.333 635.809 125.4C640.076 126.4 643.843 127.933 647.109 130L642.109 142.3C638.843 140.433 635.576 139.067 632.309 138.2C629.043 137.267 625.843 136.8 622.709 136.8C619.576 136.8 617.009 137.167 615.009 137.9C613.009 138.633 611.576 139.6 610.709 140.8C609.843 141.933 609.409 143.267 609.409 144.8C609.409 146.6 610.143 148.067 611.609 149.2C613.076 150.267 615.009 151.133 617.409 151.8C619.809 152.467 622.443 153.133 625.309 153.8C628.243 154.467 631.143 155.233 634.009 156.1C636.943 156.967 639.609 158.133 642.009 159.6C644.409 161.067 646.343 163 647.809 165.4C649.343 167.8 650.109 170.833 650.109 174.5C650.109 178.433 649.009 182.033 646.809 185.3C644.609 188.567 641.309 191.2 636.909 193.2C632.576 195.2 627.076 196.2 620.409 196.2ZM659.332 210.4L665.932 186.4L668.132 195.4C665.265 195.4 662.899 194.567 661.032 192.9C659.232 191.233 658.332 188.933 658.332 186C658.332 183.067 659.265 180.733 661.132 179C662.999 177.267 665.299 176.4 668.032 176.4C670.832 176.4 673.132 177.3 674.932 179.1C676.732 180.833 677.632 183.133 677.632 186C677.632 186.867 677.565 187.733 677.432 188.6C677.299 189.4 677.032 190.4 676.632 191.6C676.299 192.733 675.732 194.2 674.932 196L669.232 210.4H659.332ZM25.2 275.2H58.9V287.8H25.2V275.2ZM26.4 304H64.5V317H10.3V247H63.2V260H26.4V304ZM77.3898 317V247H90.7898L132.09 297.4H125.59V247H141.59V317H128.29L86.8898 266.6H93.3898V317H77.3898ZM173.052 275.2H206.752V287.8H173.052V275.2ZM174.252 304H212.352V317H158.152V247H211.052V260H174.252V304ZM225.241 317V247H255.541C261.808 247 267.208 248.033 271.741 250.1C276.275 252.1 279.775 255 282.241 258.8C284.708 262.6 285.941 267.133 285.941 272.4C285.941 277.6 284.708 282.1 282.241 285.9C279.775 289.633 276.275 292.5 271.741 294.5C267.208 296.5 261.808 297.5 255.541 297.5H234.241L241.441 290.4V317H225.241ZM269.741 317L252.241 291.6H269.541L287.241 317H269.741ZM241.441 292.2L234.241 284.6H254.641C259.641 284.6 263.375 283.533 265.841 281.4C268.308 279.2 269.541 276.2 269.541 272.4C269.541 268.533 268.308 265.533 265.841 263.4C263.375 261.267 259.641 260.2 254.641 260.2H234.241L241.441 252.5V292.2ZM332.577 318.2C327.043 318.2 321.943 317.333 317.277 315.6C312.677 313.8 308.643 311.267 305.177 308C301.777 304.733 299.11 300.9 297.177 296.5C295.31 292.1 294.377 287.267 294.377 282C294.377 276.733 295.31 271.9 297.177 267.5C299.11 263.1 301.81 259.267 305.277 256C308.743 252.733 312.81 250.233 317.477 248.5C322.143 246.7 327.277 245.8 332.877 245.8C339.077 245.8 344.643 246.833 349.577 248.9C354.577 250.967 358.777 253.967 362.177 257.9L351.777 267.5C349.243 264.833 346.477 262.867 343.477 261.6C340.477 260.267 337.21 259.6 333.677 259.6C330.277 259.6 327.177 260.133 324.377 261.2C321.577 262.267 319.143 263.8 317.077 265.8C315.077 267.8 313.51 270.167 312.377 272.9C311.31 275.633 310.777 278.667 310.777 282C310.777 285.267 311.31 288.267 312.377 291C313.51 293.733 315.077 296.133 317.077 298.2C319.143 300.2 321.543 301.733 324.277 302.8C327.077 303.867 330.143 304.4 333.477 304.4C336.677 304.4 339.777 303.9 342.777 302.9C345.843 301.833 348.81 300.067 351.677 297.6L360.877 309.3C357.077 312.167 352.643 314.367 347.577 315.9C342.577 317.433 337.577 318.2 332.577 318.2ZM346.077 307.2V280.9H360.877V309.3L346.077 307.2ZM375.925 317V247H392.125V317H375.925ZM404.238 317V306.5L447.538 254.3L449.538 260.2H405.038V247H463.938V257.5L420.738 309.7L418.738 303.8H465.438V317H404.238ZM475.827 317V247H492.027V317H475.827ZM508.64 317V247H522.04L563.34 297.4H556.84V247H572.84V317H559.54L518.14 266.6H524.64V317H508.64ZM623.202 318.2C617.668 318.2 612.568 317.333 607.902 315.6C603.302 313.8 599.268 311.267 595.802 308C592.402 304.733 589.735 300.9 587.802 296.5C585.935 292.1 585.002 287.267 585.002 282C585.002 276.733 585.935 271.9 587.802 267.5C589.735 263.1 592.435 259.267 595.902 256C599.368 252.733 603.435 250.233 608.102 248.5C612.768 246.7 617.902 245.8 623.502 245.8C629.702 245.8 635.268 246.833 640.202 248.9C645.202 250.967 649.402 253.967 652.802 257.9L642.402 267.5C639.868 264.833 637.102 262.867 634.102 261.6C631.102 260.267 627.835 259.6 624.302 259.6C620.902 259.6 617.802 260.133 615.002 261.2C612.202 262.267 609.768 263.8 607.702 265.8C605.702 267.8 604.135 270.167 603.002 272.9C601.935 275.633 601.402 278.667 601.402 282C601.402 285.267 601.935 288.267 603.002 291C604.135 293.733 605.702 296.133 607.702 298.2C609.768 300.2 612.168 301.733 614.902 302.8C617.702 303.867 620.768 304.4 624.102 304.4C627.302 304.4 630.402 303.9 633.402 302.9C636.468 301.833 639.435 300.067 642.302 297.6L651.502 309.3C647.702 312.167 643.268 314.367 638.202 315.9C633.202 317.433 628.202 318.2 623.202 318.2ZM636.702 307.2V280.9H651.502V309.3L636.702 307.2ZM25.3 400.5H58.9V413.5H25.3V400.5ZM26.5 439H10.3V369H63.2V382H26.5V439ZM105.267 440.2C95.3339 440.2 87.5672 437.433 81.9672 431.9C76.3672 426.367 73.5672 418.467 73.5672 408.2V369H89.7672V407.6C89.7672 414.267 91.1339 419.067 93.8672 422C96.6005 424.933 100.434 426.4 105.367 426.4C110.301 426.4 114.134 424.933 116.867 422C119.601 419.067 120.967 414.267 120.967 407.6V369H136.967V408.2C136.967 418.467 134.167 426.367 128.567 431.9C122.967 437.433 115.201 440.2 105.267 440.2ZM166.304 439V382.2H143.904V369H204.904V382.2H182.504V439H166.304ZM243.548 440.2C233.615 440.2 225.848 437.433 220.248 431.9C214.648 426.367 211.848 418.467 211.848 408.2V369H228.048V407.6C228.048 414.267 229.415 419.067 232.148 422C234.882 424.933 238.715 426.4 243.648 426.4C248.582 426.4 252.415 424.933 255.148 422C257.882 419.067 259.248 414.267 259.248 407.6V369H275.248V408.2C275.248 418.467 272.448 426.367 266.848 431.9C261.248 437.433 253.482 440.2 243.548 440.2ZM291.257 439V369H321.557C327.824 369 333.224 370.033 337.757 372.1C342.29 374.1 345.79 377 348.257 380.8C350.724 384.6 351.957 389.133 351.957 394.4C351.957 399.6 350.724 404.1 348.257 407.9C345.79 411.633 342.29 414.5 337.757 416.5C333.224 418.5 327.824 419.5 321.557 419.5H300.257L307.457 412.4V439H291.257ZM335.757 439L318.257 413.6H335.557L353.257 439H335.757ZM307.457 414.2L300.257 406.6H320.657C325.657 406.6 329.39 405.533 331.857 403.4C334.324 401.2 335.557 398.2 335.557 394.4C335.557 390.533 334.324 387.533 331.857 385.4C329.39 383.267 325.657 382.2 320.657 382.2H300.257L307.457 374.5V414.2ZM379.692 397.2H413.392V409.8H379.692V397.2ZM380.892 426H418.992V439H364.792V369H417.692V382H380.892V426ZM454.882 440.2C449.282 440.2 443.915 439.467 438.782 438C433.649 436.467 429.515 434.5 426.382 432.1L431.882 419.9C434.882 422.033 438.415 423.8 442.482 425.2C446.615 426.533 450.782 427.2 454.982 427.2C458.182 427.2 460.749 426.9 462.682 426.3C464.682 425.633 466.149 424.733 467.082 423.6C468.015 422.467 468.482 421.167 468.482 419.7C468.482 417.833 467.749 416.367 466.282 415.3C464.815 414.167 462.882 413.267 460.482 412.6C458.082 411.867 455.415 411.2 452.482 410.6C449.615 409.933 446.715 409.133 443.782 408.2C440.915 407.267 438.282 406.067 435.882 404.6C433.482 403.133 431.515 401.2 429.982 398.8C428.515 396.4 427.782 393.333 427.782 389.6C427.782 385.6 428.849 381.967 430.982 378.7C433.182 375.367 436.449 372.733 440.782 370.8C445.182 368.8 450.682 367.8 457.282 367.8C461.682 367.8 466.015 368.333 470.282 369.4C474.549 370.4 478.315 371.933 481.582 374L476.582 386.3C473.315 384.433 470.049 383.067 466.782 382.2C463.515 381.267 460.315 380.8 457.182 380.8C454.049 380.8 451.482 381.167 449.482 381.9C447.482 382.633 446.049 383.6 445.182 384.8C444.315 385.933 443.882 387.267 443.882 388.8C443.882 390.6 444.615 392.067 446.082 393.2C447.549 394.267 449.482 395.133 451.882 395.8C454.282 396.467 456.915 397.133 459.782 397.8C462.715 398.467 465.615 399.233 468.482 400.1C471.415 400.967 474.082 402.133 476.482 403.6C478.882 405.067 480.815 407 482.282 409.4C483.815 411.8 484.582 414.833 484.582 418.5C484.582 422.433 483.482 426.033 481.282 429.3C479.082 432.567 475.782 435.2 471.382 437.2C467.049 439.2 461.549 440.2 454.882 440.2Z"/>
</mask>
<path d="M10.3 73H8.8V74.5H10.3V73ZM10.3 3V1.5H8.8V3H10.3ZM56.8 6.1L56.1778 7.46486L56.1861 7.46867L56.1945 7.47237L56.8 6.1ZM67.3 14.8L66.0418 15.6167L66.0418 15.6167L67.3 14.8ZM67.3 41.9L68.5515 42.7269L68.5582 42.7167L67.3 41.9ZM56.8 50.5L57.4055 51.8724L57.4055 51.8724L56.8 50.5ZM19.3 53.5L18.2468 52.4319L15.6426 55H19.3V53.5ZM26.5 46.4H28V42.8142L25.4468 45.3319L26.5 46.4ZM26.5 73V74.5H28V73H26.5ZM54.8 73L53.5648 73.851L54.0119 74.5H54.8V73ZM37.3 47.6V46.1H34.445L36.0648 48.451L37.3 47.6ZM54.6 47.6L55.8307 46.7424L55.383 46.1H54.6V47.6ZM72.3 73V74.5H75.1736L73.5307 72.1424L72.3 73ZM26.5 48.2L25.4111 49.2316L28 51.9644V48.2H26.5ZM19.3 40.6V39.1H15.8127L18.2111 41.6316L19.3 40.6ZM50.9 37.4L51.8812 38.5345L51.8899 38.5271L51.8984 38.5194L50.9 37.4ZM19.3 16.2L18.2044 15.1755L15.8438 17.7H19.3V16.2ZM26.5 8.5H28V4.69962L25.4044 7.47551L26.5 8.5ZM11.8 73V3H8.8V73H11.8ZM10.3 4.5H40.6V1.5H10.3V4.5ZM40.6 4.5C46.7056 4.5 51.8833 5.50709 56.1778 7.46486L57.4222 4.73514C52.65 2.55957 47.0277 1.5 40.6 1.5V4.5ZM56.1945 7.47237C60.4869 9.36607 63.7489 12.0843 66.0418 15.6167L68.5582 13.9833C65.9178 9.91568 62.1797 6.83392 57.4055 4.72762L56.1945 7.47237ZM66.0418 15.6167C68.3264 19.1361 69.5 23.3751 69.5 28.4H72.5C72.5 22.8916 71.207 18.0639 68.5582 13.9833L66.0418 15.6167ZM69.5 28.4C69.5 33.3541 68.3283 37.5609 66.0418 41.0833L68.5582 42.7167C71.205 38.6391 72.5 33.8459 72.5 28.4H69.5ZM66.0485 41.0731C63.7572 44.5411 60.4939 47.2308 56.1945 49.1276L57.4055 51.8724C62.1727 49.7692 65.9095 46.7256 68.5515 42.7269L66.0485 41.0731ZM56.1945 49.1276C51.8953 51.0243 46.7115 52 40.6 52V55C47.0219 55 52.638 53.9757 57.4055 51.8724L56.1945 49.1276ZM40.6 52H19.3V55H40.6V52ZM20.3532 54.5681L27.5532 47.4681L25.4468 45.3319L18.2468 52.4319L20.3532 54.5681ZM25 46.4V73H28V46.4H25ZM26.5 71.5H10.3V74.5H26.5V71.5ZM56.0352 72.149L38.5352 46.749L36.0648 48.451L53.5648 73.851L56.0352 72.149ZM37.3 49.1H54.6V46.1H37.3V49.1ZM53.3693 48.4576L71.0693 73.8576L73.5307 72.1424L55.8307 46.7424L53.3693 48.4576ZM72.3 71.5H54.8V74.5H72.3V71.5ZM27.5889 47.1684L20.3889 39.5684L18.2111 41.6316L25.4111 49.2316L27.5889 47.1684ZM19.3 42.1H39.7V39.1H19.3V42.1ZM39.7 42.1C44.876 42.1 49.0291 41.0012 51.8812 38.5345L49.9188 36.2655C47.8376 38.0654 44.524 39.1 39.7 39.1V42.1ZM51.8984 38.5194C54.7334 35.9909 56.1 32.5569 56.1 28.4H53.1C53.1 31.8431 51.9999 34.4091 49.9016 36.2806L51.8984 38.5194ZM56.1 28.4C56.1 24.1867 54.7392 20.7372 51.8812 18.2655L49.9188 20.5345C51.9942 22.3295 53.1 24.8799 53.1 28.4H56.1ZM51.8812 18.2655C49.0291 15.7988 44.876 14.7 39.7 14.7V17.7C44.524 17.7 47.8376 18.7346 49.9188 20.5345L51.8812 18.2655ZM39.7 14.7H19.3V17.7H39.7V14.7ZM20.3956 17.2245L27.5956 9.52449L25.4044 7.47551L18.2044 15.1755L20.3956 17.2245ZM25 8.5V48.2H28V8.5H25ZM98.7352 31.2V29.7H97.2352V31.2H98.7352ZM132.435 31.2H133.935V29.7H132.435V31.2ZM132.435 43.8V45.3H133.935V43.8H132.435ZM98.7352 43.8H97.2352V45.3H98.7352V43.8ZM99.9352 60H98.4352V61.5H99.9352V60ZM138.035 60H139.535V58.5H138.035V60ZM138.035 73V74.5H139.535V73H138.035ZM83.8352 73H82.3352V74.5H83.8352V73ZM83.8352 3V1.5H82.3352V3H83.8352ZM136.735 3H138.235V1.5H136.735V3ZM136.735 16V17.5H138.235V16H136.735ZM99.9352 16V14.5H98.4352V16H99.9352ZM98.7352 32.7H132.435V29.7H98.7352V32.7ZM130.935 31.2V43.8H133.935V31.2H130.935ZM132.435 42.3H98.7352V45.3H132.435V42.3ZM100.235 43.8V31.2H97.2352V43.8H100.235ZM99.9352 61.5H138.035V58.5H99.9352V61.5ZM136.535 60V73H139.535V60H136.535ZM138.035 71.5H83.8352V74.5H138.035V71.5ZM85.3352 73V3H82.3352V73H85.3352ZM83.8352 4.5H136.735V1.5H83.8352V4.5ZM135.235 3V16H138.235V3H135.235ZM136.735 14.5H99.9352V17.5H136.735V14.5ZM98.4352 16V60H101.435V16H98.4352ZM165.925 34.5V33H164.425V34.5H165.925ZM199.525 34.5H201.025V33H199.525V34.5ZM199.525 47.5V49H201.025V47.5H199.525ZM165.925 47.5H164.425V49H165.925V47.5ZM167.125 73V74.5H168.625V73H167.125ZM150.925 73H149.425V74.5H150.925V73ZM150.925 3V1.5H149.425V3H150.925ZM203.825 3H205.325V1.5H203.825V3ZM203.825 16V17.5H205.325V16H203.825ZM167.125 16V14.5H165.625V16H167.125ZM165.925 36H199.525V33H165.925V36ZM198.025 34.5V47.5H201.025V34.5H198.025ZM199.525 46H165.925V49H199.525V46ZM167.425 47.5V34.5H164.425V47.5H167.425ZM167.125 71.5H150.925V74.5H167.125V71.5ZM152.425 73V3H149.425V73H152.425ZM150.925 4.5H203.825V1.5H150.925V4.5ZM202.325 3V16H205.325V3H202.325ZM203.825 14.5H167.125V17.5H203.825V14.5ZM165.625 16V73H168.625V16H165.625ZM214.792 73H213.292V74.5H214.792V73ZM214.792 3V1.5H213.292V3H214.792ZM261.292 6.1L260.67 7.46486L260.678 7.46867L260.687 7.47237L261.292 6.1ZM271.792 14.8L270.534 15.6167L270.534 15.6167L271.792 14.8ZM271.792 41.9L273.044 42.7269L273.05 42.7167L271.792 41.9ZM261.292 50.5L261.898 51.8724L261.898 51.8724L261.292 50.5ZM223.792 53.5L222.739 52.4319L220.135 55H223.792V53.5ZM230.992 46.4H232.492V42.8142L229.939 45.3319L230.992 46.4ZM230.992 73V74.5H232.492V73H230.992ZM259.292 73L258.057 73.851L258.504 74.5H259.292V73ZM241.792 47.6V46.1H238.937L240.557 48.451L241.792 47.6ZM259.092 47.6L260.323 46.7424L259.875 46.1H259.092V47.6ZM276.792 73V74.5H279.666L278.023 72.1424L276.792 73ZM230.992 48.2L229.903 49.2316L232.492 51.9644V48.2H230.992ZM223.792 40.6V39.1H220.305L222.703 41.6316L223.792 40.6ZM255.392 37.4L256.373 38.5345L256.382 38.5271L256.391 38.5194L255.392 37.4ZM223.792 16.2L222.697 15.1755L220.336 17.7H223.792V16.2ZM230.992 8.5H232.492V4.69962L229.897 7.47551L230.992 8.5ZM216.292 73V3H213.292V73H216.292ZM214.792 4.5H245.092V1.5H214.792V4.5ZM245.092 4.5C251.198 4.5 256.376 5.50709 260.67 7.46486L261.914 4.73514C257.142 2.55957 251.52 1.5 245.092 1.5V4.5ZM260.687 7.47237C264.979 9.36607 268.241 12.0843 270.534 15.6167L273.05 13.9833C270.41 9.91568 266.672 6.83392 261.898 4.72762L260.687 7.47237ZM270.534 15.6167C272.819 19.1361 273.992 23.3751 273.992 28.4H276.992C276.992 22.8916 275.699 18.0639 273.05 13.9833L270.534 15.6167ZM273.992 28.4C273.992 33.3541 272.821 37.5609 270.534 41.0833L273.05 42.7167C275.697 38.6391 276.992 33.8459 276.992 28.4H273.992ZM270.541 41.0731C268.249 44.5411 264.986 47.2308 260.687 49.1276L261.898 51.8724C266.665 49.7692 270.402 46.7256 273.044 42.7269L270.541 41.0731ZM260.687 49.1276C256.388 51.0243 251.204 52 245.092 52V55C251.514 55 257.13 53.9757 261.898 51.8724L260.687 49.1276ZM245.092 52H223.792V55H245.092V52ZM224.845 54.5681L232.045 47.4681L229.939 45.3319L222.739 52.4319L224.845 54.5681ZM229.492 46.4V73H232.492V46.4H229.492ZM230.992 71.5H214.792V74.5H230.992V71.5ZM260.527 72.149L243.027 46.749L240.557 48.451L258.057 73.851L260.527 72.149ZM241.792 49.1H259.092V46.1H241.792V49.1ZM257.862 48.4576L275.562 73.8576L278.023 72.1424L260.323 46.7424L257.862 48.4576ZM276.792 71.5H259.292V74.5H276.792V71.5ZM232.081 47.1684L224.881 39.5684L222.703 41.6316L229.903 49.2316L232.081 47.1684ZM223.792 42.1H244.192V39.1H223.792V42.1ZM244.192 42.1C249.368 42.1 253.521 41.0012 256.373 38.5345L254.411 36.2655C252.33 38.0654 249.016 39.1 244.192 39.1V42.1ZM256.391 38.5194C259.226 35.9909 260.592 32.5569 260.592 28.4H257.592C257.592 31.8431 256.492 34.4091 254.394 36.2806L256.391 38.5194ZM260.592 28.4C260.592 24.1867 259.231 20.7372 256.373 18.2655L254.411 20.5345C256.486 22.3295 257.592 24.8799 257.592 28.4H260.592ZM256.373 18.2655C253.521 15.7988 249.368 14.7 244.192 14.7V17.7C249.016 17.7 252.33 18.7346 254.411 20.5345L256.373 18.2655ZM244.192 14.7H223.792V17.7H244.192V14.7ZM224.888 17.2245L232.088 9.52449L229.897 7.47551L222.697 15.1755L224.888 17.2245ZM229.492 8.5V48.2H232.492V8.5H229.492ZM303.227 31.2V29.7H301.727V31.2H303.227ZM336.927 31.2H338.427V29.7H336.927V31.2ZM336.927 43.8V45.3H338.427V43.8H336.927ZM303.227 43.8H301.727V45.3H303.227V43.8ZM304.427 60H302.927V61.5H304.427V60ZM342.527 60H344.027V58.5H342.527V60ZM342.527 73V74.5H344.027V73H342.527ZM288.327 73H286.827V74.5H288.327V73ZM288.327 3V1.5H286.827V3H288.327ZM341.227 3H342.727V1.5H341.227V3ZM341.227 16V17.5H342.727V16H341.227ZM304.427 16V14.5H302.927V16H304.427ZM303.227 32.7H336.927V29.7H303.227V32.7ZM335.427 31.2V43.8H338.427V31.2H335.427ZM336.927 42.3H303.227V45.3H336.927V42.3ZM304.727 43.8V31.2H301.727V43.8H304.727ZM304.427 61.5H342.527V58.5H304.427V61.5ZM341.027 60V73H344.027V60H341.027ZM342.527 71.5H288.327V74.5H342.527V71.5ZM289.827 73V3H286.827V73H289.827ZM288.327 4.5H341.227V1.5H288.327V4.5ZM339.727 3V16H342.727V3H339.727ZM341.227 14.5H304.427V17.5H341.227V14.5ZM302.927 16V60H305.927V16H302.927ZM362.317 72L361.888 73.4373L361.896 73.4398L361.905 73.4423L362.317 72ZM349.917 66.1L348.55 65.4835L348.061 66.5677L349.005 67.2908L349.917 66.1ZM355.417 53.9L356.286 52.6776L354.8 51.6202L354.05 53.2835L355.417 53.9ZM366.017 59.2L365.529 60.6183L365.543 60.6231L365.557 60.6276L366.017 59.2ZM386.217 60.3L386.662 61.7326L386.677 61.728L386.692 61.723L386.217 60.3ZM390.617 57.6L389.459 56.6464L389.459 56.6464L390.617 57.6ZM389.817 49.3L388.9 50.4869L388.917 50.5003L388.935 50.5131L389.817 49.3ZM384.017 46.6L383.579 48.0345L383.597 48.0401L383.616 48.0453L384.017 46.6ZM376.017 44.6L375.677 46.061L375.697 46.0656L375.717 46.0696L376.017 44.6ZM367.317 42.2L366.853 43.6263L366.862 43.6294L367.317 42.2ZM359.417 38.6L358.635 39.8799L358.635 39.8799L359.417 38.6ZM353.517 32.8L352.237 33.5822L352.245 33.595L352.253 33.6076L353.517 32.8ZM354.517 12.7L353.265 11.8737L353.261 11.8798L354.517 12.7ZM364.317 4.8L364.928 6.16988L364.938 6.16555L364.317 4.8ZM393.817 3.4L393.453 4.85521L393.464 4.85789L393.475 4.86042L393.817 3.4ZM405.117 8L406.507 8.56487L406.979 7.40295L405.919 6.73238L405.117 8ZM400.117 20.3L399.373 21.6024L400.861 22.4528L401.507 20.8649L400.117 20.3ZM390.317 16.2L389.905 17.6423L389.919 17.6462L389.933 17.6498L390.317 16.2ZM373.017 15.9L372.501 14.4917L372.501 14.4917L373.017 15.9ZM368.717 18.8L369.909 19.7112L369.921 19.6949L369.933 19.6782L368.717 18.8ZM369.617 27.2L368.7 28.3869L368.717 28.4003L368.735 28.4131L369.617 27.2ZM375.417 29.8L375.016 31.2453L375.016 31.2453L375.417 29.8ZM383.317 31.8L382.977 33.261L382.985 33.2627L383.317 31.8ZM392.017 34.1L391.583 35.5358L391.592 35.5385L392.017 34.1ZM400.017 37.6L400.799 36.3201L400.799 36.3201L400.017 37.6ZM405.817 43.4L404.537 44.1822L404.545 44.195L404.553 44.2076L405.817 43.4ZM404.817 63.3L406.061 64.1379L406.061 64.1379L404.817 63.3ZM394.917 71.2L394.296 69.8344L394.289 69.8381L394.917 71.2ZM378.417 72.7C372.95 72.7 367.722 71.9843 362.729 70.5577L361.905 73.4423C367.179 74.9491 372.685 75.7 378.417 75.7V72.7ZM362.746 70.5627C357.729 69.0641 353.776 67.1666 350.829 64.9092L349.005 67.2908C352.325 69.8334 356.638 71.8692 361.888 73.4373L362.746 70.5627ZM351.285 66.7165L356.785 54.5165L354.05 53.2835L348.55 65.4835L351.285 66.7165ZM354.548 55.1224C357.683 57.3516 361.349 59.1792 365.529 60.6183L366.505 57.7817C362.552 56.4208 359.152 54.7151 356.286 52.6776L354.548 55.1224ZM365.557 60.6276C369.834 62.0072 374.156 62.7 378.517 62.7V59.7C374.479 59.7 370.467 59.0594 366.478 57.7724L365.557 60.6276ZM378.517 62.7C381.791 62.7 384.526 62.3954 386.662 61.7326L385.773 58.8674C384.042 59.4046 381.643 59.7 378.517 59.7V62.7ZM386.692 61.723C388.848 61.0041 390.601 59.9797 391.775 58.5536L389.459 56.6464C388.767 57.487 387.586 58.2626 385.743 58.877L386.692 61.723ZM391.775 58.5536C392.929 57.152 393.517 55.515 393.517 53.7H390.517C390.517 54.8184 390.172 55.7814 389.459 56.6464L391.775 58.5536ZM393.517 53.7C393.517 51.37 392.567 49.4455 390.699 48.0869L388.935 50.5131C390 51.2879 390.517 52.2966 390.517 53.7H393.517ZM390.734 48.1131C389.071 46.8279 386.945 45.8565 384.419 45.1547L383.616 48.0453C385.889 48.6768 387.63 49.5054 388.9 50.4869L390.734 48.1131ZM384.456 45.1655C382.003 44.416 379.289 43.7382 376.318 43.1304L375.717 46.0696C378.612 46.6618 381.232 47.3174 383.579 48.0345L384.456 45.1655ZM376.357 43.139C373.531 42.4817 370.669 41.6924 367.772 40.7706L366.862 43.6294C369.832 44.5742 372.77 45.3849 375.677 46.061L376.357 43.139ZM367.782 40.7737C365.018 39.874 362.493 38.7215 360.199 37.3201L358.635 39.8799C361.142 41.4118 363.883 42.6593 366.853 43.6263L367.782 40.7737ZM360.199 37.3201C357.996 35.9738 356.193 34.2029 354.781 31.9924L352.253 33.6076C353.908 36.1971 356.038 38.2929 358.635 39.8799L360.199 37.3201ZM354.797 32.0178C353.514 29.9185 352.817 27.1453 352.817 23.6H349.817C349.817 27.5214 350.587 30.8815 352.237 33.5822L354.797 32.0178ZM352.817 23.6C352.817 19.8835 353.803 16.5365 355.773 13.5202L353.261 11.8798C350.964 15.3968 349.817 19.3165 349.817 23.6H352.817ZM355.769 13.5263C357.784 10.4732 360.806 8.00892 364.928 6.16984L363.706 3.43015C359.161 5.45773 355.65 8.26014 353.265 11.8737L355.769 13.5263ZM364.938 6.16555C369.085 4.28029 374.358 3.3 380.817 3.3V0.299999C374.077 0.299999 368.349 1.3197 363.696 3.43445L364.938 6.16555ZM380.817 3.3C385.095 3.3 389.306 3.8183 393.453 4.85521L394.181 1.94478C389.795 0.848358 385.34 0.299999 380.817 0.299999V3.3ZM393.475 4.86042C397.6 5.82728 401.207 7.30149 404.315 9.26761L405.919 6.73238C402.494 4.56516 398.568 2.97271 394.159 1.93957L393.475 4.86042ZM403.728 7.43513L398.728 19.7351L401.507 20.8649L406.507 8.56487L403.728 7.43513ZM400.861 18.9976C397.494 17.0736 394.108 15.6537 390.702 14.7502L389.933 17.6498C393.06 18.4796 396.207 19.793 399.373 21.6024L400.861 18.9976ZM390.729 14.7577C387.34 13.7893 384.001 13.3 380.717 13.3V16.3C383.7 16.3 386.761 16.744 389.905 17.6423L390.729 14.7577ZM380.717 13.3C377.483 13.3 374.725 13.6763 372.501 14.4917L373.534 17.3083C375.31 16.657 377.685 16.3 380.717 16.3V13.3ZM372.501 14.4917C370.338 15.2848 368.604 16.3944 367.501 17.9218L369.933 19.6782C370.563 18.8056 371.697 17.9818 373.534 17.3083L372.501 14.4917ZM367.526 17.8888C366.444 19.3039 365.917 20.9635 365.917 22.8H368.917C368.917 21.5698 369.257 20.5628 369.909 19.7112L367.526 17.8888ZM365.917 22.8C365.917 25.0805 366.879 26.9794 368.7 28.3869L370.534 26.0131C369.423 25.1539 368.917 24.1195 368.917 22.8H365.917ZM368.735 28.4131C370.39 29.6166 372.503 30.5473 375.016 31.2453L375.819 28.3547C373.531 27.7194 371.778 26.9167 370.499 25.9869L368.735 28.4131ZM375.016 31.2453C377.439 31.9185 380.094 32.5904 382.977 33.261L383.657 30.339C380.807 29.6763 378.195 29.0148 375.819 28.3547L375.016 31.2453ZM382.985 33.2627C385.884 33.9216 388.75 34.6793 391.583 35.5358L392.451 32.6642C389.551 31.7873 386.617 31.0117 383.65 30.3373L382.985 33.2627ZM391.592 35.5385C394.411 36.3713 396.956 37.4871 399.235 38.8799L400.799 36.3201C398.278 34.7795 395.49 33.562 392.442 32.6615L391.592 35.5385ZM399.235 38.8799C401.432 40.2225 403.195 41.9852 404.537 44.1822L407.097 42.6178C405.506 40.0148 403.402 37.9108 400.799 36.3201L399.235 38.8799ZM404.553 44.2076C405.894 46.306 406.617 49.0383 406.617 52.5H409.617C409.617 48.6284 408.807 45.294 407.081 42.5924L404.553 44.2076ZM406.617 52.5C406.617 56.1344 405.607 59.4427 403.573 62.4621L406.061 64.1379C408.428 60.624 409.617 56.7323 409.617 52.5H406.617ZM403.573 62.4621C401.56 65.4514 398.501 67.9232 394.296 69.8345L395.538 72.5655C400.133 70.4768 403.675 67.6819 406.061 64.1379L403.573 62.4621ZM394.289 69.8381C390.214 71.7185 384.947 72.7 378.417 72.7V75.7C385.22 75.7 390.953 74.6815 395.546 72.5619L394.289 69.8381ZM467.187 3V1.5H465.687V3H467.187ZM483.387 3H484.887V1.5H483.387V3ZM483.387 73V74.5H484.887V73H483.387ZM467.187 73H465.687V74.5H467.187V73ZM435.387 73V74.5H436.887V73H435.387ZM419.187 73H417.687V74.5H419.187V73ZM419.187 3V1.5H417.687V3H419.187ZM435.387 3H436.887V1.5H435.387V3ZM468.387 44.3V45.8H469.887V44.3H468.387ZM434.187 44.3H432.687V45.8H434.187V44.3ZM434.187 30.6V29.1H432.687V30.6H434.187ZM468.387 30.6H469.887V29.1H468.387V30.6ZM467.187 4.5H483.387V1.5H467.187V4.5ZM481.887 3V73H484.887V3H481.887ZM483.387 71.5H467.187V74.5H483.387V71.5ZM468.687 73V3H465.687V73H468.687ZM435.387 71.5H419.187V74.5H435.387V71.5ZM420.687 73V3H417.687V73H420.687ZM419.187 4.5H435.387V1.5H419.187V4.5ZM433.887 3V73H436.887V3H433.887ZM468.387 42.8H434.187V45.8H468.387V42.8ZM435.687 44.3V30.6H432.687V44.3H435.687ZM434.187 32.1H468.387V29.1H434.187V32.1ZM466.887 30.6V44.3H469.887V30.6H466.887ZM499.948 73H498.448V74.5H499.948V73ZM499.948 3V1.5H498.448V3H499.948ZM516.148 3H517.648V1.5H516.148V3ZM516.148 73V74.5H517.648V73H516.148ZM501.448 73V3H498.448V73H501.448ZM499.948 4.5H516.148V1.5H499.948V4.5ZM514.648 3V73H517.648V3H514.648ZM516.148 71.5H499.948V74.5H516.148V71.5ZM532.761 73H531.261V74.5H532.761V73ZM532.761 3V1.5H531.261V3H532.761ZM546.161 3L547.321 2.04926L546.871 1.5H546.161V3ZM587.461 53.4V54.9H590.629L588.621 52.4493L587.461 53.4ZM580.961 53.4H579.461V54.9H580.961V53.4ZM580.961 3V1.5H579.461V3H580.961ZM596.961 3H598.461V1.5H596.961V3ZM596.961 73V74.5H598.461V73H596.961ZM583.661 73L582.502 73.9521L582.952 74.5H583.661V73ZM542.261 22.6V21.1H539.088L541.102 23.5521L542.261 22.6ZM548.761 22.6H550.261V21.1H548.761V22.6ZM548.761 73V74.5H550.261V73H548.761ZM534.261 73V3H531.261V73H534.261ZM532.761 4.5H546.161V1.5H532.761V4.5ZM545.001 3.95073L586.301 54.3507L588.621 52.4493L547.321 2.04926L545.001 3.95073ZM587.461 51.9H580.961V54.9H587.461V51.9ZM582.461 53.4V3H579.461V53.4H582.461ZM580.961 4.5H596.961V1.5H580.961V4.5ZM595.461 3V73H598.461V3H595.461ZM596.961 71.5H583.661V74.5H596.961V71.5ZM584.82 72.0479L543.42 21.6479L541.102 23.5521L582.502 73.9521L584.82 72.0479ZM542.261 24.1H548.761V21.1H542.261V24.1ZM547.261 22.6V73H550.261V22.6H547.261ZM548.761 71.5H532.761V74.5H548.761V71.5ZM632.023 71.6L631.476 72.9969L631.488 73.0016L631.5 73.0061L632.023 71.6ZM619.923 64L618.883 65.0817L618.889 65.0867L618.894 65.0917L619.923 64ZM611.923 52.5L610.542 53.0858L610.546 53.0946L610.549 53.1034L611.923 52.5ZM611.923 23.5L610.549 22.8966L610.546 22.9054L610.542 22.9142L611.923 23.5ZM620.023 12L621.051 13.0917L621.051 13.0917L620.023 12ZM632.223 4.49999L632.745 5.90613L632.754 5.90287L632.762 5.8995L632.223 4.49999ZM664.323 4.89999L663.743 6.28352L663.75 6.28624L664.323 4.89999ZM676.923 13.9L677.94 15.0022L679.007 14.0174L678.057 12.9191L676.923 13.9ZM666.523 23.5L665.435 24.5331L666.454 25.6051L667.54 24.6022L666.523 23.5ZM658.223 17.6L657.613 18.9707L657.626 18.9764L657.639 18.9819L658.223 17.6ZM631.823 21.8L630.78 20.7221L630.771 20.7306L630.762 20.7393L631.823 21.8ZM627.123 28.9L625.737 28.3255L625.731 28.34L625.725 28.3547L627.123 28.9ZM627.123 47L625.725 47.5453L625.731 47.56L625.737 47.5745L627.123 47ZM631.823 54.2L630.745 55.2431L630.762 55.2608L630.78 55.2779L631.823 54.2ZM639.023 58.8L638.477 60.1974L638.489 60.2017L639.023 58.8ZM657.523 58.9L657.997 60.323L658.006 60.3199L658.015 60.3167L657.523 58.9ZM666.423 53.6L667.602 52.6728L666.633 51.4404L665.444 52.463L666.423 53.6ZM675.623 65.3L676.526 66.4975L677.748 65.5758L676.802 64.3728L675.623 65.3ZM662.323 71.9L661.888 70.4643L661.883 70.4659L662.323 71.9ZM660.823 63.2H659.323V64.5022L660.612 64.6851L660.823 63.2ZM660.823 36.9V35.4H659.323V36.9H660.823ZM675.623 36.9H677.123V35.4H675.623V36.9ZM675.623 65.3L675.412 66.7851L677.123 67.0279V65.3H675.623ZM647.323 72.7C641.948 72.7 637.027 71.8586 632.545 70.1939L631.5 73.0061C636.352 74.8081 641.631 75.7 647.323 75.7V72.7ZM632.569 70.2031C628.141 68.4704 624.273 66.0385 620.951 62.9083L618.894 65.0917C622.505 68.4949 626.704 71.1296 631.476 72.9969L632.569 70.2031ZM620.962 62.9183C617.706 59.7904 615.152 56.1204 613.296 51.8966L610.549 53.1034C612.56 57.6796 615.339 61.6763 618.883 65.0817L620.962 62.9183ZM613.304 51.9142C611.523 47.7176 610.623 43.086 610.623 38H607.623C607.623 43.4473 608.589 48.4824 610.542 53.0858L613.304 51.9142ZM610.623 38C610.623 32.914 611.523 28.2824 613.304 24.0858L610.542 22.9142C608.589 27.5176 607.623 32.5526 607.623 38H610.623ZM613.296 24.1034C615.149 19.8859 617.732 16.2191 621.051 13.0917L618.994 10.9083C615.379 14.3142 612.563 18.3141 610.549 22.8966L613.296 24.1034ZM621.051 13.0917C624.365 9.96885 628.258 7.5728 632.745 5.90613L631.7 3.09386C626.854 4.89386 622.613 7.49781 618.994 10.9083L621.051 13.0917ZM632.762 5.8995C637.238 4.1734 642.185 3.3 647.623 3.3V0.299999C641.86 0.299999 636.541 1.22659 631.683 3.10049L632.762 5.8995ZM647.623 3.3C653.655 3.3 659.02 4.30498 663.743 6.2835L664.902 3.51649C659.759 1.36168 653.99 0.299999 647.623 0.299999V3.3ZM663.75 6.28624C668.542 8.26724 672.547 11.132 675.788 14.8809L678.057 12.9191C674.498 8.80137 670.103 5.66608 664.896 3.51374L663.75 6.28624ZM675.905 12.7978L665.505 22.3978L667.54 24.6022L677.94 15.0022L675.905 12.7978ZM667.61 22.4669C664.953 19.6699 662.02 17.5749 658.806 16.2181L657.639 18.9819C660.426 20.1584 663.026 21.9968 665.435 24.5331L667.61 22.4669ZM658.832 16.2293C655.626 14.8044 652.15 14.1 648.423 14.1V17.1C651.762 17.1 654.82 17.729 657.613 18.9707L658.832 16.2293ZM648.423 14.1C644.865 14.1 641.581 14.6585 638.589 15.7983L639.657 18.6017C642.265 17.6082 645.181 17.1 648.423 17.1V14.1ZM638.589 15.7983C635.607 16.9342 632.998 18.5749 630.78 20.7221L632.866 22.8779C634.78 21.0251 637.038 19.5991 639.657 18.6017L638.589 15.7983ZM630.762 20.7393C628.616 22.8849 626.942 25.4189 625.737 28.3255L628.508 29.4745C629.57 26.9144 631.029 24.7151 632.883 22.8607L630.762 20.7393ZM625.725 28.3547C624.582 31.2838 624.023 34.5053 624.023 38H627.023C627.023 34.8281 627.53 31.9828 628.52 29.4453L625.725 28.3547ZM624.023 38C624.023 41.4321 624.584 44.6195 625.725 47.5453L628.52 46.4547C627.528 43.9138 627.023 41.1012 627.023 38H624.023ZM625.737 47.5745C626.94 50.4769 628.61 53.0371 630.745 55.2431L632.901 53.1569C631.035 51.2296 629.572 48.9898 628.508 46.4255L625.737 47.5745ZM630.78 55.2779C632.992 57.4192 635.562 59.0598 638.477 60.1974L639.568 57.4026C637.016 56.4069 634.786 54.9808 632.866 53.1221L630.78 55.2779ZM638.489 60.2017C641.477 61.3403 644.727 61.9 648.223 61.9V58.9C645.051 58.9 642.168 58.3931 639.557 57.3983L638.489 60.2017ZM648.223 61.9C651.582 61.9 654.842 61.3746 657.997 60.323L657.048 57.477C654.203 58.4254 651.263 58.9 648.223 58.9V61.9ZM658.015 60.3167C661.287 59.1789 664.415 57.3067 667.401 54.737L665.444 52.463C662.697 54.8267 659.892 56.4878 657.03 57.4833L658.015 60.3167ZM665.244 54.5272L674.444 66.2272L676.802 64.3728L667.602 52.6728L665.244 54.5272ZM674.719 64.1025C671.075 66.8515 666.805 68.9764 661.888 70.4643L662.757 73.3357C667.974 71.7569 672.57 69.4818 676.526 66.4975L674.719 64.1025ZM661.883 70.4659C657.019 71.9576 652.167 72.7 647.323 72.7V75.7C652.478 75.7 657.627 74.9091 662.762 73.3341L661.883 70.4659ZM662.323 63.2V36.9H659.323V63.2H662.323ZM660.823 38.4H675.623V35.4H660.823V38.4ZM674.123 36.9V65.3H677.123V36.9H674.123ZM675.833 63.8149L661.033 61.7149L660.612 64.6851L675.412 66.7851L675.833 63.8149ZM24.8 195H23.3V196.5H24.8V195ZM24.8 138.2H26.3V136.7H24.8V138.2ZM2.4 138.2H0.9V139.7H2.4V138.2ZM2.4 125V123.5H0.9V125H2.4ZM63.4 125H64.9V123.5H63.4V125ZM63.4 138.2V139.7H64.9V138.2H63.4ZM41 138.2V136.7H39.5V138.2H41ZM41 195V196.5H42.5V195H41ZM26.3 195V138.2H23.3V195H26.3ZM24.8 136.7H2.4V139.7H24.8V136.7ZM3.9 138.2V125H0.9V138.2H3.9ZM2.4 126.5H63.4V123.5H2.4V126.5ZM61.9 125V138.2H64.9V125H61.9ZM63.4 136.7H41V139.7H63.4V136.7ZM39.5 138.2V195H42.5V138.2H39.5ZM41 193.5H24.8V196.5H41V193.5ZM72.1164 195H70.6164V196.5H72.1164V195ZM72.1164 125V123.5H70.6164V125H72.1164ZM118.616 128.1L117.994 129.465L118.003 129.469L118.011 129.472L118.616 128.1ZM129.116 136.8L127.858 137.617L127.858 137.617L129.116 136.8ZM129.116 163.9L130.368 164.727L130.375 164.717L129.116 163.9ZM118.616 172.5L119.222 173.872L119.222 173.872L118.616 172.5ZM81.1164 175.5L80.0632 174.432L77.459 177H81.1164V175.5ZM88.3164 168.4H89.8164V164.814L87.2632 167.332L88.3164 168.4ZM88.3164 195V196.5H89.8164V195H88.3164ZM116.616 195L115.381 195.851L115.828 196.5H116.616V195ZM99.1164 169.6V168.1H96.2614L97.8812 170.451L99.1164 169.6ZM116.416 169.6L117.647 168.742L117.199 168.1H116.416V169.6ZM134.116 195V196.5H136.99L135.347 194.142L134.116 195ZM88.3164 170.2L87.2275 171.232L89.8164 173.964V170.2H88.3164ZM81.1164 162.6V161.1H77.6291L80.0275 163.632L81.1164 162.6ZM112.716 159.4L113.698 160.535L113.706 160.527L113.715 160.519L112.716 159.4ZM81.1164 138.2L80.0208 137.176L77.6602 139.7H81.1164V138.2ZM88.3164 130.5H89.8164V126.7L87.2208 129.476L88.3164 130.5ZM73.6164 195V125H70.6164V195H73.6164ZM72.1164 126.5H102.416V123.5H72.1164V126.5ZM102.416 126.5C108.522 126.5 113.7 127.507 117.994 129.465L119.239 126.735C114.466 124.56 108.844 123.5 102.416 123.5V126.5ZM118.011 129.472C122.303 131.366 125.565 134.084 127.858 137.617L130.375 135.983C127.734 131.916 123.996 128.834 119.222 126.728L118.011 129.472ZM127.858 137.617C130.143 141.136 131.316 145.375 131.316 150.4H134.316C134.316 144.892 133.023 140.064 130.375 135.983L127.858 137.617ZM131.316 150.4C131.316 155.354 130.145 159.561 127.858 163.083L130.375 164.717C133.021 160.639 134.316 155.846 134.316 150.4H131.316ZM127.865 163.073C125.574 166.541 122.31 169.231 118.011 171.128L119.222 173.872C123.989 171.769 127.726 168.726 130.368 164.727L127.865 163.073ZM118.011 171.128C113.712 173.024 108.528 174 102.416 174V177C108.838 177 114.454 175.976 119.222 173.872L118.011 171.128ZM102.416 174H81.1164V177H102.416V174ZM82.1696 176.568L89.3696 169.468L87.2632 167.332L80.0632 174.432L82.1696 176.568ZM86.8164 168.4V195H89.8164V168.4H86.8164ZM88.3164 193.5H72.1164V196.5H88.3164V193.5ZM117.852 194.149L100.352 168.749L97.8812 170.451L115.381 195.851L117.852 194.149ZM99.1164 171.1H116.416V168.1H99.1164V171.1ZM115.186 170.458L132.886 195.858L135.347 194.142L117.647 168.742L115.186 170.458ZM134.116 193.5H116.616V196.5H134.116V193.5ZM89.4053 169.168L82.2053 161.568L80.0275 163.632L87.2275 171.232L89.4053 169.168ZM81.1164 164.1H101.516V161.1H81.1164V164.1ZM101.516 164.1C106.692 164.1 110.846 163.001 113.698 160.535L111.735 158.265C109.654 160.065 106.34 161.1 101.516 161.1V164.1ZM113.715 160.519C116.55 157.991 117.916 154.557 117.916 150.4H114.916C114.916 153.843 113.816 156.409 111.718 158.281L113.715 160.519ZM117.916 150.4C117.916 146.187 116.556 142.737 113.698 140.265L111.735 142.535C113.811 144.329 114.916 146.88 114.916 150.4H117.916ZM113.698 140.265C110.846 137.799 106.692 136.7 101.516 136.7V139.7C106.34 139.7 109.654 140.735 111.735 142.535L113.698 140.265ZM101.516 136.7H81.1164V139.7H101.516V136.7ZM82.212 139.224L89.412 131.524L87.2208 129.476L80.0208 137.176L82.212 139.224ZM86.8164 130.5V170.2H89.8164V130.5H86.8164ZM136.452 195L135.081 194.389L134.141 196.5H136.452V195ZM167.652 125V123.5H166.678L166.281 124.389L167.652 125ZM183.652 125L185.021 124.388L184.624 123.5H183.652V125ZM214.952 195V196.5H217.265L216.321 194.388L214.952 195ZM197.952 195L196.566 195.574L196.949 196.5H197.952V195ZM172.352 133.2V131.7H170.107L170.966 133.774L172.352 133.2ZM178.752 133.2L180.137 133.776L181 131.7H178.752V133.2ZM153.052 195V196.5H154.052L154.437 195.576L153.052 195ZM152.052 180L150.636 179.505L149.938 181.5H152.052V180ZM156.352 167.7V166.2H155.287L154.936 167.205L156.352 167.7ZM192.352 167.7L193.764 167.195L193.408 166.2H192.352V167.7ZM196.752 180V181.5H198.881L198.164 179.495L196.752 180ZM137.822 195.611L169.022 125.611L166.281 124.389L135.081 194.389L137.822 195.611ZM167.652 126.5H183.652V123.5H167.652V126.5ZM182.282 125.612L213.582 195.612L216.321 194.388L185.021 124.388L182.282 125.612ZM214.952 193.5H197.952V196.5H214.952V193.5ZM199.337 194.426L173.737 132.626L170.966 133.774L196.566 195.574L199.337 194.426ZM172.352 134.7H178.752V131.7H172.352V134.7ZM177.367 132.624L151.667 194.424L154.437 195.576L180.137 133.776L177.367 132.624ZM153.052 193.5H136.452V196.5H153.052V193.5ZM153.468 180.495L157.768 168.195L154.936 167.205L150.636 179.505L153.468 180.495ZM156.352 169.2H192.352V166.2H156.352V169.2ZM190.939 168.205L195.339 180.505L198.164 179.495L193.764 167.195L190.939 168.205ZM196.752 178.5H152.052V181.5H196.752V178.5ZM222.214 195H220.714V196.5H222.214V195ZM222.214 125V123.5H220.714V125H222.214ZM274.114 129.4L273.437 130.739L273.449 130.745L274.114 129.4ZM287.714 141.5L286.444 142.298L287.714 141.5ZM287.714 178.5L288.984 179.298L288.989 179.291L287.714 178.5ZM274.114 190.7L274.779 192.045L274.791 192.039L274.114 190.7ZM238.414 181.7H236.914V183.2H238.414V181.7ZM265.314 179.1L265.995 180.436L266.005 180.431L265.314 179.1ZM273.314 171.5L272.023 170.736L272.017 170.746L272.012 170.756L273.314 171.5ZM273.314 148.5L272.012 149.244L272.021 149.26L272.03 149.276L273.314 148.5ZM265.314 141L264.612 142.326L264.628 142.334L264.643 142.342L265.314 141ZM238.414 138.3V136.8H236.914V138.3H238.414ZM223.714 195V125H220.714V195H223.714ZM222.214 126.5H254.014V123.5H222.214V126.5ZM254.014 126.5C261.419 126.5 267.88 127.928 273.437 130.739L274.791 128.061C268.748 125.005 261.81 123.5 254.014 123.5V126.5ZM273.449 130.745C279.015 133.495 283.333 137.345 286.444 142.298L288.984 140.702C285.562 135.255 280.813 131.038 274.779 128.055L273.449 130.745ZM286.444 142.298C289.537 147.222 291.114 153.102 291.114 160H294.114C294.114 152.631 292.424 146.178 288.984 140.702L286.444 142.298ZM291.114 160C291.114 166.827 289.539 172.712 286.439 177.709L288.989 179.291C292.422 173.755 294.114 167.306 294.114 160H291.114ZM286.444 177.702C283.331 182.658 279.009 186.544 273.437 189.361L274.791 192.039C280.819 188.99 285.564 184.742 288.984 179.298L286.444 177.702ZM273.449 189.355C267.889 192.103 261.424 193.5 254.014 193.5V196.5C261.805 196.5 268.739 195.03 274.779 192.045L273.449 189.355ZM254.014 193.5H222.214V196.5H254.014V193.5ZM238.414 183.2H253.214V180.2H238.414V183.2ZM253.214 183.2C258.066 183.2 262.342 182.299 265.995 180.436L264.633 177.764C261.486 179.368 257.696 180.2 253.214 180.2V183.2ZM266.005 180.431C269.718 178.504 272.601 175.771 274.616 172.244L272.012 170.756C270.294 173.762 267.844 176.096 264.623 177.769L266.005 180.431ZM274.605 172.264C276.696 168.731 277.714 164.625 277.714 160H274.714C274.714 164.175 273.799 167.735 272.023 170.736L274.605 172.264ZM277.714 160C277.714 155.313 276.698 151.2 274.598 147.724L272.03 149.276C273.797 152.2 274.714 155.753 274.714 160H277.714ZM274.616 147.756C272.598 144.224 269.708 141.52 265.985 139.658L264.643 142.342C267.854 143.947 270.297 146.243 272.012 149.244L274.616 147.756ZM266.016 139.674C262.358 137.738 258.074 136.8 253.214 136.8V139.8C257.688 139.8 261.47 140.662 264.612 142.326L266.016 139.674ZM253.214 136.8H238.414V139.8H253.214V136.8ZM236.914 138.3V181.7H239.914V138.3H236.914ZM304.831 195H303.331V196.5H304.831V195ZM304.831 125V123.5H303.331V125H304.831ZM321.031 125H322.531V123.5H321.031V125ZM321.031 195V196.5H322.531V195H321.031ZM306.331 195V125H303.331V195H306.331ZM304.831 126.5H321.031V123.5H304.831V126.5ZM319.531 125V195H322.531V125H319.531ZM321.031 193.5H304.831V196.5H321.031V193.5ZM352.144 195H350.644V196.5H352.144V195ZM352.144 138.2H353.644V136.7H352.144V138.2ZM329.744 138.2H328.244V139.7H329.744V138.2ZM329.744 125V123.5H328.244V125H329.744ZM390.744 125H392.244V123.5H390.744V125ZM390.744 138.2V139.7H392.244V138.2H390.744ZM368.344 138.2V136.7H366.844V138.2H368.344ZM368.344 195V196.5H369.844V195H368.344ZM353.644 195V138.2H350.644V195H353.644ZM352.144 136.7H329.744V139.7H352.144V136.7ZM331.244 138.2V125H328.244V138.2H331.244ZM329.744 126.5H390.744V123.5H329.744V126.5ZM389.244 125V138.2H392.244V125H389.244ZM390.744 136.7H368.344V139.7H390.744V136.7ZM366.844 138.2V195H369.844V138.2H366.844ZM368.344 193.5H352.144V196.5H368.344V193.5ZM399.46 195H397.96V196.5H399.46V195ZM399.46 125V123.5H397.96V125H399.46ZM415.66 125H417.16V123.5H415.66V125ZM415.66 195V196.5H417.16V195H415.66ZM400.96 195V125H397.96V195H400.96ZM399.46 126.5H415.66V123.5H399.46V126.5ZM414.16 125V195H417.16V125H414.16ZM415.66 193.5H399.46V196.5H415.66V193.5ZM450.873 193.5L450.333 194.9L450.339 194.902L450.873 193.5ZM438.673 185.9L437.633 186.982L437.639 186.987L437.644 186.992L438.673 185.9ZM430.673 174.4L429.292 174.986L429.296 174.995L429.299 175.003L430.673 174.4ZM430.673 145.6L429.299 144.997L429.296 145.005L429.292 145.014L430.673 145.6ZM438.773 134.1L439.801 135.192L438.773 134.1ZM450.973 126.5L450.433 125.1L450.433 125.1L450.973 126.5ZM481.373 126.5L480.826 127.897L480.833 127.899L481.373 126.5ZM493.473 134.1L492.433 135.182L492.439 135.187L492.444 135.192L493.473 134.1ZM501.573 145.6L500.199 146.203L500.203 146.211L501.573 145.6ZM501.573 174.5L502.946 175.103L502.949 175.096L501.573 174.5ZM493.473 186L494.501 187.092L494.501 187.092L493.473 186ZM481.373 193.5L480.833 192.1L480.826 192.103L481.373 193.5ZM474.773 180.8L474.216 179.407L474.203 179.412L474.773 180.8ZM481.773 176.2L480.712 175.139L480.712 175.139L481.773 176.2ZM486.373 169.1L484.987 168.525L484.981 168.54L484.975 168.555L486.373 169.1ZM486.373 150.9L484.975 151.445L484.981 151.46L484.987 151.475L486.373 150.9ZM481.773 143.8L480.694 144.843L480.703 144.852L480.712 144.861L481.773 143.8ZM474.873 139.2L474.316 140.593L474.316 140.593L474.873 139.2ZM457.473 139.2L456.916 137.807L456.903 137.812L457.473 139.2ZM450.573 143.8L451.633 144.861L451.633 144.861L450.573 143.8ZM445.873 150.9L444.487 150.325L444.481 150.34L444.475 150.355L445.873 150.9ZM445.873 169.1L444.471 169.634L444.479 169.654L444.487 169.675L445.873 169.1ZM450.473 176.2L449.394 177.243L449.403 177.252L449.412 177.261L450.473 176.2ZM457.473 180.8L456.916 182.193L456.916 182.193L457.473 180.8ZM466.273 194.7C460.905 194.7 455.954 193.827 451.406 192.098L450.339 194.902C455.258 196.773 460.574 197.7 466.273 197.7V194.7ZM451.412 192.1C446.918 190.367 443.02 187.935 439.701 184.808L437.644 186.992C441.259 190.398 445.494 193.033 450.333 194.9L451.412 192.1ZM439.712 184.818C436.456 181.69 433.902 178.02 432.046 173.797L429.299 175.003C431.31 179.58 434.089 183.576 437.633 186.982L439.712 184.818ZM432.054 173.814C430.272 169.615 429.373 165.017 429.373 160H426.373C426.373 165.383 427.34 170.385 429.292 174.986L432.054 173.814ZM429.373 160C429.373 154.983 430.272 150.385 432.054 146.186L429.292 145.014C427.34 149.615 426.373 154.617 426.373 160H429.373ZM432.046 146.203C433.899 141.986 436.482 138.319 439.801 135.192L437.744 133.008C434.129 136.414 431.313 140.414 429.299 144.997L432.046 146.203ZM439.801 135.192C443.12 132.065 447.018 129.633 451.512 127.899L450.433 125.1C445.594 126.967 441.359 129.602 437.744 133.008L439.801 135.192ZM451.512 127.899C455.992 126.172 460.873 125.3 466.173 125.3V122.3C460.539 122.3 455.287 123.228 450.433 125.1L451.512 127.899ZM466.173 125.3C471.541 125.3 476.42 126.173 480.826 127.897L481.919 125.103C477.125 123.227 471.871 122.3 466.173 122.3V125.3ZM480.833 127.899C485.325 129.632 489.186 132.061 492.433 135.182L494.512 133.018C490.96 129.605 486.754 126.968 481.912 125.1L480.833 127.899ZM492.444 135.192C495.763 138.319 498.346 141.986 500.199 146.203L502.946 144.997C500.932 140.414 498.116 136.414 494.501 133.008L492.444 135.192ZM500.203 146.211C502.041 150.332 502.973 154.921 502.973 160H505.973C505.973 154.546 504.971 149.535 502.943 144.989L500.203 146.211ZM502.973 160C502.973 165.009 502.043 169.638 500.196 173.904L502.949 175.096C504.969 170.428 505.973 165.391 505.973 160H502.973ZM500.199 173.897C498.346 178.114 495.763 181.781 492.444 184.908L494.501 187.092C498.116 183.686 500.932 179.686 502.946 175.103L500.199 173.897ZM492.445 184.908C489.196 187.965 485.331 190.365 480.833 192.1L481.912 194.9C486.747 193.035 490.95 190.435 494.501 187.092L492.445 184.908ZM480.826 192.103C476.418 193.828 471.572 194.7 466.273 194.7V197.7C471.906 197.7 477.127 196.772 481.919 194.897L480.826 192.103ZM466.173 183.9C469.479 183.9 472.542 183.337 475.342 182.188L474.203 179.412C471.804 180.397 469.133 180.9 466.173 180.9V183.9ZM475.33 182.193C478.182 181.052 480.687 179.407 482.833 177.261L480.712 175.139C478.858 176.993 476.697 178.415 474.216 179.407L475.33 182.193ZM482.833 177.261C484.985 175.108 486.631 172.564 487.77 169.645L484.975 168.555C483.981 171.102 482.56 173.291 480.712 175.139L482.833 177.261ZM487.758 169.675C488.976 166.737 489.573 163.506 489.573 160H486.573C486.573 163.161 486.036 165.996 484.987 168.525L487.758 169.675ZM489.573 160C489.573 156.494 488.976 153.263 487.758 150.325L484.987 151.475C486.036 154.004 486.573 156.839 486.573 160H489.573ZM487.77 150.355C486.631 147.436 484.985 144.891 482.833 142.739L480.712 144.861C482.56 146.708 483.981 148.898 484.975 151.445L487.77 150.355ZM482.851 142.757C480.766 140.6 478.286 138.95 475.43 137.807L474.316 140.593C476.792 141.583 478.913 143 480.694 144.843L482.851 142.757ZM475.43 137.807C472.57 136.664 469.479 136.1 466.173 136.1V139.1C469.133 139.1 471.842 139.603 474.316 140.593L475.43 137.807ZM466.173 136.1C462.866 136.1 459.775 136.664 456.916 137.807L458.03 140.593C460.504 139.603 463.213 139.1 466.173 139.1V136.1ZM456.903 137.812C454.118 138.955 451.652 140.6 449.512 142.739L451.633 144.861C453.494 143 455.627 141.579 458.042 140.588L456.903 137.812ZM449.512 142.739C447.366 144.885 445.692 147.419 444.487 150.325L447.258 151.475C448.32 148.914 449.779 146.715 451.633 144.861L449.512 142.739ZM444.475 150.355C443.332 153.284 442.773 156.505 442.773 160H445.773C445.773 156.828 446.28 153.983 447.27 151.445L444.475 150.355ZM442.773 160C442.773 163.433 443.334 166.649 444.471 169.634L447.274 168.566C446.278 165.951 445.773 163.101 445.773 160H442.773ZM444.487 169.675C445.688 172.571 447.322 175.099 449.394 177.243L451.551 175.157C449.757 173.301 448.324 171.096 447.258 168.525L444.487 169.675ZM449.412 177.261C451.558 179.407 454.063 181.052 456.916 182.193L458.03 179.407C455.549 178.415 453.387 176.993 451.533 175.139L449.412 177.261ZM456.916 182.193C459.775 183.336 462.866 183.9 466.173 183.9V180.9C463.213 180.9 460.504 180.397 458.03 179.407L456.916 182.193ZM516.648 195H515.148V196.5H516.648V195ZM516.648 125V123.5H515.148V125H516.648ZM530.048 125L531.208 124.049L530.758 123.5H530.048V125ZM571.348 175.4V176.9H574.516L572.508 174.449L571.348 175.4ZM564.848 175.4H563.348V176.9H564.848V175.4ZM564.848 125V123.5H563.348V125H564.848ZM580.848 125H582.348V123.5H580.848V125ZM580.848 195V196.5H582.348V195H580.848ZM567.548 195L566.389 195.952L566.839 196.5H567.548V195ZM526.148 144.6V143.1H522.974L524.989 145.552L526.148 144.6ZM532.648 144.6H534.148V143.1H532.648V144.6ZM532.648 195V196.5H534.148V195H532.648ZM518.148 195V125H515.148V195H518.148ZM516.648 126.5H530.048V123.5H516.648V126.5ZM528.887 125.951L570.187 176.351L572.508 174.449L531.208 124.049L528.887 125.951ZM571.348 173.9H564.848V176.9H571.348V173.9ZM566.348 175.4V125H563.348V175.4H566.348ZM564.848 126.5H580.848V123.5H564.848V126.5ZM579.348 125V195H582.348V125H579.348ZM580.848 193.5H567.548V196.5H580.848V193.5ZM568.707 194.048L527.307 143.648L524.989 145.552L566.389 195.952L568.707 194.048ZM526.148 146.1H532.648V143.1H526.148V146.1ZM531.148 144.6V195H534.148V144.6H531.148ZM532.648 193.5H516.648V196.5H532.648V193.5ZM604.309 194L603.88 195.437L603.889 195.44L603.897 195.442L604.309 194ZM591.909 188.1L590.542 187.484L590.053 188.568L590.997 189.291L591.909 188.1ZM597.409 175.9L598.279 174.678L596.792 173.62L596.042 175.284L597.409 175.9ZM608.009 181.2L607.521 182.618L607.535 182.623L607.549 182.628L608.009 181.2ZM628.209 182.3L628.654 183.733L628.669 183.728L628.684 183.723L628.209 182.3ZM632.609 179.6L631.451 178.646L631.451 178.646L632.609 179.6ZM631.809 171.3L630.892 172.487L630.909 172.5L630.927 172.513L631.809 171.3ZM626.009 168.6L625.571 170.035L625.589 170.04L625.608 170.045L626.009 168.6ZM618.009 166.6L617.67 168.061L617.689 168.066L617.709 168.07L618.009 166.6ZM609.309 164.2L608.845 165.626L608.855 165.629L609.309 164.2ZM601.409 160.6L600.627 161.88L600.627 161.88L601.409 160.6ZM595.509 154.8L594.229 155.582L594.237 155.595L594.245 155.608L595.509 154.8ZM596.509 134.7L595.257 133.874L595.253 133.88L596.509 134.7ZM606.309 126.8L606.921 128.17L606.93 128.166L606.309 126.8ZM635.809 125.4L635.446 126.855L635.456 126.858L635.467 126.86L635.809 125.4ZM647.109 130L648.499 130.565L648.971 129.403L647.911 128.732L647.109 130ZM642.109 142.3L641.365 143.602L642.853 144.453L643.499 142.865L642.109 142.3ZM632.309 138.2L631.897 139.642L631.911 139.646L631.925 139.65L632.309 138.2ZM615.009 137.9L614.493 136.492L614.493 136.492L615.009 137.9ZM610.709 140.8L611.901 141.711L611.913 141.695L611.925 141.678L610.709 140.8ZM611.609 149.2L610.692 150.387L610.709 150.4L610.727 150.413L611.609 149.2ZM617.409 151.8L617.008 153.245L617.008 153.245L617.409 151.8ZM625.309 153.8L624.97 155.261L624.977 155.263L625.309 153.8ZM634.009 156.1L633.575 157.536L633.584 157.539L634.009 156.1ZM642.009 159.6L642.792 158.32L642.792 158.32L642.009 159.6ZM647.809 165.4L646.529 166.182L646.537 166.195L646.545 166.208L647.809 165.4ZM646.809 185.3L648.054 186.138L648.054 186.138L646.809 185.3ZM636.909 193.2L636.289 191.834L636.281 191.838L636.909 193.2ZM620.409 194.7C614.942 194.7 609.714 193.984 604.721 192.558L603.897 195.442C609.171 196.949 614.677 197.7 620.409 197.7V194.7ZM604.739 192.563C599.722 191.064 595.769 189.167 592.821 186.909L590.997 189.291C594.317 191.833 598.631 193.869 603.88 195.437L604.739 192.563ZM593.277 188.716L598.777 176.516L596.042 175.284L590.542 187.484L593.277 188.716ZM596.54 177.122C599.675 179.352 603.341 181.179 607.521 182.618L608.498 179.782C604.544 178.421 601.144 176.715 598.279 174.678L596.54 177.122ZM607.549 182.628C611.826 184.007 616.148 184.7 620.509 184.7V181.7C616.471 181.7 612.46 181.059 608.47 179.772L607.549 182.628ZM620.509 184.7C623.783 184.7 626.518 184.395 628.654 183.733L627.765 180.867C626.034 181.405 623.635 181.7 620.509 181.7V184.7ZM628.684 183.723C630.841 183.004 632.593 181.98 633.767 180.554L631.451 178.646C630.759 179.487 629.578 180.263 627.735 180.877L628.684 183.723ZM633.767 180.554C634.922 179.152 635.509 177.515 635.509 175.7H632.509C632.509 176.818 632.164 177.781 631.451 178.646L633.767 180.554ZM635.509 175.7C635.509 173.37 634.56 171.445 632.692 170.087L630.927 172.513C631.992 173.288 632.509 174.297 632.509 175.7H635.509ZM632.727 170.113C631.063 168.828 628.937 167.857 626.411 167.155L625.608 170.045C627.881 170.677 629.622 171.505 630.892 172.487L632.727 170.113ZM626.448 167.165C623.995 166.416 621.281 165.738 618.31 165.13L617.709 168.07C620.604 168.662 623.224 169.317 625.571 170.035L626.448 167.165ZM618.349 165.139C615.523 164.482 612.661 163.692 609.764 162.771L608.855 165.629C611.824 166.574 614.762 167.385 617.67 168.061L618.349 165.139ZM609.774 162.774C607.01 161.874 604.485 160.722 602.192 159.32L600.627 161.88C603.134 163.412 605.875 164.659 608.845 165.626L609.774 162.774ZM602.192 159.32C599.988 157.974 598.186 156.203 596.773 153.992L594.245 155.608C595.9 158.197 598.03 160.293 600.627 161.88L602.192 159.32ZM596.789 154.018C595.506 151.919 594.809 149.145 594.809 145.6H591.809C591.809 149.521 592.579 152.881 594.229 155.582L596.789 154.018ZM594.809 145.6C594.809 141.884 595.795 138.537 597.765 135.52L595.253 133.88C592.957 137.397 591.809 141.316 591.809 145.6H594.809ZM597.761 135.526C599.776 132.473 602.798 130.009 606.921 128.17L605.698 125.43C601.154 127.458 597.642 130.26 595.257 133.874L597.761 135.526ZM606.93 128.166C611.078 126.28 616.35 125.3 622.809 125.3V122.3C616.069 122.3 610.341 123.32 605.689 125.434L606.93 128.166ZM622.809 125.3C627.087 125.3 631.298 125.818 635.446 126.855L636.173 123.945C631.787 122.848 627.332 122.3 622.809 122.3V125.3ZM635.467 126.86C639.592 127.827 643.2 129.301 646.307 131.268L647.911 128.732C644.486 126.565 640.56 124.973 636.152 123.94L635.467 126.86ZM645.72 129.435L640.72 141.735L643.499 142.865L648.499 130.565L645.72 129.435ZM642.854 140.998C639.487 139.074 636.1 137.654 632.694 136.75L631.925 139.65C635.052 140.48 638.199 141.793 641.365 143.602L642.854 140.998ZM632.721 136.758C629.332 135.789 625.993 135.3 622.709 135.3V138.3C625.692 138.3 628.753 138.744 631.897 139.642L632.721 136.758ZM622.709 135.3C619.475 135.3 616.717 135.676 614.493 136.492L615.526 139.308C617.302 138.657 619.677 138.3 622.709 138.3V135.3ZM614.493 136.492C612.33 137.285 610.596 138.394 609.493 139.922L611.925 141.678C612.556 140.806 613.689 139.982 615.526 139.308L614.493 136.492ZM609.518 139.889C608.436 141.304 607.909 142.964 607.909 144.8H610.909C610.909 143.57 611.25 142.563 611.901 141.711L609.518 139.889ZM607.909 144.8C607.909 147.08 608.871 148.979 610.692 150.387L612.527 148.013C611.415 147.154 610.909 146.12 610.909 144.8H607.909ZM610.727 150.413C612.382 151.617 614.495 152.547 617.008 153.245L617.811 150.355C615.524 149.719 613.77 148.917 612.492 147.987L610.727 150.413ZM617.008 153.245C619.432 153.919 622.086 154.59 624.97 155.261L625.649 152.339C622.8 151.676 620.187 151.015 617.811 150.355L617.008 153.245ZM624.977 155.263C627.876 155.922 630.742 156.679 633.575 157.536L634.443 154.664C631.543 153.787 628.609 153.012 625.642 152.337L624.977 155.263ZM633.584 157.539C636.403 158.371 638.948 159.487 641.227 160.88L642.792 158.32C640.271 156.78 637.482 155.562 634.434 154.661L633.584 157.539ZM641.227 160.88C643.424 162.223 645.187 163.985 646.529 166.182L649.089 164.618C647.499 162.015 645.395 159.911 642.792 158.32L641.227 160.88ZM646.545 166.208C647.886 168.306 648.609 171.038 648.609 174.5H651.609C651.609 170.628 650.799 167.294 649.073 164.592L646.545 166.208ZM648.609 174.5C648.609 178.134 647.599 181.443 645.565 184.462L648.054 186.138C650.42 182.624 651.609 178.732 651.609 174.5H648.609ZM645.565 184.462C643.552 187.451 640.493 189.923 636.289 191.834L637.53 194.566C642.125 192.477 645.667 189.682 648.054 186.138L645.565 184.462ZM636.281 191.838C632.207 193.719 626.94 194.7 620.409 194.7V197.7C627.213 197.7 632.946 196.681 637.538 194.562L636.281 191.838ZM659.332 210.4L657.886 210.002L657.364 211.9H659.332V210.4ZM665.932 186.4L667.389 186.044L666.017 180.432L664.486 186.002L665.932 186.4ZM668.132 195.4V196.9H670.043L669.589 195.044L668.132 195.4ZM661.032 192.9L660.013 194.001L660.023 194.01L660.033 194.019L661.032 192.9ZM661.132 179L660.111 177.901L660.111 177.901L661.132 179ZM674.932 179.1L673.871 180.161L673.881 180.171L673.892 180.18L674.932 179.1ZM677.432 188.6L678.912 188.847L678.913 188.837L678.915 188.828L677.432 188.6ZM676.632 191.6L675.209 191.126L675.201 191.151L675.193 191.177L676.632 191.6ZM674.932 196L673.561 195.391L673.549 195.419L673.537 195.448L674.932 196ZM669.232 210.4V211.9H670.252L670.627 210.952L669.232 210.4ZM660.778 210.798L667.378 186.798L664.486 186.002L657.886 210.002L660.778 210.798ZM664.475 186.756L666.675 195.756L669.589 195.044L667.389 186.044L664.475 186.756ZM668.132 193.9C665.577 193.9 663.583 193.167 662.031 191.781L660.033 194.019C662.214 195.967 664.954 196.9 668.132 196.9V193.9ZM662.051 191.799C660.617 190.472 659.832 188.604 659.832 186H656.832C656.832 189.262 657.847 191.995 660.013 194.001L662.051 191.799ZM659.832 186C659.832 183.414 660.639 181.505 662.153 180.099L660.111 177.901C657.892 179.962 656.832 182.719 656.832 186H659.832ZM662.153 180.099C663.721 178.643 665.647 177.9 668.032 177.9V174.9C664.95 174.9 662.277 175.89 660.111 177.901L662.153 180.099ZM668.032 177.9C670.478 177.9 672.382 178.671 673.871 180.161L675.993 178.039C673.882 175.929 671.186 174.9 668.032 174.9V177.9ZM673.892 180.18C675.354 181.589 676.132 183.475 676.132 186H679.132C679.132 182.791 678.11 180.078 675.972 178.02L673.892 180.18ZM676.132 186C676.132 186.789 676.071 187.58 675.949 188.372L678.915 188.828C679.059 187.887 679.132 186.944 679.132 186H676.132ZM675.952 188.353C675.837 189.046 675.596 189.964 675.209 191.126L678.055 192.074C678.468 190.836 678.76 189.754 678.912 188.847L675.952 188.353ZM675.193 191.177C674.886 192.219 674.35 193.617 673.561 195.391L676.303 196.609C677.114 194.783 677.711 193.248 678.071 192.023L675.193 191.177ZM673.537 195.448L667.837 209.848L670.627 210.952L676.327 196.552L673.537 195.448ZM669.232 208.9H659.332V211.9H669.232V208.9ZM25.2 275.2V273.7H23.7V275.2H25.2ZM58.9 275.2H60.4V273.7H58.9V275.2ZM58.9 287.8V289.3H60.4V287.8H58.9ZM25.2 287.8H23.7V289.3H25.2V287.8ZM26.4 304H24.9V305.5H26.4V304ZM64.5 304H66V302.5H64.5V304ZM64.5 317V318.5H66V317H64.5ZM10.3 317H8.8V318.5H10.3V317ZM10.3 247V245.5H8.8V247H10.3ZM63.2 247H64.7V245.5H63.2V247ZM63.2 260V261.5H64.7V260H63.2ZM26.4 260V258.5H24.9V260H26.4ZM25.2 276.7H58.9V273.7H25.2V276.7ZM57.4 275.2V287.8H60.4V275.2H57.4ZM58.9 286.3H25.2V289.3H58.9V286.3ZM26.7 287.8V275.2H23.7V287.8H26.7ZM26.4 305.5H64.5V302.5H26.4V305.5ZM63 304V317H66V304H63ZM64.5 315.5H10.3V318.5H64.5V315.5ZM11.8 317V247H8.8V317H11.8ZM10.3 248.5H63.2V245.5H10.3V248.5ZM61.7 247V260H64.7V247H61.7ZM63.2 258.5H26.4V261.5H63.2V258.5ZM24.9 260V304H27.9V260H24.9ZM77.3898 317H75.8898V318.5H77.3898V317ZM77.3898 247V245.5H75.8898V247H77.3898ZM90.7898 247L91.9501 246.049L91.5 245.5H90.7898V247ZM132.09 297.4V298.9H135.258L133.25 296.449L132.09 297.4ZM125.59 297.4H124.09V298.9H125.59V297.4ZM125.59 247V245.5H124.09V247H125.59ZM141.59 247H143.09V245.5H141.59V247ZM141.59 317V318.5H143.09V317H141.59ZM128.29 317L127.131 317.952L127.581 318.5H128.29V317ZM86.8898 266.6V265.1H83.7165L85.7308 267.552L86.8898 266.6ZM93.3898 266.6H94.8898V265.1H93.3898V266.6ZM93.3898 317V318.5H94.8898V317H93.3898ZM78.8898 317V247H75.8898V317H78.8898ZM77.3898 248.5H90.7898V245.5H77.3898V248.5ZM89.6296 247.951L130.93 298.351L133.25 296.449L91.9501 246.049L89.6296 247.951ZM132.09 295.9H125.59V298.9H132.09V295.9ZM127.09 297.4V247H124.09V297.4H127.09ZM125.59 248.5H141.59V245.5H125.59V248.5ZM140.09 247V317H143.09V247H140.09ZM141.59 315.5H128.29V318.5H141.59V315.5ZM129.449 316.048L88.0489 265.648L85.7308 267.552L127.131 317.952L129.449 316.048ZM86.8898 268.1H93.3898V265.1H86.8898V268.1ZM91.8898 266.6V317H94.8898V266.6H91.8898ZM93.3898 315.5H77.3898V318.5H93.3898V315.5ZM173.052 275.2V273.7H171.552V275.2H173.052ZM206.752 275.2H208.252V273.7H206.752V275.2ZM206.752 287.8V289.3H208.252V287.8H206.752ZM173.052 287.8H171.552V289.3H173.052V287.8ZM174.252 304H172.752V305.5H174.252V304ZM212.352 304H213.852V302.5H212.352V304ZM212.352 317V318.5H213.852V317H212.352ZM158.152 317H156.652V318.5H158.152V317ZM158.152 247V245.5H156.652V247H158.152ZM211.052 247H212.552V245.5H211.052V247ZM211.052 260V261.5H212.552V260H211.052ZM174.252 260V258.5H172.752V260H174.252ZM173.052 276.7H206.752V273.7H173.052V276.7ZM205.252 275.2V287.8H208.252V275.2H205.252ZM206.752 286.3H173.052V289.3H206.752V286.3ZM174.552 287.8V275.2H171.552V287.8H174.552ZM174.252 305.5H212.352V302.5H174.252V305.5ZM210.852 304V317H213.852V304H210.852ZM212.352 315.5H158.152V318.5H212.352V315.5ZM159.652 317V247H156.652V317H159.652ZM158.152 248.5H211.052V245.5H158.152V248.5ZM209.552 247V260H212.552V247H209.552ZM211.052 258.5H174.252V261.5H211.052V258.5ZM172.752 260V304H175.752V260H172.752ZM225.241 317H223.741V318.5H225.241V317ZM225.241 247V245.5H223.741V247H225.241ZM271.741 250.1L271.119 251.465L271.128 251.469L271.136 251.472L271.741 250.1ZM282.241 258.8L280.983 259.617L280.983 259.617L282.241 258.8ZM282.241 285.9L283.493 286.727L283.5 286.717L282.241 285.9ZM271.741 294.5L272.347 295.872L272.347 295.872L271.741 294.5ZM234.241 297.5L233.188 296.432L230.584 299H234.241V297.5ZM241.441 290.4H242.941V286.814L240.388 289.332L241.441 290.4ZM241.441 317V318.5H242.941V317H241.441ZM269.741 317L268.506 317.851L268.953 318.5H269.741V317ZM252.241 291.6V290.1H249.386L251.006 292.451L252.241 291.6ZM269.541 291.6L270.772 290.742L270.324 290.1H269.541V291.6ZM287.241 317V318.5H290.115L288.472 316.142L287.241 317ZM241.441 292.2L240.352 293.232L242.941 295.964V292.2H241.441ZM234.241 284.6V283.1H230.754L233.152 285.632L234.241 284.6ZM265.841 281.4L266.823 282.535L266.831 282.527L266.84 282.519L265.841 281.4ZM234.241 260.2L233.146 259.176L230.785 261.7H234.241V260.2ZM241.441 252.5H242.941V248.7L240.346 251.476L241.441 252.5ZM226.741 317V247H223.741V317H226.741ZM225.241 248.5H255.541V245.5H225.241V248.5ZM255.541 248.5C261.647 248.5 266.825 249.507 271.119 251.465L272.364 248.735C267.591 246.56 261.969 245.5 255.541 245.5V248.5ZM271.136 251.472C275.428 253.366 278.69 256.084 280.983 259.617L283.5 257.983C280.859 253.916 277.121 250.834 272.347 248.728L271.136 251.472ZM280.983 259.617C283.268 263.136 284.441 267.375 284.441 272.4H287.441C287.441 266.892 286.148 262.064 283.5 257.983L280.983 259.617ZM284.441 272.4C284.441 277.354 283.27 281.561 280.983 285.083L283.5 286.717C286.146 282.639 287.441 277.846 287.441 272.4H284.441ZM280.99 285.073C278.699 288.541 275.435 291.231 271.136 293.128L272.347 295.872C277.114 293.769 280.851 290.726 283.493 286.727L280.99 285.073ZM271.136 293.128C266.837 295.024 261.653 296 255.541 296V299C261.963 299 267.579 297.976 272.347 295.872L271.136 293.128ZM255.541 296H234.241V299H255.541V296ZM235.295 298.568L242.495 291.468L240.388 289.332L233.188 296.432L235.295 298.568ZM239.941 290.4V317H242.941V290.4H239.941ZM241.441 315.5H225.241V318.5H241.441V315.5ZM270.977 316.149L253.477 290.749L251.006 292.451L268.506 317.851L270.977 316.149ZM252.241 293.1H269.541V290.1H252.241V293.1ZM268.311 292.458L286.011 317.858L288.472 316.142L270.772 290.742L268.311 292.458ZM287.241 315.5H269.741V318.5H287.241V315.5ZM242.53 291.168L235.33 283.568L233.152 285.632L240.352 293.232L242.53 291.168ZM234.241 286.1H254.641V283.1H234.241V286.1ZM254.641 286.1C259.817 286.1 263.971 285.001 266.823 282.535L264.86 280.265C262.779 282.065 259.465 283.1 254.641 283.1V286.1ZM266.84 282.519C269.675 279.991 271.041 276.557 271.041 272.4H268.041C268.041 275.843 266.941 278.409 264.843 280.281L266.84 282.519ZM271.041 272.4C271.041 268.187 269.681 264.737 266.823 262.265L264.86 264.535C266.936 266.329 268.041 268.88 268.041 272.4H271.041ZM266.823 262.265C263.971 259.799 259.817 258.7 254.641 258.7V261.7C259.465 261.7 262.779 262.735 264.86 264.535L266.823 262.265ZM254.641 258.7H234.241V261.7H254.641V258.7ZM235.337 261.224L242.537 253.524L240.346 251.476L233.146 259.176L235.337 261.224ZM239.941 252.5V292.2H242.941V252.5H239.941ZM317.277 315.6L316.73 316.997L316.742 317.002L316.754 317.006L317.277 315.6ZM305.177 308L304.137 309.082L304.143 309.087L304.148 309.092L305.177 308ZM297.177 296.5L295.796 297.086L295.799 297.095L295.803 297.103L297.177 296.5ZM297.177 267.5L295.803 266.897L295.799 266.905L295.796 266.914L297.177 267.5ZM305.277 256L306.305 257.092L306.305 257.092L305.277 256ZM317.477 248.5L317.999 249.906L318.008 249.903L318.016 249.899L317.477 248.5ZM349.577 248.9L348.997 250.284L349.004 250.286L349.577 248.9ZM362.177 257.9L363.194 259.002L364.261 258.017L363.311 256.919L362.177 257.9ZM351.777 267.5L350.689 268.533L351.707 269.605L352.794 268.602L351.777 267.5ZM343.477 261.6L342.867 262.971L342.88 262.976L342.893 262.982L343.477 261.6ZM317.077 265.8L316.033 264.722L316.025 264.731L316.016 264.739L317.077 265.8ZM312.377 272.9L310.991 272.325L310.985 272.34L310.979 272.355L312.377 272.9ZM312.377 291L310.979 291.545L310.985 291.56L310.991 291.575L312.377 291ZM317.077 298.2L315.999 299.243L316.016 299.261L316.033 299.278L317.077 298.2ZM324.277 302.8L323.731 304.197L323.743 304.202L324.277 302.8ZM342.777 302.9L343.251 304.323L343.26 304.32L343.269 304.317L342.777 302.9ZM351.677 297.6L352.856 296.673L351.887 295.44L350.698 296.463L351.677 297.6ZM360.877 309.3L361.78 310.497L363.002 309.576L362.056 308.373L360.877 309.3ZM347.577 315.9L347.142 314.464L347.137 314.466L347.577 315.9ZM346.077 307.2H344.577V308.502L345.866 308.685L346.077 307.2ZM346.077 280.9V279.4H344.577V280.9H346.077ZM360.877 280.9H362.377V279.4H360.877V280.9ZM360.877 309.3L360.666 310.785L362.377 311.028V309.3H360.877ZM332.577 316.7C327.202 316.7 322.281 315.859 317.799 314.194L316.754 317.006C321.606 318.808 326.885 319.7 332.577 319.7V316.7ZM317.823 314.203C313.395 312.47 309.527 310.038 306.205 306.908L304.148 309.092C307.759 312.495 311.958 315.13 316.73 316.997L317.823 314.203ZM306.216 306.918C302.96 303.79 300.406 300.12 298.55 295.897L295.803 297.103C297.814 301.68 300.593 305.676 304.137 309.082L306.216 306.918ZM298.557 295.914C296.777 291.718 295.877 287.086 295.877 282H292.877C292.877 287.447 293.843 292.482 295.796 297.086L298.557 295.914ZM295.877 282C295.877 276.914 296.777 272.282 298.557 268.086L295.796 266.914C293.843 271.518 292.877 276.553 292.877 282H295.877ZM298.55 268.103C300.403 263.886 302.986 260.219 306.305 257.092L304.248 254.908C300.633 258.314 297.817 262.314 295.803 266.897L298.55 268.103ZM306.305 257.092C309.619 253.969 313.512 251.573 317.999 249.906L316.954 247.094C312.108 248.894 307.867 251.498 304.248 254.908L306.305 257.092ZM318.016 249.899C322.491 248.173 327.439 247.3 332.877 247.3V244.3C327.114 244.3 321.795 245.227 316.937 247.1L318.016 249.899ZM332.877 247.3C338.909 247.3 344.274 248.305 348.997 250.284L350.156 247.516C345.012 245.362 339.244 244.3 332.877 244.3V247.3ZM349.004 250.286C353.796 252.267 357.801 255.132 361.042 258.881L363.311 256.919C359.752 252.801 355.357 249.666 350.15 247.514L349.004 250.286ZM361.159 256.798L350.759 266.398L352.794 268.602L363.194 259.002L361.159 256.798ZM352.864 266.467C350.207 263.67 347.273 261.575 344.06 260.218L342.893 262.982C345.68 264.158 348.28 265.997 350.689 268.533L352.864 266.467ZM344.086 260.229C340.88 258.804 337.404 258.1 333.677 258.1V261.1C337.016 261.1 340.073 261.729 342.867 262.971L344.086 260.229ZM333.677 258.1C330.118 258.1 326.834 258.658 323.843 259.798L324.911 262.602C327.519 261.608 330.435 261.1 333.677 261.1V258.1ZM323.843 259.798C320.861 260.934 318.252 262.575 316.033 264.722L318.12 266.878C320.034 265.025 322.292 263.599 324.911 262.602L323.843 259.798ZM316.016 264.739C313.87 266.885 312.196 269.419 310.991 272.325L313.762 273.475C314.824 270.914 316.283 268.715 318.137 266.861L316.016 264.739ZM310.979 272.355C309.836 275.284 309.277 278.505 309.277 282H312.277C312.277 278.828 312.784 275.983 313.774 273.445L310.979 272.355ZM309.277 282C309.277 285.432 309.837 288.62 310.979 291.545L313.774 290.455C312.782 287.914 312.277 285.101 312.277 282H309.277ZM310.991 291.575C312.194 294.477 313.864 297.037 315.999 299.243L318.154 297.157C316.289 295.23 314.825 292.99 313.762 290.425L310.991 291.575ZM316.033 299.278C318.246 301.419 320.816 303.06 323.731 304.197L324.822 301.403C322.27 300.407 320.04 298.981 318.12 297.122L316.033 299.278ZM323.743 304.202C326.731 305.34 329.981 305.9 333.477 305.9V302.9C330.305 302.9 327.422 302.393 324.811 301.398L323.743 304.202ZM333.477 305.9C336.836 305.9 340.096 305.375 343.251 304.323L342.302 301.477C339.457 302.425 336.517 302.9 333.477 302.9V305.9ZM343.269 304.317C346.541 303.179 349.669 301.307 352.655 298.737L350.698 296.463C347.951 298.827 345.146 300.488 342.284 301.483L343.269 304.317ZM350.497 298.527L359.697 310.227L362.056 308.373L352.856 296.673L350.497 298.527ZM359.973 308.103C356.329 310.852 352.059 312.976 347.142 314.464L348.011 317.336C353.228 315.757 357.824 313.482 361.78 310.497L359.973 308.103ZM347.137 314.466C342.273 315.958 337.421 316.7 332.577 316.7V319.7C337.732 319.7 342.88 318.909 348.016 317.334L347.137 314.466ZM347.577 307.2V280.9H344.577V307.2H347.577ZM346.077 282.4H360.877V279.4H346.077V282.4ZM359.377 280.9V309.3H362.377V280.9H359.377ZM361.087 307.815L346.287 305.715L345.866 308.685L360.666 310.785L361.087 307.815ZM375.925 317H374.425V318.5H375.925V317ZM375.925 247V245.5H374.425V247H375.925ZM392.125 247H393.625V245.5H392.125V247ZM392.125 317V318.5H393.625V317H392.125ZM377.425 317V247H374.425V317H377.425ZM375.925 248.5H392.125V245.5H375.925V248.5ZM390.625 247V317H393.625V247H390.625ZM392.125 315.5H375.925V318.5H392.125V315.5ZM404.238 317H402.738V318.5H404.238V317ZM404.238 306.5L403.083 305.542L402.738 305.959V306.5H404.238ZM447.538 254.3L448.958 253.818L448.096 251.277L446.383 253.342L447.538 254.3ZM449.538 260.2V261.7H451.63L450.958 259.718L449.538 260.2ZM405.038 260.2H403.538V261.7H405.038V260.2ZM405.038 247V245.5H403.538V247H405.038ZM463.938 247H465.438V245.5H463.938V247ZM463.938 257.5L465.093 258.456L465.438 258.04V257.5H463.938ZM420.738 309.7L419.317 310.182L420.18 312.727L421.893 310.656L420.738 309.7ZM418.738 303.8V302.3H416.645L417.317 304.282L418.738 303.8ZM465.438 303.8H466.938V302.3H465.438V303.8ZM465.438 317V318.5H466.938V317H465.438ZM405.738 317V306.5H402.738V317H405.738ZM405.392 307.458L448.692 255.258L446.383 253.342L403.083 305.542L405.392 307.458ZM446.117 254.782L448.117 260.682L450.958 259.718L448.958 253.818L446.117 254.782ZM449.538 258.7H405.038V261.7H449.538V258.7ZM406.538 260.2V247H403.538V260.2H406.538ZM405.038 248.5H463.938V245.5H405.038V248.5ZM462.438 247V257.5H465.438V247H462.438ZM462.782 256.544L419.582 308.744L421.893 310.656L465.093 258.456L462.782 256.544ZM422.158 309.218L420.158 303.318L417.317 304.282L419.317 310.182L422.158 309.218ZM418.738 305.3H465.438V302.3H418.738V305.3ZM463.938 303.8V317H466.938V303.8H463.938ZM465.438 315.5H404.238V318.5H465.438V315.5ZM475.827 317H474.327V318.5H475.827V317ZM475.827 247V245.5H474.327V247H475.827ZM492.027 247H493.527V245.5H492.027V247ZM492.027 317V318.5H493.527V317H492.027ZM477.327 317V247H474.327V317H477.327ZM475.827 248.5H492.027V245.5H475.827V248.5ZM490.527 247V317H493.527V247H490.527ZM492.027 315.5H475.827V318.5H492.027V315.5ZM508.64 317H507.14V318.5H508.64V317ZM508.64 247V245.5H507.14V247H508.64ZM522.04 247L523.2 246.049L522.75 245.5H522.04V247ZM563.34 297.4V298.9H566.508L564.5 296.449L563.34 297.4ZM556.84 297.4H555.34V298.9H556.84V297.4ZM556.84 247V245.5H555.34V247H556.84ZM572.84 247H574.34V245.5H572.84V247ZM572.84 317V318.5H574.34V317H572.84ZM559.54 317L558.381 317.952L558.831 318.5H559.54V317ZM518.14 266.6V265.1H514.967L516.981 267.552L518.14 266.6ZM524.64 266.6H526.14V265.1H524.64V266.6ZM524.64 317V318.5H526.14V317H524.64ZM510.14 317V247H507.14V317H510.14ZM508.64 248.5H522.04V245.5H508.64V248.5ZM520.88 247.951L562.18 298.351L564.5 296.449L523.2 246.049L520.88 247.951ZM563.34 295.9H556.84V298.9H563.34V295.9ZM558.34 297.4V247H555.34V297.4H558.34ZM556.84 248.5H572.84V245.5H556.84V248.5ZM571.34 247V317H574.34V247H571.34ZM572.84 315.5H559.54V318.5H572.84V315.5ZM560.699 316.048L519.299 265.648L516.981 267.552L558.381 317.952L560.699 316.048ZM518.14 268.1H524.64V265.1H518.14V268.1ZM523.14 266.6V317H526.14V266.6H523.14ZM524.64 315.5H508.64V318.5H524.64V315.5ZM607.902 315.6L607.355 316.997L607.367 317.002L607.379 317.006L607.902 315.6ZM595.802 308L594.762 309.082L594.768 309.087L594.773 309.092L595.802 308ZM587.802 296.5L586.421 297.086L586.424 297.095L586.428 297.103L587.802 296.5ZM587.802 267.5L586.428 266.897L586.424 266.905L586.421 266.914L587.802 267.5ZM595.902 256L596.93 257.092L596.93 257.092L595.902 256ZM608.102 248.5L608.624 249.906L608.633 249.903L608.641 249.899L608.102 248.5ZM640.202 248.9L639.622 250.284L639.629 250.286L640.202 248.9ZM652.802 257.9L653.819 259.002L654.886 258.017L653.936 256.919L652.802 257.9ZM642.402 267.5L641.314 268.533L642.332 269.605L643.419 268.602L642.402 267.5ZM634.102 261.6L633.492 262.971L633.505 262.976L633.518 262.982L634.102 261.6ZM607.702 265.8L606.658 264.722L606.65 264.731L606.641 264.739L607.702 265.8ZM603.002 272.9L601.616 272.325L601.61 272.34L601.604 272.355L603.002 272.9ZM603.002 291L601.604 291.545L601.61 291.56L601.616 291.575L603.002 291ZM607.702 298.2L606.624 299.243L606.641 299.261L606.658 299.278L607.702 298.2ZM614.902 302.8L614.356 304.197L614.368 304.202L614.902 302.8ZM633.402 302.9L633.876 304.323L633.885 304.32L633.894 304.317L633.402 302.9ZM642.302 297.6L643.481 296.673L642.512 295.44L641.323 296.463L642.302 297.6ZM651.502 309.3L652.405 310.497L653.627 309.576L652.681 308.373L651.502 309.3ZM638.202 315.9L637.767 314.464L637.762 314.466L638.202 315.9ZM636.702 307.2H635.202V308.502L636.491 308.685L636.702 307.2ZM636.702 280.9V279.4H635.202V280.9H636.702ZM651.502 280.9H653.002V279.4H651.502V280.9ZM651.502 309.3L651.291 310.785L653.002 311.028V309.3H651.502ZM623.202 316.7C617.827 316.7 612.906 315.859 608.424 314.194L607.379 317.006C612.231 318.808 617.51 319.7 623.202 319.7V316.7ZM608.448 314.203C604.02 312.47 600.152 310.038 596.83 306.908L594.773 309.092C598.384 312.495 602.583 315.13 607.355 316.997L608.448 314.203ZM596.841 306.918C593.585 303.79 591.031 300.12 589.175 295.897L586.428 297.103C588.439 301.68 591.218 305.676 594.762 309.082L596.841 306.918ZM589.182 295.914C587.402 291.718 586.502 287.086 586.502 282H583.502C583.502 287.447 584.468 292.482 586.421 297.086L589.182 295.914ZM586.502 282C586.502 276.914 587.402 272.282 589.182 268.086L586.421 266.914C584.468 271.518 583.502 276.553 583.502 282H586.502ZM589.175 268.103C591.028 263.886 593.611 260.219 596.93 257.092L594.873 254.908C591.258 258.314 588.442 262.314 586.428 266.897L589.175 268.103ZM596.93 257.092C600.244 253.969 604.137 251.573 608.624 249.906L607.579 247.094C602.733 248.894 598.492 251.498 594.873 254.908L596.93 257.092ZM608.641 249.899C613.116 248.173 618.064 247.3 623.502 247.3V244.3C617.739 244.3 612.42 245.227 607.562 247.1L608.641 249.899ZM623.502 247.3C629.534 247.3 634.899 248.305 639.622 250.284L640.781 247.516C635.637 245.362 629.869 244.3 623.502 244.3V247.3ZM639.629 250.286C644.421 252.267 648.426 255.132 651.667 258.881L653.936 256.919C650.377 252.801 645.982 249.666 640.775 247.514L639.629 250.286ZM651.784 256.798L641.384 266.398L643.419 268.602L653.819 259.002L651.784 256.798ZM643.489 266.467C640.832 263.67 637.898 261.575 634.685 260.218L633.518 262.982C636.305 264.158 638.905 265.997 641.314 268.533L643.489 266.467ZM634.711 260.229C631.505 258.804 628.029 258.1 624.302 258.1V261.1C627.641 261.1 630.698 261.729 633.492 262.971L634.711 260.229ZM624.302 258.1C620.743 258.1 617.459 258.658 614.468 259.798L615.536 262.602C618.144 261.608 621.06 261.1 624.302 261.1V258.1ZM614.468 259.798C611.486 260.934 608.877 262.575 606.658 264.722L608.745 266.878C610.659 265.025 612.917 263.599 615.536 262.602L614.468 259.798ZM606.641 264.739C604.495 266.885 602.821 269.419 601.616 272.325L604.387 273.475C605.449 270.914 606.908 268.715 608.762 266.861L606.641 264.739ZM601.604 272.355C600.461 275.284 599.902 278.505 599.902 282H602.902C602.902 278.828 603.409 275.983 604.399 273.445L601.604 272.355ZM599.902 282C599.902 285.432 600.462 288.62 601.604 291.545L604.399 290.455C603.407 287.914 602.902 285.101 602.902 282H599.902ZM601.616 291.575C602.819 294.477 604.489 297.037 606.624 299.243L608.779 297.157C606.914 295.23 605.45 292.99 604.387 290.425L601.616 291.575ZM606.658 299.278C608.871 301.419 611.441 303.06 614.356 304.197L615.447 301.403C612.895 300.407 610.665 298.981 608.745 297.122L606.658 299.278ZM614.368 304.202C617.356 305.34 620.606 305.9 624.102 305.9V302.9C620.93 302.9 618.047 302.393 615.436 301.398L614.368 304.202ZM624.102 305.9C627.461 305.9 630.721 305.375 633.876 304.323L632.927 301.477C630.082 302.425 627.142 302.9 624.102 302.9V305.9ZM633.894 304.317C637.166 303.179 640.294 301.307 643.28 298.737L641.323 296.463C638.576 298.827 635.771 300.488 632.909 301.483L633.894 304.317ZM641.122 298.527L650.322 310.227L652.681 308.373L643.481 296.673L641.122 298.527ZM650.598 308.103C646.954 310.852 642.684 312.976 637.767 314.464L638.636 317.336C643.853 315.757 648.449 313.482 652.405 310.497L650.598 308.103ZM637.762 314.466C632.898 315.958 628.046 316.7 623.202 316.7V319.7C628.357 319.7 633.505 318.909 638.641 317.334L637.762 314.466ZM638.202 307.2V280.9H635.202V307.2H638.202ZM636.702 282.4H651.502V279.4H636.702V282.4ZM650.002 280.9V309.3H653.002V280.9H650.002ZM651.712 307.815L636.912 305.715L636.491 308.685L651.291 310.785L651.712 307.815ZM25.3 400.5V399H23.8V400.5H25.3ZM58.9 400.5H60.4V399H58.9V400.5ZM58.9 413.5V415H60.4V413.5H58.9ZM25.3 413.5H23.8V415H25.3V413.5ZM26.5 439V440.5H28V439H26.5ZM10.3 439H8.8V440.5H10.3V439ZM10.3 369V367.5H8.8V369H10.3ZM63.2 369H64.7V367.5H63.2V369ZM63.2 382V383.5H64.7V382H63.2ZM26.5 382V380.5H25V382H26.5ZM25.3 402H58.9V399H25.3V402ZM57.4 400.5V413.5H60.4V400.5H57.4ZM58.9 412H25.3V415H58.9V412ZM26.8 413.5V400.5H23.8V413.5H26.8ZM26.5 437.5H10.3V440.5H26.5V437.5ZM11.8 439V369H8.8V439H11.8ZM10.3 370.5H63.2V367.5H10.3V370.5ZM61.7 369V382H64.7V369H61.7ZM63.2 380.5H26.5V383.5H63.2V380.5ZM25 382V439H28V382H25ZM81.9672 431.9L83.0215 430.833L83.0215 430.833L81.9672 431.9ZM73.5672 369V367.5H72.0672V369H73.5672ZM89.7672 369H91.2672V367.5H89.7672V369ZM93.8672 422L92.7698 423.023L92.7698 423.023L93.8672 422ZM116.867 422L117.965 423.023L117.965 423.023L116.867 422ZM120.967 369V367.5H119.467V369H120.967ZM136.967 369H138.467V367.5H136.967V369ZM128.567 431.9L129.621 432.967L129.621 432.967L128.567 431.9ZM105.267 438.7C95.62 438.7 88.2719 436.021 83.0215 430.833L80.9129 432.967C86.8625 438.846 95.0477 441.7 105.267 441.7V438.7ZM83.0215 430.833C77.786 425.66 75.0672 418.193 75.0672 408.2H72.0672C72.0672 418.74 74.9484 427.074 80.9129 432.967L83.0215 430.833ZM75.0672 408.2V369H72.0672V408.2H75.0672ZM73.5672 370.5H89.7672V367.5H73.5672V370.5ZM88.2672 369V407.6H91.2672V369H88.2672ZM88.2672 407.6C88.2672 414.411 89.6526 419.677 92.7698 423.023L94.9646 420.977C92.6152 418.456 91.2672 414.123 91.2672 407.6H88.2672ZM92.7698 423.023C95.8502 426.328 100.121 427.9 105.367 427.9V424.9C100.747 424.9 97.3509 423.538 94.9646 420.977L92.7698 423.023ZM105.367 427.9C110.614 427.9 114.884 426.328 117.965 423.023L115.77 420.977C113.383 423.538 109.987 424.9 105.367 424.9V427.9ZM117.965 423.023C121.082 419.677 122.467 414.411 122.467 407.6H119.467C119.467 414.123 118.119 418.456 115.77 420.977L117.965 423.023ZM122.467 407.6V369H119.467V407.6H122.467ZM120.967 370.5H136.967V367.5H120.967V370.5ZM135.467 369V408.2H138.467V369H135.467ZM135.467 408.2C135.467 418.193 132.748 425.66 127.513 430.833L129.621 432.967C135.586 427.074 138.467 418.74 138.467 408.2H135.467ZM127.513 430.833C122.262 436.021 114.914 438.7 105.267 438.7V441.7C115.487 441.7 123.672 438.846 129.621 432.967L127.513 430.833ZM166.304 439H164.804V440.5H166.304V439ZM166.304 382.2H167.804V380.7H166.304V382.2ZM143.904 382.2H142.404V383.7H143.904V382.2ZM143.904 369V367.5H142.404V369H143.904ZM204.904 369H206.404V367.5H204.904V369ZM204.904 382.2V383.7H206.404V382.2H204.904ZM182.504 382.2V380.7H181.004V382.2H182.504ZM182.504 439V440.5H184.004V439H182.504ZM167.804 439V382.2H164.804V439H167.804ZM166.304 380.7H143.904V383.7H166.304V380.7ZM145.404 382.2V369H142.404V382.2H145.404ZM143.904 370.5H204.904V367.5H143.904V370.5ZM203.404 369V382.2H206.404V369H203.404ZM204.904 380.7H182.504V383.7H204.904V380.7ZM181.004 382.2V439H184.004V382.2H181.004ZM182.504 437.5H166.304V440.5H182.504V437.5ZM220.248 431.9L221.303 430.833L221.303 430.833L220.248 431.9ZM211.848 369V367.5H210.348V369H211.848ZM228.048 369H229.548V367.5H228.048V369ZM232.148 422L231.051 423.023L231.051 423.023L232.148 422ZM255.148 422L256.246 423.023L256.246 423.023L255.148 422ZM259.248 369V367.5H257.748V369H259.248ZM275.248 369H276.748V367.5H275.248V369ZM266.848 431.9L267.903 432.967L267.903 432.967L266.848 431.9ZM243.548 438.7C233.901 438.7 226.553 436.021 221.303 430.833L219.194 432.967C225.144 438.846 233.329 441.7 243.548 441.7V438.7ZM221.303 430.833C216.067 425.66 213.348 418.193 213.348 408.2H210.348C210.348 418.74 213.23 427.074 219.194 432.967L221.303 430.833ZM213.348 408.2V369H210.348V408.2H213.348ZM211.848 370.5H228.048V367.5H211.848V370.5ZM226.548 369V407.6H229.548V369H226.548ZM226.548 407.6C226.548 414.411 227.934 419.677 231.051 423.023L233.246 420.977C230.896 418.456 229.548 414.123 229.548 407.6H226.548ZM231.051 423.023C234.131 426.328 238.402 427.9 243.648 427.9V424.9C239.028 424.9 235.632 423.538 233.246 420.977L231.051 423.023ZM243.648 427.9C248.895 427.9 253.165 426.328 256.246 423.023L254.051 420.977C251.665 423.538 248.269 424.9 243.648 424.9V427.9ZM256.246 423.023C259.363 419.677 260.748 414.411 260.748 407.6H257.748C257.748 414.123 256.4 418.456 254.051 420.977L256.246 423.023ZM260.748 407.6V369H257.748V407.6H260.748ZM259.248 370.5H275.248V367.5H259.248V370.5ZM273.748 369V408.2H276.748V369H273.748ZM273.748 408.2C273.748 418.193 271.03 425.66 265.794 430.833L267.903 432.967C273.867 427.074 276.748 418.74 276.748 408.2H273.748ZM265.794 430.833C260.544 436.021 253.196 438.7 243.548 438.7V441.7C253.768 441.7 261.953 438.846 267.903 432.967L265.794 430.833ZM291.257 439H289.757V440.5H291.257V439ZM291.257 369V367.5H289.757V369H291.257ZM337.757 372.1L337.135 373.465L337.143 373.469L337.152 373.472L337.757 372.1ZM348.257 380.8L346.999 381.617L346.999 381.617L348.257 380.8ZM348.257 407.9L349.509 408.727L349.515 408.717L348.257 407.9ZM337.757 416.5L338.362 417.872L338.362 417.872L337.757 416.5ZM300.257 419.5L299.204 418.432L296.6 421H300.257V419.5ZM307.457 412.4H308.957V408.814L306.404 411.332L307.457 412.4ZM307.457 439V440.5H308.957V439H307.457ZM335.757 439L334.522 439.851L334.969 440.5H335.757V439ZM318.257 413.6V412.1H315.402L317.022 414.451L318.257 413.6ZM335.557 413.6L336.788 412.742L336.34 412.1H335.557V413.6ZM353.257 439V440.5H356.131L354.488 438.142L353.257 439ZM307.457 414.2L306.368 415.232L308.957 417.964V414.2H307.457ZM300.257 406.6V405.1H296.77L299.168 407.632L300.257 406.6ZM331.857 403.4L332.838 404.535L332.847 404.527L332.855 404.519L331.857 403.4ZM300.257 382.2L299.161 381.176L296.801 383.7H300.257V382.2ZM307.457 374.5H308.957V370.7L306.361 373.476L307.457 374.5ZM292.757 439V369H289.757V439H292.757ZM291.257 370.5H321.557V367.5H291.257V370.5ZM321.557 370.5C327.663 370.5 332.84 371.507 337.135 373.465L338.379 370.735C333.607 368.56 327.985 367.5 321.557 367.5V370.5ZM337.152 373.472C341.444 375.366 344.706 378.084 346.999 381.617L349.515 379.983C346.875 375.916 343.137 372.834 338.362 370.728L337.152 373.472ZM346.999 381.617C349.283 385.136 350.457 389.375 350.457 394.4H353.457C353.457 388.892 352.164 384.064 349.515 379.983L346.999 381.617ZM350.457 394.4C350.457 399.354 349.285 403.561 346.999 407.083L349.515 408.717C352.162 404.639 353.457 399.846 353.457 394.4H350.457ZM347.006 407.073C344.714 410.541 341.451 413.231 337.152 415.128L338.362 417.872C343.13 415.769 346.867 412.726 349.509 408.727L347.006 407.073ZM337.152 415.128C332.852 417.024 327.668 418 321.557 418V421C327.979 421 333.595 419.976 338.362 417.872L337.152 415.128ZM321.557 418H300.257V421H321.557V418ZM301.31 420.568L308.51 413.468L306.404 411.332L299.204 418.432L301.31 420.568ZM305.957 412.4V439H308.957V412.4H305.957ZM307.457 437.5H291.257V440.5H307.457V437.5ZM336.992 438.149L319.492 412.749L317.022 414.451L334.522 439.851L336.992 438.149ZM318.257 415.1H335.557V412.1H318.257V415.1ZM334.326 414.458L352.026 439.858L354.488 438.142L336.788 412.742L334.326 414.458ZM353.257 437.5H335.757V440.5H353.257V437.5ZM308.546 413.168L301.346 405.568L299.168 407.632L306.368 415.232L308.546 413.168ZM300.257 408.1H320.657V405.1H300.257V408.1ZM320.657 408.1C325.833 408.1 329.986 407.001 332.838 404.535L330.876 402.265C328.795 404.065 325.481 405.1 320.657 405.1V408.1ZM332.855 404.519C335.69 401.991 337.057 398.557 337.057 394.4H334.057C334.057 397.843 332.957 400.409 330.859 402.281L332.855 404.519ZM337.057 394.4C337.057 390.187 335.696 386.737 332.838 384.265L330.876 386.535C332.951 388.329 334.057 390.88 334.057 394.4H337.057ZM332.838 384.265C329.986 381.799 325.833 380.7 320.657 380.7V383.7C325.481 383.7 328.795 384.735 330.876 386.535L332.838 384.265ZM320.657 380.7H300.257V383.7H320.657V380.7ZM301.353 383.224L308.553 375.524L306.361 373.476L299.161 381.176L301.353 383.224ZM305.957 374.5V414.2H308.957V374.5H305.957ZM379.692 397.2V395.7H378.192V397.2H379.692ZM413.392 397.2H414.892V395.7H413.392V397.2ZM413.392 409.8V411.3H414.892V409.8H413.392ZM379.692 409.8H378.192V411.3H379.692V409.8ZM380.892 426H379.392V427.5H380.892V426ZM418.992 426H420.492V424.5H418.992V426ZM418.992 439V440.5H420.492V439H418.992ZM364.792 439H363.292V440.5H364.792V439ZM364.792 369V367.5H363.292V369H364.792ZM417.692 369H419.192V367.5H417.692V369ZM417.692 382V383.5H419.192V382H417.692ZM380.892 382V380.5H379.392V382H380.892ZM379.692 398.7H413.392V395.7H379.692V398.7ZM411.892 397.2V409.8H414.892V397.2H411.892ZM413.392 408.3H379.692V411.3H413.392V408.3ZM381.192 409.8V397.2H378.192V409.8H381.192ZM380.892 427.5H418.992V424.5H380.892V427.5ZM417.492 426V439H420.492V426H417.492ZM418.992 437.5H364.792V440.5H418.992V437.5ZM366.292 439V369H363.292V439H366.292ZM364.792 370.5H417.692V367.5H364.792V370.5ZM416.192 369V382H419.192V369H416.192ZM417.692 380.5H380.892V383.5H417.692V380.5ZM379.392 382V426H382.392V382H379.392ZM438.782 438L438.353 439.437L438.361 439.44L438.37 439.442L438.782 438ZM426.382 432.1L425.015 431.484L424.526 432.568L425.47 433.291L426.382 432.1ZM431.882 419.9L432.751 418.678L431.264 417.62L430.515 419.284L431.882 419.9ZM442.482 425.2L441.994 426.618L442.008 426.623L442.022 426.628L442.482 425.2ZM462.682 426.3L463.127 427.733L463.142 427.728L463.156 427.723L462.682 426.3ZM467.082 423.6L465.924 422.646L465.924 422.646L467.082 423.6ZM466.282 415.3L465.365 416.487L465.382 416.5L465.4 416.513L466.282 415.3ZM460.482 412.6L460.044 414.035L460.062 414.04L460.081 414.045L460.482 412.6ZM452.482 410.6L452.142 412.061L452.162 412.066L452.181 412.07L452.482 410.6ZM443.782 408.2L443.318 409.626L443.327 409.629L443.782 408.2ZM435.882 404.6L435.1 405.88L435.1 405.88L435.882 404.6ZM429.982 398.8L428.702 399.582L428.71 399.595L428.718 399.608L429.982 398.8ZM430.982 378.7L429.73 377.874L429.726 377.88L430.982 378.7ZM440.782 370.8L441.393 372.17L441.403 372.166L440.782 370.8ZM470.282 369.4L469.918 370.855L469.929 370.858L469.94 370.86L470.282 369.4ZM481.582 374L482.972 374.565L483.444 373.403L482.384 372.732L481.582 374ZM476.582 386.3L475.838 387.602L477.326 388.453L477.972 386.865L476.582 386.3ZM466.782 382.2L466.37 383.642L466.384 383.646L466.397 383.65L466.782 382.2ZM449.482 381.9L448.966 380.492L448.966 380.492L449.482 381.9ZM445.182 384.8L446.374 385.711L446.386 385.695L446.398 385.678L445.182 384.8ZM446.082 393.2L445.165 394.387L445.182 394.4L445.2 394.413L446.082 393.2ZM451.882 395.8L451.481 397.245L451.481 397.245L451.882 395.8ZM459.782 397.8L459.442 399.261L459.45 399.263L459.782 397.8ZM468.482 400.1L468.048 401.536L468.057 401.539L468.482 400.1ZM476.482 403.6L477.264 402.32L477.264 402.32L476.482 403.6ZM482.282 409.4L481.002 410.182L481.01 410.195L481.018 410.208L482.282 409.4ZM481.282 429.3L482.526 430.138L482.526 430.138L481.282 429.3ZM471.382 437.2L470.761 435.834L470.753 435.838L471.382 437.2ZM454.882 438.7C449.415 438.7 444.187 437.984 439.194 436.558L438.37 439.442C443.644 440.949 449.149 441.7 454.882 441.7V438.7ZM439.211 436.563C434.194 435.064 430.241 433.167 427.294 430.909L425.47 433.291C428.789 435.833 433.103 437.869 438.353 439.437L439.211 436.563ZM427.749 432.716L433.249 420.516L430.515 419.284L425.015 431.484L427.749 432.716ZM431.013 421.122C434.147 423.352 437.814 425.179 441.994 426.618L442.97 423.782C439.017 422.421 435.617 420.715 432.751 418.678L431.013 421.122ZM442.022 426.628C446.299 428.007 450.62 428.7 454.982 428.7V425.7C450.944 425.7 446.932 425.059 442.943 423.772L442.022 426.628ZM454.982 428.7C458.256 428.7 460.991 428.395 463.127 427.733L462.237 424.867C460.507 425.405 458.108 425.7 454.982 425.7V428.7ZM463.156 427.723C465.313 427.004 467.065 425.98 468.24 424.554L465.924 422.646C465.232 423.487 464.051 424.263 462.208 424.877L463.156 427.723ZM468.24 424.554C469.394 423.152 469.982 421.515 469.982 419.7H466.982C466.982 420.818 466.637 421.781 465.924 422.646L468.24 424.554ZM469.982 419.7C469.982 417.37 469.032 415.445 467.164 414.087L465.4 416.513C466.465 417.288 466.982 418.297 466.982 419.7H469.982ZM467.199 414.113C465.536 412.828 463.41 411.857 460.883 411.155L460.081 414.045C462.354 414.677 464.095 415.505 465.365 416.487L467.199 414.113ZM460.92 411.165C458.467 410.416 455.754 409.738 452.783 409.13L452.181 412.07C455.077 412.662 457.697 413.317 460.044 414.035L460.92 411.165ZM452.822 409.139C449.996 408.482 447.134 407.692 444.237 406.771L443.327 409.629C446.297 410.574 449.235 411.385 452.142 412.061L452.822 409.139ZM444.246 406.774C441.483 405.874 438.957 404.722 436.664 403.32L435.1 405.88C437.607 407.412 440.348 408.659 443.318 409.626L444.246 406.774ZM436.664 403.32C434.461 401.974 432.658 400.203 431.246 397.992L428.718 399.608C430.372 402.197 432.503 404.293 435.1 405.88L436.664 403.32ZM431.262 398.018C429.979 395.919 429.282 393.145 429.282 389.6H426.282C426.282 393.521 427.052 396.881 428.702 399.582L431.262 398.018ZM429.282 389.6C429.282 385.884 430.268 382.537 432.238 379.52L429.726 377.88C427.429 381.397 426.282 385.316 426.282 389.6H429.282ZM432.234 379.526C434.249 376.473 437.271 374.009 441.393 372.17L440.171 369.43C435.626 371.458 432.115 374.26 429.73 377.874L432.234 379.526ZM441.403 372.166C445.55 370.28 450.822 369.3 457.282 369.3V366.3C450.542 366.3 444.814 367.32 440.161 369.434L441.403 372.166ZM457.282 369.3C461.559 369.3 465.771 369.818 469.918 370.855L470.646 367.945C466.26 366.848 461.805 366.3 457.282 366.3V369.3ZM469.94 370.86C474.065 371.827 477.672 373.301 480.78 375.268L482.384 372.732C478.958 370.565 475.032 368.973 470.624 367.94L469.94 370.86ZM480.192 373.435L475.192 385.735L477.972 386.865L482.972 374.565L480.192 373.435ZM477.326 384.998C473.959 383.074 470.572 381.654 467.167 380.75L466.397 383.65C469.525 384.48 472.672 385.793 475.838 387.602L477.326 384.998ZM467.194 380.758C463.805 379.789 460.466 379.3 457.182 379.3V382.3C460.165 382.3 463.226 382.744 466.37 383.642L467.194 380.758ZM457.182 379.3C453.948 379.3 451.189 379.676 448.966 380.492L449.998 383.308C451.775 382.657 454.15 382.3 457.182 382.3V379.3ZM448.966 380.492C446.803 381.285 445.069 382.394 443.966 383.922L446.398 385.678C447.028 384.806 448.162 383.982 449.998 383.308L448.966 380.492ZM443.99 383.889C442.908 385.304 442.382 386.964 442.382 388.8H445.382C445.382 387.57 445.722 386.563 446.374 385.711L443.99 383.889ZM442.382 388.8C442.382 391.08 443.343 392.979 445.165 394.387L446.999 392.013C445.887 391.154 445.382 390.12 445.382 388.8H442.382ZM445.2 394.413C446.855 395.617 448.968 396.547 451.481 397.245L452.283 394.355C449.996 393.719 448.243 392.917 446.964 391.987L445.2 394.413ZM451.481 397.245C453.904 397.919 456.559 398.59 459.442 399.261L460.122 396.339C457.272 395.676 454.66 395.015 452.283 394.355L451.481 397.245ZM459.45 399.263C462.349 399.922 465.215 400.679 468.048 401.536L468.916 398.664C466.016 397.787 463.082 397.012 460.114 396.337L459.45 399.263ZM468.057 401.539C470.876 402.371 473.421 403.487 475.7 404.88L477.264 402.32C474.743 400.78 471.955 399.562 468.907 398.661L468.057 401.539ZM475.7 404.88C477.897 406.223 479.66 407.985 481.002 410.182L483.562 408.618C481.971 406.015 479.867 403.911 477.264 402.32L475.7 404.88ZM481.018 410.208C482.359 412.306 483.082 415.038 483.082 418.5H486.082C486.082 414.628 485.272 411.294 483.546 408.592L481.018 410.208ZM483.082 418.5C483.082 422.134 482.071 425.443 480.038 428.462L482.526 430.138C484.893 426.624 486.082 422.732 486.082 418.5H483.082ZM480.038 428.462C478.025 431.451 474.966 433.923 470.761 435.834L472.003 438.566C476.598 436.477 480.139 433.682 482.526 430.138L480.038 428.462ZM470.753 435.838C466.679 437.719 461.412 438.7 454.882 438.7V441.7C461.685 441.7 467.418 440.681 472.011 438.562L470.753 435.838Z" fill="black" mask="url(#path-1-outside-1_26_112)"/>
</svg>
