<svg width="32" height="32" viewBox="0 0 32 32" fill="none" xmlns="http://www.w3.org/2000/svg">
<path d="M28.8646 21.8217L24.34 21.3051C23.2533 21.1804 22.1845 21.5545 21.4185 22.3205L18.1408 25.5982C13.0996 23.033 8.9668 18.9181 6.40164 13.859L9.69716 10.5635C10.4631 9.7975 10.8372 8.72868 10.7125 7.64205L10.1959 3.15301C9.98218 1.35384 8.46802 0 6.65103 0H3.56927C1.55633 0 -0.118152 1.67448 0.0065438 3.68742C0.950666 18.9003 13.1174 31.0492 28.3124 31.9933C30.3253 32.118 31.9998 30.4435 31.9998 28.4306V25.3488C32.0176 23.5496 30.6638 22.0355 28.8646 21.8217Z" fill="black"/>
</svg>
