<svg width="80" height="80" viewBox="0 0 80 80" fill="none" xmlns="http://www.w3.org/2000/svg">
<circle cx="40" cy="40.0034" r="40" fill="#EB1829"/>
<path d="M32 51.04V30.004C31.9999 29.6521 32.0926 29.3064 32.2689 29.0018C32.4451 28.6972 32.6986 28.4445 33.0038 28.2692C33.3089 28.0939 33.6549 28.0022 34.0068 28.0034C34.3587 28.0046 34.7041 28.0986 35.008 28.276L53.038 38.796C53.3397 38.9722 53.5899 39.2244 53.7639 39.5274C53.9378 39.8304 54.0293 40.1736 54.0293 40.523C54.0293 40.8724 53.9378 41.2157 53.7639 41.5187C53.5899 41.8217 53.3397 42.0738 53.038 42.25L35.008 52.768C34.7041 52.9454 34.3587 53.0394 34.0068 53.0406C33.6549 53.0418 33.3089 52.9501 33.0038 52.7748C32.6986 52.5995 32.4451 52.3468 32.2689 52.0422C32.0926 51.7376 31.9999 51.3919 32 51.04Z" fill="#FFE1E1"/>
</svg>
