<svg width="45" height="45" viewBox="0 0 45 45" fill="none" xmlns="http://www.w3.org/2000/svg">
<path d="M18.2209 19.6012C18.2209 20.3637 17.6027 20.9816 16.8406 20.9816C16.0781 20.9816 15.4602 20.3637 15.4602 19.6012C15.4602 18.8388 16.0781 18.2209 16.8406 18.2209C17.6027 18.2209 18.2209 18.8388 18.2209 19.6012Z" fill="black"/>
<path d="M37.3271 9.88495H33.7033V7.67292C33.7033 3.43529 30.2749 0 26.0304 0H7.67292C3.43529 0 0 3.42808 0 7.67292V32.3849C0 33.487 1.29227 34.1225 2.16225 33.3978L10.2684 26.6425H11.297V30.2666C11.297 34.5043 14.7251 37.9396 18.97 37.9396H34.7319L42.8378 44.6944C43.0795 44.896 43.3792 45 43.682 45C44.4067 45 45 44.4119 45 43.6816V17.5575C45 13.3199 41.5719 9.88495 37.3271 9.88495ZM9.79088 24.0058C9.48257 24.0058 9.18388 24.114 8.94699 24.3114L2.63672 29.57V7.67292C2.63672 4.89132 4.88686 2.63672 7.67292 2.63672H26.0304C28.8116 2.63672 31.0666 4.88686 31.0666 7.67292V18.97C31.0666 21.7467 28.8072 24.0058 26.0304 24.0058H9.79088ZM42.3633 40.8671L36.053 35.6084C35.8161 35.411 35.5174 35.3028 35.2091 35.3028H18.9696C17.6245 35.3028 16.3597 34.7789 15.4087 33.8276C14.4573 32.8766 13.9334 31.6118 13.9334 30.2666V26.6425H26.03C27.6794 26.6425 29.2089 26.1193 30.4613 25.2304H36.6209C37.3491 25.2304 37.9392 24.6403 37.9392 23.9121C37.9392 23.1842 37.3491 22.5937 36.6209 22.5937H32.7918C33.2814 21.6839 33.5928 20.6643 33.6786 19.5821H36.6209C37.3491 19.5821 37.9392 18.9919 37.9392 18.2637C37.9392 17.5356 37.3491 16.9454 36.6209 16.9454H33.703V12.5217H37.3271C38.6726 12.5217 39.937 13.0452 40.8884 13.9966C41.8394 14.9476 42.3633 16.2124 42.3633 17.5575V40.8671Z" fill="black"/>
<path d="M14.5735 10.4602C14.5735 9.85858 14.8092 9.29331 15.2371 8.86761C15.665 8.44226 16.234 8.2079 16.8406 8.2079C18.0904 8.2079 19.1077 9.21915 19.1077 10.4616C19.1077 11.7044 18.0904 12.7154 16.8406 12.7154C16.0943 12.7154 15.4894 13.3167 15.4894 14.0586V15.4973C15.4894 16.2388 16.0943 16.8405 16.8406 16.8405C17.5866 16.8405 18.1918 16.2388 18.1918 15.4973V15.216C20.2773 14.6294 21.8097 12.7203 21.8097 10.4616C21.8097 7.73742 19.5806 5.52147 16.8392 5.52147C15.5123 5.52147 14.2645 6.03532 13.3261 6.96787C12.388 7.90078 11.8711 9.14115 11.8711 10.4599V10.4613C11.8711 11.2032 12.476 11.8038 13.2223 11.8038C13.9686 11.8038 14.5735 11.2021 14.5735 10.4602Z" fill="black"/>
<path d="M36.5025 28.1595H19.5406C18.8117 28.1595 18.2209 28.7778 18.2209 29.5399C18.2209 30.3023 18.8117 30.9203 19.5406 30.9203H36.5025C37.2311 30.9203 37.8222 30.3023 37.8222 29.5399C37.8222 28.7778 37.2311 28.1595 36.5025 28.1595Z" fill="black"/>
</svg>
