<svg width="50" height="50" viewBox="0 0 50 50" fill="none" xmlns="http://www.w3.org/2000/svg">
<circle cx="25" cy="25" r="25" fill="black"/>
<path d="M25 14C22.6131 14 20.3239 14.9271 18.636 16.5775C16.9482 18.2278 16 20.4661 16 22.8C16 28.74 23.9313 35.4499 24.2688 35.7359C24.4725 35.9064 24.7319 36 25 36C25.2681 36 25.5275 35.9064 25.7313 35.7359C26.125 35.4499 34 28.74 34 22.8C34 20.4661 33.0518 18.2278 31.364 16.5775C29.6761 14.9271 27.3869 14 25 14ZM25 33.4149C22.6038 31.2149 18.25 26.474 18.25 22.8C18.25 21.0495 18.9612 19.3708 20.227 18.1331C21.4929 16.8953 23.2098 16.2 25 16.2C26.7902 16.2 28.5071 16.8953 29.773 18.1331C31.0388 19.3708 31.75 21.0495 31.75 22.8C31.75 26.474 27.3963 31.2259 25 33.4149ZM25 18.4C24.11 18.4 23.24 18.658 22.4999 19.1415C21.7599 19.625 21.1831 20.3122 20.8425 21.1162C20.5019 21.9202 20.4128 22.8049 20.5865 23.6584C20.7601 24.5119 21.1887 25.2959 21.818 25.9112C22.4474 26.5266 23.2492 26.9456 24.1221 27.1154C24.995 27.2852 25.8998 27.1981 26.7221 26.865C27.5443 26.532 28.2471 25.968 28.7416 25.2445C29.2361 24.5209 29.5 23.6702 29.5 22.8C29.5 21.633 29.0259 20.5139 28.182 19.6887C27.3381 18.8636 26.1935 18.4 25 18.4ZM25 25C24.555 25 24.12 24.8709 23.75 24.6292C23.38 24.3875 23.0916 24.0439 22.9213 23.6419C22.751 23.2399 22.7064 22.7975 22.7932 22.3708C22.8801 21.944 23.0943 21.552 23.409 21.2443C23.7237 20.9367 24.1246 20.7271 24.561 20.6423C24.9975 20.5574 25.4499 20.6009 25.861 20.7674C26.2722 20.934 26.6236 21.2159 26.8708 21.5777C27.118 21.9395 27.25 22.3649 27.25 22.8C27.25 23.3834 27.0129 23.943 26.591 24.3556C26.169 24.7682 25.5967 25 25 25Z" fill="white"/>
</svg>
