<svg width="50" height="50" viewBox="0 0 50 50" fill="none" xmlns="http://www.w3.org/2000/svg">
<path fill-rule="evenodd" clip-rule="evenodd" d="M25 0C18.3696 0 12.0107 2.63392 7.32233 7.32233C2.63392 12.0107 0 18.3696 0 25C0 31.6304 2.63392 37.9893 7.32233 42.6777C12.0107 47.3661 18.3696 50 25 50C31.6304 50 37.9893 47.3661 42.6777 42.6777C47.3661 37.9893 50 31.6304 50 25C50 18.3696 47.3661 12.0107 42.6777 7.32233C37.9893 2.63392 31.6304 0 25 0ZM13.2558 17.3231H36.7635L25.0135 26.6442L13.2558 17.3231ZM11.5692 18.4423L24.425 28.6288C24.5948 28.763 24.8048 28.836 25.0212 28.836C25.2375 28.836 25.4475 28.763 25.6173 28.6288L38.4346 18.45V32.6769H11.5692V18.4423Z" fill="black"/>
</svg>
