<svg width="137" height="137" viewBox="0 0 137 137" fill="none" xmlns="http://www.w3.org/2000/svg">
<circle cx="68.5" cy="68.5" r="68" stroke="black"/>
<path d="M40.394 76V60.6H46.4C47.7493 60.6 48.9007 60.8127 49.854 61.238C50.8073 61.6633 51.5407 62.2793 52.054 63.086C52.5673 63.8927 52.824 64.8533 52.824 65.968C52.824 67.0827 52.5673 68.0433 52.054 68.85C51.5407 69.642 50.8073 70.258 49.854 70.698C48.9007 71.1233 47.7493 71.336 46.4 71.336H41.604L42.594 70.302V76H40.394ZM42.594 70.522L41.604 69.422H46.334C47.742 69.422 48.8053 69.1213 49.524 68.52C50.2573 67.9187 50.624 67.068 50.624 65.968C50.624 64.868 50.2573 64.0173 49.524 63.416C48.8053 62.8147 47.742 62.514 46.334 62.514H41.604L42.594 61.414V70.522ZM56.0561 76V60.6H62.0621C63.4114 60.6 64.5628 60.8127 65.5161 61.238C66.4694 61.6633 67.2028 62.2793 67.7161 63.086C68.2294 63.8927 68.4861 64.8533 68.4861 65.968C68.4861 67.0827 68.2294 68.0433 67.7161 68.85C67.2028 69.642 66.4694 70.2507 65.5161 70.676C64.5628 71.1013 63.4114 71.314 62.0621 71.314H57.2661L58.2561 70.302V76H56.0561ZM66.3521 76L62.4361 70.412H64.7901L68.7501 76H66.3521ZM58.2561 70.522L57.2661 69.444H61.9961C63.4041 69.444 64.4674 69.1433 65.1861 68.542C65.9194 67.926 66.2861 67.068 66.2861 65.968C66.2861 64.868 65.9194 64.0173 65.1861 63.416C64.4674 62.8147 63.4041 62.514 61.9961 62.514H57.2661L58.2561 61.414V70.522ZM74.0425 67.244H81.9625V69.114H74.0425V67.244ZM74.2405 74.086H83.2165V76H72.0405V60.6H82.9085V62.514H74.2405V74.086ZM91.0079 76L84.2319 60.6H86.6079L92.8339 74.812H91.4699L97.7399 60.6H99.9399L93.1859 76H91.0079Z" fill="black"/>
</svg>
