<svg width="137" height="137" viewBox="0 0 137 137" fill="none" xmlns="http://www.w3.org/2000/svg">
<circle cx="68.5" cy="68.5" r="68" stroke="black"/>
<path d="M40.5649 76V60.6H42.3689L52.5549 73.25H51.6089V60.6H53.8089V76H52.0049L41.8189 63.35H42.7649V76H40.5649ZM58.4184 76V60.6H69.2864V62.514H60.6184V74.086H69.5944V76H58.4184ZM60.4204 69.114V67.244H68.3404V69.114H60.4204ZM70.9823 76L77.3843 67.266V68.96L71.3343 60.6H73.8423L78.6383 67.178L77.6483 67.2L82.4223 60.6H84.8203L78.8143 68.828V67.244L85.2163 76H82.6863L77.5823 68.982H78.5503L73.5123 76H70.9823ZM90.201 76V62.514H84.921V60.6H97.659V62.514H92.379V76H90.201Z" fill="black"/>
</svg>
