<svg width="50" height="50" viewBox="0 0 50 50" fill="none" xmlns="http://www.w3.org/2000/svg">
<circle cx="25" cy="25" r="25" fill="black"/>
<path d="M22.9129 19.0482C22.6266 15.7525 19.1904 14.1354 19.045 14.0694C18.909 14.0055 18.7567 13.985 18.6087 14.0109C14.6418 14.6694 14.0452 16.9796 14.0212 17.0756C13.9885 17.2094 13.9937 17.3496 14.0362 17.4806C18.7676 32.1695 28.6009 34.8922 31.8331 35.7878C32.082 35.8568 32.2874 35.9123 32.4433 35.9633C32.6212 36.0215 32.8145 36.0102 32.9845 35.9318C33.0835 35.8868 35.4192 34.7857 35.9904 31.1945C36.0158 31.0377 35.9905 30.8769 35.9185 30.7355C35.8675 30.6364 34.6456 28.3098 31.2574 27.4877C31.1425 27.4583 31.0221 27.4573 30.9067 27.4847C30.7913 27.5122 30.6842 27.5673 30.5948 27.6453C29.5259 28.5588 28.0492 29.5324 27.412 29.6329C23.1408 27.5433 20.7556 23.5335 20.6656 22.773C20.6131 22.3454 21.5921 20.8438 22.718 19.6228C22.7888 19.5459 22.8427 19.4551 22.8762 19.3561C22.9098 19.2572 22.9223 19.1523 22.9129 19.0482Z" fill="white"/>
</svg>
